<svg width="148" height="49" viewBox="0 0 148 49" fill="none" xmlns="http://www.w3.org/2000/svg">
<path d="M33.5046 26.0407C34.0047 25.7888 34.5547 25.4866 35.0548 25.2347C35.2548 25.1339 35.9549 24.882 36.0549 24.6805C36.1049 24.5797 36.0549 24.2774 36.0549 24.1263V22.9172V14.3023V5.88883V4.78048C36.0549 4.7301 36.1049 4.37744 36.0549 4.32706C36.0049 4.27668 35.6049 4.32706 35.5549 4.32706H34.4547C34.0547 4.32706 34.1047 4.37744 33.8546 4.67972C32.9045 5.93921 31.9544 7.19871 31.0042 8.50858C30.5542 9.11314 30.1041 9.66732 29.7041 10.2719C29.404 10.6749 29.404 10.7253 28.854 10.7253L29.004 7.40023C29.054 6.59415 29.054 5.78807 29.104 4.982C29.104 4.67972 29.154 4.37744 29.154 4.07516C29.154 3.9744 29.104 3.67212 29.154 3.62174C29.254 3.47061 30.1541 3.57136 30.4042 3.57136H49.1067C49.2067 3.57136 49.6568 3.52098 49.7568 3.57136C49.8568 3.62174 49.8068 3.92402 49.8068 4.07516C49.8568 4.7301 49.8568 5.43542 49.9068 6.09035C49.9568 7.55137 50.0068 8.962 50.1069 10.423V10.7253C49.8568 10.7253 49.6568 10.7757 49.4568 10.6245C49.2567 10.4734 49.1067 10.1711 48.9567 9.96959C48.3566 9.16352 47.7565 8.30706 47.1064 7.50099L45.3062 5.08276C45.2062 4.93162 45.0562 4.57896 44.8561 4.4782C44.7061 4.37744 44.4061 4.42782 44.2061 4.42782H43.4059C43.3059 4.42782 42.9059 4.37744 42.8059 4.42782C42.7559 4.4782 42.8059 4.4782 42.7559 4.57896C42.6558 4.982 42.7559 5.4858 42.7559 5.88883V23.421C42.7559 23.7736 42.6558 24.2774 42.7559 24.6301C42.8559 24.9828 43.656 25.2347 44.006 25.3858C44.3561 25.5873 44.9562 25.7385 45.2562 26.0407C45.3562 26.1415 45.4562 26.6453 45.3562 26.7964C45.3062 26.8468 45.0562 26.7964 45.0062 26.7964H34.0047C33.9046 26.7964 33.5546 26.8468 33.5046 26.7964C33.4546 26.5949 33.5046 26.1919 33.5046 26.0407ZM52.0571 25.1339V17.7785V5.73769V3.77288C52.0571 3.47061 52.1571 3.01719 52.0571 2.71491C51.9571 2.36225 51.357 2.31187 51.007 2.16073C50.807 2.11035 50.1569 1.95921 50.0569 1.75769V1.35466H50.2069C50.4069 1.2539 50.807 1.2539 51.057 1.20352C51.5071 1.10276 51.9571 1.05238 52.3572 0.951618C53.3573 0.750099 54.4074 0.54858 55.4076 0.39744C56.0077 0.296681 56.6078 0.145542 57.2078 0.044782C57.3579 0.044782 57.9579 -0.0559775 58.0079 0.044782C58.058 0.0951618 58.0079 0.296681 58.0079 0.347061V10.7757C59.9082 8.86124 63.2087 7.80326 65.859 8.4582C68.1593 9.01238 68.9094 11.1787 68.9094 13.3954C68.9594 16.2167 68.9094 18.9876 68.9094 21.8088V24.0759C68.9094 24.3278 68.8094 24.9324 68.9094 25.1843C68.9594 25.285 69.1595 25.3354 69.2595 25.4362C69.6095 25.6377 70.0096 25.8392 70.3596 26.0407C70.4097 26.0911 70.5597 26.1415 70.5597 26.1919C70.6097 26.2423 70.6097 26.6957 70.5597 26.746C70.5097 26.8468 70.5097 26.7964 70.3596 26.7964C69.8096 26.8972 69.2095 26.7964 68.7094 26.7964H61.5084C61.4584 26.7964 61.2084 26.8468 61.1584 26.7964C61.1084 26.7461 61.1084 26.1919 61.1584 26.1415C61.3084 25.94 61.9085 25.7385 62.1085 25.5873C62.2585 25.4866 62.7086 25.3354 62.8086 25.1843C62.9086 25.0331 62.8086 24.479 62.8086 24.3278V22.2623C62.8086 19.3402 62.8586 16.3678 62.8086 13.4458C62.8086 12.5893 62.6586 11.5817 61.8085 11.1283C61.3584 10.8764 60.7583 10.826 60.2583 10.826C59.8582 10.826 59.4581 10.9268 59.1081 11.0276C58.8081 11.1283 58.258 11.3298 58.0579 11.5817C57.9079 11.7833 58.0079 12.0855 58.0079 12.3374V24.2271C58.0079 24.479 57.9079 24.9828 58.0079 25.1843C58.058 25.285 58.258 25.3858 58.408 25.4362C58.758 25.6377 59.2081 25.8392 59.5582 26.0407C59.6082 26.0911 59.7082 26.0911 59.7082 26.1415C59.7582 26.1919 59.7582 26.6453 59.7082 26.6957C59.6582 26.746 59.6082 26.746 59.5081 26.746C58.9581 26.7964 58.358 26.746 57.8079 26.746H50.6069C50.5569 26.746 50.3069 26.7964 50.2569 26.746C50.2069 26.6957 50.2569 26.1919 50.3069 26.0911C50.4569 25.8896 51.007 25.6881 51.207 25.5873C51.5571 25.4362 51.8071 25.285 52.0571 25.1339ZM75.8104 18.1815C75.9104 20.3982 76.6105 22.8668 78.6108 24.0759C79.6609 24.6805 80.9611 24.882 82.1613 24.7812C83.6115 24.6301 84.8116 23.9248 86.0618 23.2698C86.0618 23.4714 86.1118 23.824 86.0618 24.0255C85.9618 24.2271 85.7117 24.479 85.5617 24.6301C85.3617 24.8316 85.1117 25.0835 84.8616 25.285C84.0115 25.9904 83.0614 26.4942 82.0612 26.8468C80.161 27.5017 77.9607 27.4514 76.0104 26.9476C74.4602 26.5445 73.06 25.7888 72.0099 24.5797C70.9597 23.3706 70.3596 21.8088 70.1096 20.1967C69.5595 16.7205 70.2096 12.7405 73.06 10.423C75.5603 8.40782 79.5609 8.00478 82.5113 9.2139C86.1118 10.6749 86.7119 14.806 86.7119 18.2319H77.1606C76.7105 18.1815 76.2604 18.1815 75.8104 18.1815ZM75.7104 17.325C76.7105 17.2747 77.7106 17.2243 78.7608 17.1235C79.3609 17.0731 80.011 17.0731 80.611 17.0228C80.7111 17.0228 80.9611 17.0228 81.0611 16.9724C81.2111 16.8716 81.1111 15.864 81.1111 15.6625C81.0611 13.8488 81.0111 11.6321 79.961 10.0704C79.2109 8.962 78.0607 9.16352 77.3606 10.1711C75.9104 12.1359 75.7104 15.0579 75.7104 17.325ZM0 35.7136C0 32.8924 0.550075 29.9704 2.10029 27.6025C3.60049 25.285 6.00082 23.7736 8.60118 23.018C11.7516 22.1111 15.2521 22.2119 18.5025 22.8164C19.2026 22.9676 19.9027 23.1187 20.5528 23.3202C20.6528 23.3706 21.1029 23.4714 21.1529 23.5721V23.7233C21.3029 24.3278 21.2029 25.0835 21.2029 25.6881C21.2529 27.2498 21.2529 28.862 21.3029 30.4238C21.1029 30.4238 20.7528 30.4742 20.6028 30.4238C20.5028 30.3734 20.4028 30.1215 20.3528 30.0207C19.9527 29.4162 19.5527 28.8116 19.2026 28.1567C18.3525 26.7964 17.4524 25.4362 16.6023 24.0759C16.1522 23.3202 14.902 23.3202 14.1019 23.3202C13.2018 23.3202 12.3017 23.4714 11.5516 23.9248C9.85135 24.9828 9.05124 27.0483 8.60118 28.9124C7.90108 31.8848 7.95109 35.0083 8.10111 38.0311C8.25113 40.3486 8.45116 42.8172 9.35128 44.9331C9.90136 46.243 10.8515 47.4017 12.3017 47.704C12.7517 47.8048 13.2018 47.8048 13.7019 47.7544C14.0019 47.704 15.0521 47.6536 15.2021 47.3514C15.2521 47.2506 15.2021 46.9987 15.2021 46.898V46.0415V40.7012V38.6357C15.2021 38.283 15.3021 38.1319 15.0021 37.9304C14.652 37.7288 14.252 37.5273 13.9019 37.2754C13.6519 37.1243 13.1518 36.9731 13.0018 36.7716C12.9018 36.6709 12.8518 36.1167 12.9518 36.0159C13.0018 35.9152 13.0018 35.9655 13.1518 35.9655C13.6019 35.8648 14.2019 35.9655 14.652 35.9655H22.4031C22.9031 35.9655 23.4532 35.9152 23.9533 35.9655H24.1533C24.2033 36.0159 24.2033 36.7212 24.1533 36.822C24.0533 36.9731 23.5532 37.1747 23.3532 37.2754C23.0031 37.4769 22.6031 37.6785 22.253 37.9304C21.853 38.1319 21.903 38.1319 21.903 38.5853V46.7972C21.903 46.898 21.953 47.1499 21.903 47.2506C21.803 47.5025 20.7528 47.6537 20.4528 47.7544C19.6027 48.0063 18.7026 48.2078 17.8024 48.359C16.0522 48.6612 14.302 48.762 12.5517 48.7116C9.75134 48.6109 6.80093 48.0063 4.50062 46.2934C2.50034 44.8324 1.20016 42.6157 0.600082 40.1974C0.150021 38.7868 0 37.225 0 35.7136ZM23.0532 31.1291C23.0532 31.0283 23.0031 30.6253 23.0532 30.5749C23.1032 30.5245 23.1532 30.5749 23.2032 30.5245C23.5032 30.3734 23.9033 30.3734 24.2533 30.323C25.4035 30.1215 26.5536 29.92 27.7538 29.7185C28.6539 29.5673 29.554 29.3658 30.4042 29.265C30.6542 29.2147 30.9542 29.2147 31.2043 29.3154C31.4543 29.3658 31.3543 29.3154 31.4043 29.5169C31.5043 30.1215 31.4043 30.8268 31.4043 31.4314V41.9607C31.4043 43.2202 31.0543 45.5377 32.2544 46.2934C32.8545 46.6964 33.7046 46.6964 34.4047 46.5453C34.9548 46.4445 36.0049 46.0415 36.205 45.4369C36.255 45.2858 36.205 45.0843 36.205 44.9331V43.8752V36.8724V33.6481V32.5901C36.205 32.4893 36.255 32.1871 36.205 32.0863C36.0549 31.9352 35.5549 31.784 35.4048 31.7336C35.1048 31.6329 34.8548 31.4817 34.5547 31.381C34.4547 31.3306 34.1047 31.2802 34.0547 31.1795C34.0047 31.1291 34.0047 30.6757 34.0547 30.6253C34.1047 30.5749 34.1047 30.6253 34.1547 30.5749C34.4047 30.4238 34.8548 30.4742 35.1048 30.4238C37.1551 30.0711 39.2554 29.6177 41.3557 29.3154C41.6057 29.265 41.8557 29.265 42.1058 29.3154C42.3558 29.3658 42.2558 29.265 42.3058 29.5169C42.4058 30.0207 42.3058 30.726 42.3058 31.2802V45.7896C42.3058 45.9407 42.2558 46.1926 42.3058 46.3942C42.3558 46.5453 42.3058 46.4949 42.5558 46.5957C43.0559 46.7972 43.606 47.0491 44.106 47.2506C44.2561 47.301 44.3061 47.301 44.3561 47.4017C44.4061 47.5025 44.4061 47.8552 44.3561 47.8552C44.2561 47.9559 43.756 47.9055 43.656 47.9559C42.5558 48.1071 41.4557 48.2078 40.3055 48.359C39.3054 48.4597 38.3052 48.6109 37.3551 48.7116C37.1551 48.762 36.9551 48.762 36.755 48.7116C36.655 48.7116 36.355 48.7116 36.305 48.6612C36.255 48.5605 36.305 48.1574 36.305 48.0567V47.2002C36.305 47.0491 36.405 46.6461 36.305 46.4949C36.205 46.3438 36.0049 46.5453 35.8549 46.6461C35.4549 46.9987 35.0048 47.3514 34.5547 47.6033C32.9045 48.6109 30.8542 49.0643 28.954 48.6612C27.5538 48.359 26.3536 47.5529 25.7535 46.1926C25.3035 45.2354 25.2035 44.1774 25.2035 43.1698V37.1747V33.7488V32.5901C25.2035 32.4893 25.2535 32.1871 25.2035 32.0863C25.1034 31.9352 24.5034 31.784 24.3533 31.6833C23.8533 31.4817 23.4532 31.3306 23.0532 31.1291ZM70.2096 29.2147C70.3096 29.2147 70.7597 29.2147 70.8097 29.3154C70.8597 29.3658 70.8097 29.7185 70.8097 29.7688V34.2023C70.8097 34.3534 70.7597 34.6053 70.8097 34.7564V34.8572C71.0097 35.0587 71.0597 34.4038 71.1097 34.3534C71.5598 32.4893 72.4099 30.323 74.3102 29.5673C74.6602 29.4162 75.0103 29.3658 75.3603 29.3154C75.6604 29.3154 76.5105 29.2147 76.6605 29.4666C76.7105 29.5673 76.6605 29.8192 76.6605 29.92V35.0587C75.4603 34.8068 74.1102 34.8572 72.96 35.1091C72.4099 35.2099 71.9099 35.361 71.4098 35.6129C71.1597 35.7136 71.1097 35.6633 71.0597 35.8648C71.0097 36.0663 71.0597 36.419 71.0597 36.6205V46.3438C71.0597 46.4445 71.0097 46.5957 71.0597 46.6964C71.1598 46.8476 71.5098 46.9483 71.6598 46.9987C71.9099 47.1499 72.2099 47.301 72.4599 47.4521C72.5599 47.5025 72.71 47.5529 72.76 47.6536C72.81 47.704 72.81 48.3086 72.76 48.359C72.71 48.4093 72.4099 48.359 72.3099 48.359H64.0088C63.7587 48.359 63.3087 48.4597 63.1086 48.359H62.9586C62.9086 48.3086 62.9586 47.7544 62.9586 47.704C63.0586 47.4017 63.7087 47.2002 64.0088 47.0491C64.2088 46.9483 64.6089 46.7972 64.7089 46.5957C64.7589 46.4949 64.7089 46.1926 64.7089 46.0919V45.0339V32.0863C64.7089 32.0359 64.7589 31.784 64.7089 31.7336C64.6589 31.6833 64.4088 31.6329 64.3088 31.6329C64.0088 31.5321 63.7087 31.4314 63.4087 31.381C63.1086 31.2802 62.3585 31.2298 62.6086 30.7261C62.6586 30.5749 62.8586 30.6253 63.0586 30.5749C65.2589 30.1719 67.4092 29.7688 69.6095 29.3658C69.8096 29.265 70.0096 29.265 70.2096 29.2147ZM89.0622 29.6681V25.6377V24.479C89.0622 24.3278 89.1122 24.0255 89.0622 23.8744C89.0122 23.7736 88.8122 23.7233 88.6621 23.6729C88.2621 23.5217 87.862 23.3706 87.412 23.2195C87.1119 23.1187 86.9619 23.1691 86.9619 22.8164C86.9619 22.5142 86.9119 22.6149 87.1619 22.5645C87.712 22.363 88.3621 22.363 88.9122 22.2623C90.5624 21.96 92.1626 21.6577 93.8129 21.3554C94.1629 21.305 94.5129 21.2043 94.863 21.2547C95.2631 21.305 95.3131 21.2043 95.3131 21.5569C95.3631 22.363 95.3131 23.2195 95.3131 24.0255V46.0919C95.3131 46.2934 95.263 46.2934 95.4131 46.3942C95.7131 46.5957 96.2132 46.6964 96.5132 46.7972C96.7132 46.8476 97.2633 46.9483 97.3633 47.0995C97.4133 47.1499 97.4133 47.704 97.3633 47.7544C97.3133 47.8048 97.0133 47.8048 96.9633 47.8048C96.2632 47.9055 95.6131 48.0063 94.913 48.0567C93.3628 48.2582 91.8126 48.4597 90.2124 48.6612C89.9623 48.7116 89.3622 48.8124 89.2622 48.6109C89.1622 48.4093 89.2622 47.7544 89.2622 47.5529C89.2622 47.4018 89.3622 46.7468 89.2622 46.6461C89.1622 46.5453 88.0621 47.5529 87.912 47.6536C87.312 48.0567 86.6619 48.359 85.9618 48.5605C84.8616 48.8628 83.6115 48.8628 82.5113 48.6109C77.7106 47.5025 76.7105 41.7592 77.1106 37.5777C77.3106 35.361 78.0107 33.1443 79.5109 31.5321C80.9111 30.0711 82.8113 29.3154 84.7616 29.1643C86.2618 29.0131 87.712 29.1139 89.0622 29.6681ZM89.0622 45.7392V33.3458V31.0283C89.0622 30.726 89.0122 30.6757 88.6621 30.4742C87.9621 30.0711 87.0619 29.92 86.3118 30.2223C85.1617 30.6757 84.6116 32.0359 84.3115 33.1443C83.7115 35.1595 83.6615 37.3258 83.7115 39.4418C83.7615 41.2554 83.8115 43.4721 84.8116 45.0843C85.7117 46.4949 87.762 46.8476 89.0622 45.7392ZM105.614 29.2147C105.865 29.265 106.165 29.1643 106.265 29.4162C106.315 29.5673 106.265 29.92 106.265 30.0711V45.84C106.265 46.0415 106.215 46.3438 106.265 46.5453C106.315 46.7468 106.515 46.7972 106.715 46.898C107.015 47.0491 107.265 47.2002 107.565 47.3514C107.665 47.4018 107.965 47.5025 108.015 47.6536C108.015 47.704 108.065 48.3086 108.015 48.359H107.865C107.565 48.4093 107.165 48.359 106.815 48.359H99.2136C99.0136 48.359 98.4635 48.4597 98.3135 48.359C98.2135 48.3086 98.1634 47.704 98.2635 47.6033C98.3635 47.4521 98.7135 47.3514 98.8635 47.301C99.1636 47.1499 99.4636 46.9483 99.7637 46.7972C100.014 46.6461 99.9637 46.6964 99.9637 46.4949C100.064 45.7392 99.9637 44.8828 99.9637 44.1271V40.1471V32.8924C99.9637 32.6909 100.014 32.3382 99.9637 32.1367C99.9137 31.9352 99.6637 31.9352 99.4636 31.8344C99.1136 31.6833 98.8135 31.5825 98.4635 31.4314C98.3635 31.381 97.9634 31.3306 97.8634 31.1795C97.8134 31.1291 97.8134 30.6253 97.8634 30.5749C97.9134 30.5245 98.0134 30.5749 98.0634 30.5245C98.4635 30.3734 98.9136 30.3734 99.3636 30.2726C100.014 30.1719 100.614 30.0207 101.264 29.92C102.514 29.7185 103.714 29.4666 104.964 29.265C105.214 29.3154 105.414 29.265 105.614 29.2147ZM106.315 24.5293C106.215 27.5521 102.164 28.862 100.314 26.4942C99.4636 25.3858 99.4136 23.8744 100.164 22.7157C100.914 21.5569 102.364 21.0531 103.714 21.3554C105.214 21.6577 106.315 22.9676 106.315 24.5293ZM128.218 46.6461V34.5045V32.1871C128.218 32.1367 128.268 31.8848 128.218 31.8344C128.168 31.7336 127.868 31.6833 127.768 31.6833L126.867 31.381C126.717 31.3306 126.317 31.2802 126.217 31.1291C126.117 31.0283 126.167 30.7764 126.167 30.6253C126.167 30.323 126.267 30.3734 126.567 30.323L129.868 29.7185L133.168 29.1139C133.368 29.0635 133.518 29.0131 133.718 29.0131C133.818 29.0131 134.318 29.0131 134.418 29.0635C134.468 29.1139 134.418 29.4162 134.418 29.5169V30.4742C134.418 30.6253 134.318 31.0787 134.418 31.2298C134.518 31.4314 134.718 31.2298 134.868 31.0787C135.319 30.7261 135.769 30.4238 136.269 30.1719C138.069 29.1643 140.219 28.7109 142.269 29.0131C143.67 29.2147 144.82 29.9704 145.32 31.3306C145.67 32.2878 145.72 33.2954 145.72 34.303V45.7896C145.72 45.9911 145.67 46.3438 145.72 46.5453C145.77 46.7468 145.92 46.7972 146.17 46.898C146.42 47.0491 146.72 47.2002 146.97 47.3514C147.07 47.4018 147.42 47.5025 147.47 47.6536C147.52 47.7544 147.52 48.2582 147.47 48.3086C147.42 48.4093 147.52 48.3086 147.37 48.359C147.17 48.4597 146.72 48.359 146.47 48.359H139.319C139.019 48.359 137.869 48.5101 137.719 48.3086C137.669 48.2582 137.669 47.704 137.719 47.6033C137.769 47.5025 138.069 47.4018 138.169 47.3514C138.469 47.2002 138.719 47.0491 139.019 46.898C139.119 46.8476 139.419 46.7468 139.469 46.6461C139.519 46.5453 139.469 46.3438 139.469 46.243V45.1347V41.6081V34.8068C139.469 34.0007 139.519 33.0939 139.019 32.3886C138.619 31.784 137.919 31.6329 137.219 31.5825C136.669 31.5825 136.169 31.6329 135.669 31.784C135.419 31.8848 134.668 32.0863 134.518 32.3886C134.468 32.4893 134.518 32.6909 134.518 32.7916V45.84C134.518 45.9911 134.468 46.3438 134.518 46.4949C134.568 46.6964 134.868 46.7468 135.018 46.8476C135.269 46.9987 135.569 47.1499 135.819 47.301C135.919 47.3514 136.119 47.4521 136.169 47.5025C136.219 47.5529 136.219 48.1574 136.169 48.2078C136.169 48.2582 136.119 48.2078 136.069 48.2078C135.869 48.3086 135.369 48.2078 135.169 48.2078H126.767C126.517 48.2078 126.467 48.2582 126.417 48.1071C126.367 48.0063 126.367 47.5529 126.417 47.4521C126.467 47.3514 126.767 47.2506 126.867 47.2002C127.367 47.1499 127.767 46.898 128.218 46.6461ZM117.616 37.3762C117.616 36.0663 117.666 34.7061 117.566 33.3458C117.416 31.8848 117.016 30.2726 115.366 29.9704C114.866 29.8696 113.966 29.7185 113.616 30.1215C113.266 30.4742 113.015 30.9779 112.715 31.381L110.165 34.8572C110.015 35.0587 109.865 35.4618 109.665 35.5625C109.615 35.6129 109.115 35.6129 109.115 35.5625C109.065 35.5121 109.115 35.1595 109.115 35.0587V30.9779C109.115 30.8268 109.065 30.5749 109.115 30.4238C109.215 30.1719 110.315 30.0207 110.565 29.92C111.965 29.5673 113.416 29.3154 114.866 29.2147C116.916 29.0635 119.216 29.1139 121.117 30.0207C122.617 30.726 123.567 31.9855 123.817 33.5977C123.967 34.4038 123.917 35.3106 123.917 36.1167V46.1926C123.917 46.3438 123.817 46.7468 123.917 46.8476C123.967 46.898 124.217 46.9483 124.267 46.9483C124.667 47.0491 125.017 47.1499 125.417 47.2506C125.667 47.301 125.717 47.301 125.717 47.5529C125.717 47.8048 125.767 47.8048 125.467 47.9055C125.117 48.0567 124.767 48.2078 124.417 48.3086C122.567 48.8628 119.666 49.0139 118.316 47.301C118.216 47.1499 117.916 46.4949 117.766 46.4445C117.566 46.3942 116.966 47.2002 116.766 47.3514C115.966 48.0567 114.916 48.4597 113.866 48.6109C111.915 48.8628 109.815 48.4597 108.615 46.7468C107.615 45.2858 107.415 43.0187 108.165 41.4066C109.515 38.3334 113.516 38.0311 116.416 37.5273C116.766 37.5273 117.166 37.4266 117.616 37.3762ZM117.616 45.7392V38.283C116.116 38.3838 114.566 38.4845 114.016 40.1471C113.616 41.2554 113.616 42.5653 113.766 43.724C113.866 44.5301 114.066 45.5377 114.816 46.0415C115.616 46.5957 116.966 46.4949 117.616 45.7392ZM54.3074 37.3762C54.3074 36.0663 54.3574 34.7061 54.2574 33.3458C54.1074 31.8848 53.7074 30.2726 52.0571 29.9704C51.5571 29.8696 50.6569 29.7185 50.3069 30.1215C49.9568 30.4742 49.7068 30.9779 49.4068 31.381L46.8564 34.8572C46.7064 35.0587 46.5564 35.4618 46.3563 35.5625C46.3063 35.6129 45.8063 35.6129 45.8063 35.5625C45.7563 35.5121 45.8063 35.1595 45.8063 35.0587V31.0283C45.8063 30.8772 45.7563 30.6253 45.8063 30.4742C45.9063 30.2223 46.9564 30.0711 47.2565 29.9704C48.6567 29.6177 50.1069 29.3658 51.5071 29.265C53.5573 29.1139 55.8577 29.1643 57.7579 30.0711C59.2581 30.7764 60.2082 32.0359 60.4583 33.6481C60.6083 34.4542 60.5583 35.361 60.5583 36.1671V46.243C60.5583 46.3942 60.4583 46.7972 60.5583 46.898C60.6083 46.9483 60.8583 46.9987 60.9083 46.9987C61.3084 47.0995 61.6584 47.2002 62.0585 47.301C62.3085 47.3514 62.3585 47.3514 62.3585 47.6033C62.3585 47.8552 62.4085 47.8552 62.1085 47.9559C61.7585 48.1071 61.4084 48.2582 61.0584 48.359C59.2081 48.9131 56.3077 49.0643 54.9575 47.3514C54.8575 47.2002 54.5575 46.5453 54.4074 46.4949C54.2074 46.4445 53.6073 47.2506 53.4573 47.4017C52.6572 48.1071 51.6071 48.5101 50.5569 48.6612C48.6067 48.9131 46.5064 48.5101 45.3062 46.7972C44.3061 45.3362 44.106 43.0691 44.8561 41.4569C46.2063 38.3838 50.2069 38.0815 53.0573 37.5777C53.4573 37.5273 53.8574 37.4266 54.3074 37.3762ZM54.3074 45.7392V38.283C52.8072 38.3838 51.257 38.4845 50.7069 40.1471C50.3069 41.2554 50.3069 42.5653 50.4569 43.724C50.5569 44.5301 50.757 45.5377 51.5071 46.0415C52.3072 46.5957 53.6573 46.4949 54.3074 45.7392Z" fill="#121212"/>
</svg>
