<svg width="127" height="39" viewBox="0 0 127 39" fill="none" xmlns="http://www.w3.org/2000/svg">
<path d="M60.1274 0C60.1274 0 58.7096 0.0294669 57.8879 0.0156822C57.8538 0.357943 57.4578 3.45942 57.1172 5.95428C56.7255 8.26287 53.6217 25.3882 52.57 30.5146C52.2933 32.0625 51.4375 36.4354 51.3566 36.8724C50.3688 36.9894 49.2022 37.0976 48.4401 37.1268C48.3379 37.1302 48.1676 37.1631 48.0867 37.1631V38.051C48.1804 38.0472 48.6742 38.0848 49.0234 38.07C49.8621 38.0434 52.2422 37.9314 52.6935 37.9314C54.4051 37.9314 55.5462 38.0438 57.13 38.0751C57.1513 38.0751 57.5856 38.0734 57.7772 38.0493V37.1521C57.6452 37.1521 57.4706 37.1479 57.3684 37.1479C56.9214 37.1618 55.2737 37.0363 54.4392 36.9235C54.5371 36.337 55.9932 27.4677 56.6915 23.921C58.0199 17.3561 58.9395 12.7034 58.9395 12.7034L59.1865 13.2811L69.6817 38.1089L71.5976 38.1186C71.5976 38.1186 72.6918 35.4301 73.9904 32.4145C74.0245 32.3431 74.1182 32.1272 74.2502 31.8187C75.6126 28.6873 82.3653 12.7951 82.3653 12.7951C82.3653 12.7951 82.4292 13.0812 82.5356 13.5929C83.1785 16.7078 85.3542 27.9334 85.8183 30.6418C86.0354 32.035 86.2398 33.4482 86.359 34.276C86.5336 35.4483 86.6485 36.5956 86.6485 36.9252C86.4356 36.9349 84.2983 37.1268 83.4893 37.1614C83.3744 37.1576 83.1572 37.1682 83.1444 37.1703V38.0734C83.434 38.0734 83.715 38.086 83.996 38.0797C85.648 38.0484 87.2361 37.92 88.8881 37.9208C90.7444 37.9225 93.7546 38.0835 95.6833 38.0958C95.9005 38.0958 96.2879 38.0767 96.2879 38.0767V37.1644C96.1772 37.1635 95.6918 37.1399 95.513 37.1259C94.6487 37.0587 93.1926 36.9248 92.8222 36.9003C92.8222 36.9003 92.5837 35.589 92.2687 34.0744C91.0084 28.0158 87.4192 9.59994 86.8699 5.06854C86.6826 3.51106 86.1504 0.0139918 86.1504 0.0139918L83.9917 0.0133241C83.9917 0.0133241 82.889 3.15369 81.8842 6.017C81.1987 7.97358 80.2663 10.3891 79.5552 12.2413C76.0469 21.3928 72.1128 29.9206 72.1128 29.9206C72.1128 29.9206 63.7507 10.1174 63.3079 8.97215C62.8609 7.82652 60.1274 0.000223947 60.1274 0.000223947V0ZM0.0174565 0.00825311L0.0357645 2.10136L0 7.1986L0.556351 7.18296L0.614554 2.64946C0.614554 2.64933 3.66523 2.62326 4.05979 2.62377L9.74847 2.62622L13.4199 2.64439L13.4258 34.1723L13.4267 36.8954L13.3492 36.906C12.8604 36.9436 10.9798 37.0577 10.216 37.0852C10.0448 37.0906 9.93539 37.0949 9.91665 37.0928L9.92006 38.0153C10.058 38.022 10.4297 38.0309 10.4787 38.0292C12.2856 38.006 14.7308 37.85 16.4645 37.8517C18.2259 37.8526 20.7048 38.0225 22.2388 38.0402C22.3908 38.041 22.5709 38.0263 22.7169 38.0263V37.1612L22.5266 37.1629C22.0378 37.1608 19.3346 36.988 19.0549 36.9516C19.0434 36.5286 18.9932 34.4867 18.9932 34.4415L19.0064 2.64101L21.8015 2.63365L29.0945 2.6386L31.5286 2.6716C31.5448 2.84423 31.6679 5.1406 31.6657 5.20315C31.6602 5.37007 31.7569 7.0807 31.753 7.50159L32.3299 7.50835L32.2886 2.3528L32.315 0.033735C30.1717 0.0916293 24.7095 0.164483 16.2325 0.160046C8.96251 0.155609 1.95649 0.0950945 0.0175416 0.00816857L0.0174565 0.00825311ZM33.9708 0.0165062L33.9797 0.919488C34.2675 0.934997 35.9595 1.08358 36.3708 1.10352C36.6991 1.14342 37.1572 1.18424 37.4851 1.21576C37.4851 1.50485 37.4902 3.49976 37.4949 4.28708C37.5498 11.7495 37.5029 28.2422 37.4808 34.0777C37.474 35.7651 37.4693 36.8524 37.4693 36.8524C37.262 36.9141 36.7953 36.9373 36.2908 36.9712C35.8595 37.0003 34.3139 37.1292 33.9691 37.1364V38.0395C34.1121 38.0395 34.3744 38.0695 34.5238 38.0682C36.2733 38.0686 38.7057 37.8531 40.4978 37.8544C42.309 37.8556 44.7274 38.0745 46.1537 38.075L46.1494 38.0758C46.2729 38.0775 46.5667 38.0454 46.6902 38.0458V37.1431H46.5667C46.5113 37.1313 44.672 37.0544 44.225 37.0083C43.9908 36.9936 42.9775 36.9065 42.9647 36.8731C42.9604 36.8554 42.9562 36.5853 42.9562 36.1353C42.9604 35.708 42.9604 34.9977 42.9604 34.2277C42.9647 28.3415 42.9817 10.8596 42.986 4.1772C42.986 2.88574 42.9902 1.83642 42.9902 1.27353C43.3862 1.24868 45.0041 1.08079 45.5832 1.03008C45.6087 1.02759 46.3751 0.983806 46.6902 0.964874V0.0239437C44.7103 0.0232253 42.0906 0.176793 40.1585 0.175821C38.1378 0.174596 35.6483 0.0172584 33.9708 0.0165189V0.0165062ZM125.596 0.0421022C125.596 0.0421022 125.387 0.0429897 125 0.0437503C123.676 0.049413 120.287 0.074092 116.323 0.0957284C113.887 0.109758 111.984 0.129155 109.477 0.12793C107.718 0.148383 105.257 0.215658 103.737 0.212954C101.31 0.209024 99.3305 0.0605693 98.2533 0.0561321C97.7423 0.0538924 97.4571 0.0729933 97.3166 0.0643725C97.3251 0.0771769 97.3251 0.955776 97.3251 0.955776C97.4188 0.972003 97.6061 0.99271 97.7807 0.98878C98.3895 1.02943 99.5306 1.12092 100.11 1.19678C100.225 1.21769 100.42 1.24977 100.965 1.30986C100.961 1.50979 100.991 3.77214 100.987 5.13139C100.987 6.3907 100.974 34.4884 100.974 34.4884C100.974 34.5341 100.91 36.748 100.91 36.9268C99.9478 37.0903 98.1 37.1909 97.4698 37.1934H97.2825V38.0872C97.3719 38.0868 97.7849 38.1028 98.0191 38.1028C99.0367 38.1024 101.659 37.9418 104.337 37.9401C106.215 37.9384 108.28 38.0082 110.371 38.0377C112.947 38.0732 115.552 38.0749 117.894 38.1079C121.756 38.162 124.885 38.1666 125.903 38.1679C125.903 38.1679 126.026 31.0587 126.026 30.4857L125.468 30.4921C125.468 31.0968 125.243 33.3487 125.234 33.4472C125.162 34.2949 125.085 35.1832 125.026 35.621C125.026 35.621 124.753 35.6425 124.621 35.64C123.987 35.6282 121.96 35.7013 121.917 35.7013L112.878 35.7051L106.53 35.5994L106.488 33.8516L106.483 20.2815C107.616 20.2435 109.345 20.1839 110.396 20.186C111.29 20.1877 113.398 20.1378 114.577 20.1404C117.443 20.1455 119.989 20.1636 120.193 20.1695C120.666 20.1831 121.543 20.2118 121.875 20.2321C121.888 20.3517 121.926 20.5385 121.93 20.5913C122.101 21.6304 122.194 22.3501 122.309 23.3702C122.326 23.4619 122.335 23.5507 122.347 23.6343H122.999C122.999 23.6343 123.016 23.2696 123.007 23.0427C122.995 22.2427 122.944 20.6471 122.944 18.8785C122.939 17.6526 123.012 15.7784 123.02 14.8771C123.024 14.6332 122.995 14.46 122.995 14.3903L122.399 14.4017C122.394 14.5965 122.347 14.8838 122.347 14.8838C122.296 15.5557 122.105 16.4144 121.952 17.3205C121.909 17.4333 121.879 17.5909 121.879 17.5909C121.811 17.6137 119.942 17.7126 119.776 17.7114C119.712 17.7109 116.991 17.7866 116.944 17.7866L106.488 17.7477L106.505 2.78393C106.505 2.78397 107.833 2.7374 108.203 2.73938C109.711 2.73964 112.163 2.72603 114.662 2.7295C118.32 2.73389 121.871 2.7565 121.879 2.76166C121.9 2.77201 122.982 2.78693 123.003 2.80539C123.029 2.82559 124.383 2.86578 124.715 2.87639C124.715 2.87639 124.74 2.98778 124.757 3.12812C124.906 4.70585 125.03 6.57959 125.085 7.24348L125.089 7.50928L125.647 7.50759C125.647 6.53607 125.596 3.56081 125.588 1.66788C125.583 1.0599 125.596 0.564799 125.596 0.283103V0.0421022Z" fill="#E90606"/>
</svg>
