<svg width="168" height="43" viewBox="0 0 168 43" fill="none" xmlns="http://www.w3.org/2000/svg">
<path d="M166.054 0.98053H1.42993V34.6109H166.054V0.98053Z" fill="#005EA6"/>
<path d="M165.864 34.1739H0V35.8409H165.864V34.1739Z" fill="white"/>
<path d="M166.054 35.5899H1.42969V41.7936H166.054V35.5899Z" fill="#C41623"/>
<path d="M165.399 1.63907V40.9737H2.08891V1.63907H165.399ZM167.032 0.00012207H165.399H2.08891H0.455811V1.63907V40.9737V42.6127H2.08891H165.399H167.032V40.9737V1.63907V0.00012207Z" fill="white"/>
<path fill-rule="evenodd" clip-rule="evenodd" d="M50.1445 19.8696C55.0499 20.8108 57.6098 22.8484 57.6098 27.0826C57.6098 27.8275 57.5033 28.5273 57.3081 29.1841H61.1985V34.2268H56.3821V31.0656C54.798 33.2504 51.6772 34.5709 46.9885 34.5709C39.5249 34.5709 36.8392 32.3141 35.8438 29.1788C35.5899 28.3659 35.496 27.1416 35.496 26.6421H41.0555C41.0555 27.0822 41.2119 27.8345 41.4001 28.209C42.0876 29.6512 43.7113 30.2753 46.9885 30.2753C50.7394 30.2753 52.0503 29.2444 52.0503 27.6136C52.0503 25.5748 51.017 24.8561 47.0236 24.1038C46.3043 23.9772 44.4927 23.6298 43.4002 23.4122C38.5887 22.5038 35.6238 20.2789 35.6238 16.1722C35.6238 11.9691 38.9953 9.15051 46.2406 9.15051C52.4251 9.15051 55.3308 11.3131 56.5781 14.4468C56.8925 15.263 57.1411 16.1992 57.1411 16.8281H51.5816C51.5816 16.5467 51.4253 15.9849 51.237 15.6071C50.5818 14.2276 49.2385 13.5072 46.116 13.5072C42.0251 13.5072 41.2118 14.4148 41.2118 15.8263C41.2118 17.6447 42.6808 18.3651 46.7109 19.1796C47.1464 19.267 47.6283 19.3661 48.0949 19.4621L48.0958 19.4623L48.0969 19.4625L48.0969 19.4625L48.0972 19.4625C48.9644 19.6409 49.7786 19.8084 50.1445 19.8696ZM31.79 9.46516V26.7339C31.79 27.6292 31.6557 28.4445 31.4067 29.1845H35.2559V34.2275H30.4378V31.0197C28.652 33.3761 25.2311 34.5414 20.9855 34.5414C14.834 34.5414 10.2441 32.2239 10.2441 26.4204V9.46516H15.644V25.9529C15.644 28.5572 17.5817 30.0888 21.1112 30.0888C24.2023 30.0888 26.3886 28.5568 26.3886 25.9849V9.46516H31.79ZM78.6245 25.4182L69.1305 9.46516H62.8533V34.2275H68.0061V17.4566L77.9386 34.2275H83.7774V9.46516H78.6245V25.4182ZM86.8395 19.5805C88.5938 17.0229 91.7376 15.5294 95.7101 15.5294C99.8786 15.5294 102.727 17.0549 104.346 19.4145C105.703 21.4071 106.199 24.0327 105.902 26.7857H90.4801C90.4801 27.6211 90.8455 28.2501 91.4722 28.9479C92.2377 29.7784 93.7242 30.3082 95.7097 30.3082C97.1991 30.3082 98.29 30.0423 99.0538 29.7096C100.011 29.2777 100.475 28.6824 100.572 28.282H105.768C105.341 30.0423 104.282 31.7005 102.464 32.8674C100.874 33.895 98.6537 34.5256 95.7097 34.5256C91.6698 34.5256 88.3958 33.3312 86.6431 30.5401C85.7469 29.1126 85.2509 27.2864 85.2509 24.9927C85.2509 22.9002 85.8155 21.0416 86.8395 19.5805ZM91.573 21.1088C90.9448 21.6737 90.4473 22.7664 90.447 23.3005H100.636C100.636 22.767 100.41 21.9057 99.7495 21.2079C98.9857 20.4446 97.729 19.8108 95.7419 19.8108C93.8586 19.8108 92.4676 20.3119 91.573 21.1088ZM133.189 15.9611L128.923 29.5422L124.818 15.9611H118.929L114.926 29.5422L110.558 15.9611H105.032L111.545 34.2271H117.838C117.838 34.2271 121.414 23.7325 121.446 23.0995C121.479 22.8995 121.674 21.8174 121.674 21.8174C121.674 21.8174 121.875 22.8995 121.91 23.1331C121.974 23.7325 125.551 34.2271 125.551 34.2271H131.804L138.389 15.9611H133.189ZM148.872 22.8243C149.767 22.9559 150.627 23.0823 150.956 23.1344C155.322 23.7994 157.244 25.4273 157.244 28.8474C157.244 32.6329 154.399 34.5583 148.112 34.5583C141.955 34.5583 139.044 33.3323 138.282 30.3425C138.118 29.6128 138.086 29.1133 138.086 28.5147H143.346C143.346 28.7482 143.378 29.0793 143.511 29.446C143.843 30.3089 145.231 30.5408 148.112 30.5408C151.123 30.5408 152.05 30.0094 152.05 28.9482C152.05 27.9156 150.955 27.6854 148.275 27.2867C147.582 27.1875 145.398 26.8544 144.307 26.6881C140.302 26.1247 138.383 24.3657 138.383 20.8743C138.383 17.6239 141.292 15.4982 147.152 15.4982C152.145 15.4982 155.293 16.7933 156.219 19.4148C156.45 20.1159 156.55 21.241 156.55 21.6061H151.421C151.421 21.4074 151.351 20.844 151.189 20.6121C150.824 20.1159 149.865 19.6808 147.352 19.6808C144.438 19.6808 143.575 20.1495 143.575 21.0108C143.575 21.8077 144.141 22.1052 146.722 22.5055C147.224 22.5821 148.063 22.7053 148.872 22.8243Z" fill="white"/>
<path fill-rule="evenodd" clip-rule="evenodd" d="M103.297 14.5044C105.112 14.5044 105.94 13.6447 105.94 11.8972C105.94 10.2341 105.168 9.3634 103.297 9.3634C101.463 9.3634 100.651 10.3283 100.651 11.9161C100.651 13.6165 101.477 14.5044 103.297 14.5044ZM103.297 10.5402C104.138 10.5402 104.407 10.9466 104.407 11.9324C104.407 13.0416 104.002 13.3378 103.305 13.3378C102.58 13.3378 102.2 12.9875 102.2 11.9324C102.2 10.9323 102.488 10.5402 103.297 10.5402ZM89.6183 14.2391C89.2353 14.3993 88.725 14.4792 88.253 14.4792C87.0743 14.4792 86.0124 14.2633 85.97 13.3508C85.9665 13.2962 85.9679 13.2234 85.969 13.1627C85.9695 13.1364 85.97 13.1124 85.97 13.0931C85.9826 12.5264 86.5183 12.1745 87.1054 11.8975C86.8167 11.4877 86.7069 11.1468 86.6987 10.8461V10.5933C86.7257 9.98196 87.3238 9.40259 88.3571 9.40259C89.3011 9.40259 89.8514 9.95123 89.8865 10.5548C89.8914 10.5879 89.889 10.6724 89.8875 10.7274V10.7274L89.8875 10.7274L89.8875 10.7276C89.887 10.7466 89.8865 10.7621 89.8865 10.7707C89.8706 11.4013 89.3888 11.8397 88.8944 12.147C89.0033 12.2361 89.1269 12.3426 89.258 12.4556L89.258 12.4556C89.396 12.5744 89.5422 12.7005 89.6885 12.821C89.851 12.6145 89.9421 12.3502 89.9563 12.0655H91.3469C91.3233 12.6899 91.0714 13.2291 90.6741 13.6085C91.004 13.8536 91.3788 14.1432 91.7377 14.4296H89.851C89.7681 14.3702 89.6885 14.3014 89.6183 14.2391ZM88.342 10.4667C88.122 10.4667 88.0297 10.6171 88.0089 10.7932C88.0028 10.8334 88.0028 10.8858 88.0089 10.9276C88.0166 11.0653 88.0869 11.2235 88.2097 11.3853C88.4633 11.2349 88.6405 11.0702 88.6564 10.8764V10.7756C88.6482 10.6109 88.5703 10.4667 88.342 10.4667ZM88.3533 13.1953L88.3533 13.1953C88.1587 13.0325 87.9733 12.8774 87.8288 12.7313C87.6022 12.8595 87.4442 12.9956 87.4446 13.1361C87.4446 13.3762 87.6663 13.4676 88.1832 13.4676C88.3232 13.4676 88.4939 13.45 88.6168 13.418C88.529 13.3423 88.4402 13.268 88.3533 13.1953ZM96.7866 11.4011C96.7784 11.5679 96.0194 14.4295 96.0194 14.4295H94.3737L92.9541 9.45325H94.5762C94.5762 9.45325 95.3335 12.5263 95.3335 12.6832C95.3335 12.5263 96.0672 9.45325 96.0672 9.45325H97.6268C97.6268 9.45325 98.3797 12.5263 98.3797 12.6832C98.3797 12.5263 99.1244 9.45325 99.1244 9.45325H100.596L99.2056 14.4295H97.5472C97.5472 14.4295 96.8058 11.5613 96.7866 11.4011ZM109.135 12.7451H108.109V14.4295H106.613V9.45325H109.752C110.412 9.45325 110.841 9.64336 111.092 9.97484C111.284 10.226 111.377 10.5604 111.377 11.0262C111.377 11.4265 111.291 11.7433 111.159 11.9641C111.002 12.2296 110.779 12.3849 110.549 12.4361L111.709 14.4287H110.006L109.135 12.7451ZM109.403 10.6243H108.123V11.6388H109.436C109.623 11.6388 109.782 11.5958 109.838 11.4724C109.876 11.3843 109.895 11.2516 109.895 11.1524C109.895 11.0406 109.884 10.9062 109.841 10.8324C109.768 10.6722 109.623 10.6243 109.403 10.6243ZM116.342 13.1986H113.961V9.45325H112.427V14.4295H116.342V13.1986ZM121.945 11.8445C121.945 12.9057 121.87 13.2945 121.596 13.7075C121.298 14.1668 120.786 14.4295 119.894 14.4295H117.1V9.45325H119.82C120.717 9.45325 121.275 9.67409 121.581 10.1014C121.885 10.5239 121.945 10.9385 121.945 11.8445ZM118.609 10.6169V13.2544H119.566C119.953 13.2544 120.157 13.1728 120.328 12.9712C120.457 12.8127 120.472 12.2493 120.472 11.8445C120.472 11.4876 120.436 11.0266 120.315 10.8857C120.122 10.673 119.94 10.6169 119.566 10.6169H118.609ZM125.963 12.7451H126.987L127.863 14.4287H129.563L128.402 12.4361C128.63 12.3849 128.858 12.2296 129.012 11.9641C129.143 11.7433 129.231 11.4265 129.231 11.0262C129.231 10.5604 129.138 10.226 128.945 9.97484C128.695 9.64336 128.266 9.45325 127.606 9.45325H124.469V14.4295H125.963V12.7451ZM125.977 10.6243H127.253C127.472 10.6243 127.621 10.6722 127.698 10.8324C127.737 10.9062 127.746 11.0406 127.746 11.1524C127.746 11.2516 127.73 11.3843 127.692 11.4724C127.636 11.5958 127.472 11.6388 127.287 11.6388H125.977V10.6243ZM131.834 13.2691H134.584V14.4295H130.342V9.45325H134.557V10.6251H131.834V11.3466H134.456V12.5295H131.834V13.2691ZM137.084 12.8717C137.084 12.8717 138.425 12.8827 138.612 12.8799C139.221 12.8672 139.696 12.7086 139.982 12.3743C140.229 12.11 140.348 11.7195 140.348 11.1676C140.348 10.5497 140.192 10.1207 139.902 9.86954C139.631 9.58641 139.205 9.45325 138.607 9.45325H135.556V14.4295H137.083V12.8717H137.084ZM137.066 10.6103H138.276C138.526 10.6103 138.67 10.6874 138.754 10.8455C138.801 10.9127 138.821 11.041 138.821 11.1959C138.821 11.3413 138.809 11.4343 138.759 11.5241C138.688 11.6617 138.546 11.7576 138.257 11.7576H137.066V10.6103ZM146.172 11.8972C146.172 13.6447 145.343 14.5044 143.531 14.5044C141.708 14.5044 140.881 13.6165 140.882 11.9161C140.882 10.3283 141.693 9.3634 143.531 9.3634C145.398 9.3634 146.172 10.2341 146.172 11.8972ZM144.637 11.9324C144.637 10.9466 144.371 10.5402 143.531 10.5402C142.717 10.5402 142.432 10.9323 142.432 11.9324C142.432 12.9875 142.808 13.3378 143.532 13.3378C144.232 13.3378 144.637 13.0416 144.637 11.9324ZM148.357 12.7451H149.383L150.257 14.4287H151.955L150.798 12.4361C151.03 12.3849 151.252 12.2296 151.412 11.9641C151.539 11.7433 151.628 11.4265 151.628 11.0262C151.628 10.5604 151.531 10.226 151.341 9.97484C151.089 9.64336 150.655 9.45325 149.999 9.45325H146.861V14.4295H148.357V12.7451ZM148.37 10.6243H149.649C149.866 10.6243 150.016 10.6722 150.091 10.8324C150.129 10.9062 150.14 11.0406 150.14 11.1524C150.14 11.2516 150.123 11.3843 150.086 11.4724C150.032 11.5958 149.866 11.6388 149.679 11.6388H148.37V10.6243ZM155.192 14.4295H153.647V10.6505H152.074V9.45325H156.778V10.6505H155.192V14.4295Z" fill="white"/>
</svg>
