<svg width="170" height="26" viewBox="0 0 170 26" fill="none" xmlns="http://www.w3.org/2000/svg">
<path d="M25.3481 12.6733C25.3481 19.6726 19.6741 25.3467 12.6733 25.3467C5.67404 25.3467 0 19.6726 0 12.6733C0 5.67404 5.67404 0 12.6733 0C19.6741 0 25.3481 5.67404 25.3481 12.6733Z" fill="#00ABE6"/>
<path d="M37.192 18.1126C35.197 18.1126 34.0837 16.8918 34.0837 14.7387V3.80878H29.1387V14.7104C29.1387 19.4972 32.0605 22.2325 37.192 22.2325C42.3235 22.2325 45.2453 19.4972 45.2453 14.7104V3.80878H40.3003V14.7387C40.3003 16.8918 39.1869 18.1126 37.192 18.1126Z" fill="#33261C"/>
<path d="M53.9732 22.2313C58.3078 22.2313 61.1505 19.9199 61.1505 16.4895C61.1505 14.0424 59.6868 12.1548 55.8042 11.0923L54.4479 10.7193C52.5094 10.1881 51.7917 9.606 51.7917 8.75263C51.7917 7.8484 52.5885 7.34543 53.9958 7.34543C55.7025 7.34543 57.5336 8.30052 58.8108 9.39125L61.2805 6.28295C59.342 4.52535 56.7367 3.46289 53.9732 3.46289C49.7967 3.46289 46.875 5.72346 46.875 9.20476C46.875 11.8892 48.6269 13.6468 51.8708 14.4945L52.9898 14.7884C55.4086 15.427 56.2337 15.9074 56.2337 16.8624C56.2337 17.8458 55.3804 18.3488 53.9449 18.3488C51.8199 18.3488 50.0624 17.5802 48.6269 16.303L46.2363 19.3095C48.2313 21.1688 51.0231 22.2313 53.9732 22.2313Z" fill="#33261C"/>
<path d="M75.263 21.8877H80.2927L73.6693 3.80878H67.9274L61.3096 21.8877H66.1981L67.3453 18.5138H74.1214L75.263 21.8877ZM68.5943 14.8404L70.7475 8.51642L72.8724 14.8404H68.5943Z" fill="#33261C"/>
<path d="M89.8335 21.8877H94.7785V7.79868H100.153V3.80878H84.4646V7.79868H89.8335V21.8877Z" fill="#33261C"/>
<path d="M109.414 22.2313C114.834 22.2313 118.796 18.377 118.796 12.8725C118.796 7.37369 114.834 3.46289 109.414 3.46289C103.989 3.46289 100.027 7.37369 100.027 12.8725C100.027 18.377 103.989 22.2313 109.414 22.2313ZM109.414 18.1397C106.837 18.1397 105.051 16.0091 105.051 12.8725C105.051 9.73598 106.837 7.56018 109.414 7.56018C111.991 7.56018 113.772 9.73598 113.772 12.8725C113.772 16.0091 111.991 18.1397 109.414 18.1397Z" fill="#33261C"/>
<path d="M120.506 21.8877H127.627C132.973 21.8877 136.776 18.1634 136.776 12.8511C136.776 7.53307 132.973 3.80878 127.627 3.80878H120.506V21.8877ZM125.372 17.9826V7.71956H127.627C130.232 7.71956 131.831 9.76539 131.831 12.8511C131.831 15.9311 130.232 17.9826 127.627 17.9826H125.372Z" fill="#33261C"/>
<path d="M149.818 21.8875H154.847L148.224 3.80859H142.482L135.864 21.8875H140.753L141.9 18.5136H148.676L149.818 21.8875ZM143.149 14.8402L145.302 8.51623L147.427 14.8402H143.149Z" fill="#33261C"/>
<path d="M162.901 15.3771L169.304 3.80859H163.726L160.403 10.9859L157.051 3.80859H151.468L157.877 15.3771V21.8875H162.901V15.3771Z" fill="#33261C"/>
</svg>
