<svg width="101" height="39" fill="none" xmlns="http://www.w3.org/2000/svg"><path d="M70.359 25.608a.075.075 0 00.075-.076V7.376a1.01 1.01 0 00-1.01-1.012H66.63c-.557 0-1.01.453-1.01 1.012v18.156c0 .042.034.076.076.076h4.664zm-8.717-11.923h.746c.29 0 .365-.075.365-.365V9.79c0-.29-.075-.366-.365-.366h-.938c-2.242 0-4.023.693-5.293 2.062-1.278 1.377-1.923 3.354-1.923 5.872v10.945c0 .293.07.365.364.365h3.839c.289 0 .364-.076.364-.365V16.615c0-.894.256-1.612.763-2.136.507-.525 1.207-.794 2.078-.794zm38.361-1.331a5.662 5.662 0 00-2.188-2.157c-.926-.512-1.978-.773-3.126-.773-1.89 0-3.432.563-4.584 1.667-1.153 1.104-1.76 2.611-1.81 4.475v7.208c0 1.918.565 3.476 1.684 4.63 1.127 1.167 2.569 1.734 4.396 1.734 1.739 0 3.185-.512 4.3-1.52 1.114-1.007 1.751-2.359 1.898-4.021.016-.152-.009-.235-.034-.26-.029-.034-.121-.068-.293-.068H96.37c-.172 0-.332.034-.411.412l-.017.058c-.343.94-1.001 1.138-1.492 1.138-.494 0-.884-.168-1.165-.504-.26-.31-.39-.73-.39-1.247v-1.792h1.752c1.84 0 3.344-.537 4.472-1.595 1.135-1.062 1.688-2.43 1.688-4.186.005-1.196-.268-2.27-.804-3.199zm-5.352 5.076H92.9v-1.99c0-.525.142-.949.419-1.26.289-.327.7-.495 1.215-.495.624 0 1.672.26 1.672 1.99 0 1.117-.566 1.755-1.555 1.755zM84.146 27.564c1.148-1.05 1.705-2.397 1.705-4.123 0-1.112-.247-2.052-.733-2.787-.503-.76-1.085-1.356-1.739-1.78-.683-.445-1.576-.915-2.648-1.402-.918-.407-1.584-.752-2.024-1.058-.667-.458-.81-1.016-.81-1.406 0-.403.143-.748.407-.995.264-.244.62-.37 1.069-.37.754 0 1.282.37 1.496 1.037.117.454.31.454.423.454h3.839c.167 0 .238-.03.255-.042a.82.82 0 00.067-.366c-.025-.755-.247-1.561-.658-2.38-.406-.802-1.072-1.498-1.982-2.07-.91-.57-2.066-.856-3.44-.856-1.794 0-3.277.496-4.404 1.47-1.128.97-1.677 2.266-1.677 3.958 0 1.087.24 2.007.713 2.729.486.743 1.06 1.326 1.714 1.738.691.436 1.571.902 2.615 1.385.942.433 1.621.798 2.078 1.117.683.478.826 1.037.826 1.423 0 .458-.168.852-.503 1.167-.327.31-.746.47-1.249.47-.692 0-1.064-.306-1.257-.558-.23-.307-.41-.71-.558-1.239-.092-.331-.243-.398-.456-.398h-3.839c-.188 0-.243.042-.243.042-.033.067-.084.21-.084.482.025.936.29 1.881.792 2.8.495.911 1.25 1.667 2.234 2.255.985.587 2.183.881 3.566.881 1.852 0 3.365-.533 4.505-1.578zm-53.241 1.108h3.759c.29 0 .364-.076.364-.365V15.793c0-1.919-.553-3.48-1.646-4.635-1.102-1.167-2.527-1.734-4.354-1.734-1.333 0-2.506.403-3.495 1.2l-.264.21-.264-.21c-.99-.797-2.167-1.2-3.495-1.2-1.827 0-3.252.567-4.354 1.734-1.098 1.155-1.651 2.716-1.651 4.635v12.514c0 .294.071.365.364.365h3.76c.288 0 .364-.076.364-.365V15.44c0-.516.13-.936.39-1.251.272-.327.662-.504 1.123-.504.46 0 .85.177 1.123.504.26.31.39.73.39 1.247v12.867c0 .293.07.365.364.365h3.759c.29 0 .364-.076.364-.365V15.44c0-.516.13-.936.39-1.251.273-.332.662-.504 1.123-.504.461 0 .851.177 1.128.504.26.31.39.73.39 1.247v12.867c.004.298.075.369.368.369zM9.52 10.197c-.925-.512-1.977-.773-3.125-.773-1.89 0-3.432.563-4.585 1.667C.658 12.199.05 13.706 0 15.57v7.207c0 1.919.566 3.476 1.685 4.63 1.127 1.167 2.564 1.734 4.395 1.734 1.74 0 3.185-.512 4.3-1.52 1.115-1.007 1.752-2.359 1.898-4.021.017-.151-.008-.235-.033-.26-.03-.034-.122-.068-.294-.068H8.075c-.172 0-.33.034-.41.412l-.017.059c-.344.94-1.002 1.137-1.492 1.137-.495 0-.884-.168-1.165-.503-.26-.311-.39-.731-.39-1.252v-1.792h1.752c1.84 0 3.344-.537 4.471-1.595 1.136-1.062 1.689-2.43 1.689-4.186 0-1.2-.272-2.275-.805-3.203a5.678 5.678 0 00-2.187-2.153zM6.354 17.43H4.6v-1.99c0-.525.143-.949.42-1.26.288-.327.7-.495 1.215-.495.624 0 1.672.26 1.672 1.99.004 1.117-.566 1.755-1.555 1.755zm39.273 11.712a4.76 4.76 0 002.648-.793c.809-.533 1.467-1.285 1.953-2.234.49-.957.737-2.078.737-3.337v-6.985c0-1.915-.578-3.472-1.718-4.627-1.14-1.154-2.673-1.738-4.56-1.738-1.885 0-3.419.584-4.558 1.738-1.14 1.155-1.719 2.712-1.719 4.627v20.355c0 .29.076.366.365.366h3.876c.29 0 .365-.076.365-.366v-7.774l.607.302a4.46 4.46 0 002.004.466zm-2.611-6.016V15.44c0-.529.15-.953.448-1.268.302-.323.713-.483 1.224-.483s.922.164 1.223.487c.298.315.449.743.449 1.268v7.687c0 .524-.151.953-.449 1.267-.301.324-.716.487-1.223.487-.511 0-.922-.163-1.224-.487-.297-.314-.448-.743-.448-1.272z" fill="#fff"/><path d="M66.277 4.236c-.452-.47-.683-1.058-.683-1.763 0-.701.227-1.29.683-1.764C66.73.24 67.317 0 68.03 0c.691 0 1.27.235 1.735.71.465.474.695 1.057.695 1.763 0 .659-.238 1.234-.712 1.73-.478.495-1.048.738-1.718.738-.717 0-1.3-.235-1.752-.705z" fill="#F78F2C"/><path d="M45.786 34.776c0-1.21.955-2.137 2.133-2.137 1.177 0 2.133.928 2.133 2.137a2.117 2.117 0 01-2.133 2.137 2.117 2.117 0 01-2.133-2.137zm3.327 0c0-.735-.528-1.222-1.194-1.222-.667 0-1.195.487-1.195 1.222s.528 1.221 1.195 1.221c.666 0 1.194-.486 1.194-1.221zm4.291.197v1.713c0 .093-.054.147-.147.147h-.586c-.092 0-.147-.054-.147-.147V35.05c0-.294-.172-.424-.394-.424-.264 0-.427.147-.427.491v1.566c0 .092-.055.147-.147.147h-.587c-.092 0-.146-.055-.146-.147v-2.64c0-.093.054-.148.146-.148h.587c.092 0 .147.055.147.147v.122c.138-.206.385-.348.762-.348.545 0 .94.424.94 1.158zm5.741.391c0 .873-.633 1.549-1.4 1.549-.394 0-.679-.135-.871-.357v.126c0 .092-.055.147-.147.147h-.587c-.092 0-.146-.055-.146-.147V32.87c0-.092.054-.147.146-.147h.587c.092 0 .147.055.147.147v1.301c.197-.222.482-.356.871-.356.767 0 1.4.675 1.4 1.549zm-.876 0c0-.441-.293-.718-.695-.718-.403 0-.696.277-.696.718 0 .44.293.718.696.718.402 0 .695-.278.695-.718zm3.294-1.374v.693c0 .093-.042.143-.117.143-.327-.012-.646.151-.646.621v1.239c0 .092-.054.147-.146.147h-.587c-.092 0-.147-.055-.147-.147v-2.64c0-.093.055-.148.147-.148h.587c.092 0 .146.05.146.147v.32c.088-.294.319-.467.608-.513.105-.02.155.046.155.139zm3.034.992v1.7c0 .092-.054.147-.147.147h-.561c-.092 0-.147-.055-.147-.147v-.084c-.155.185-.385.31-.754.31-.516 0-.968-.306-.968-.915 0-.608.452-.915.968-.915.369 0 .599.105.754.223v-.265c0-.29-.117-.415-.364-.415-.18 0-.294.071-.34.172-.033.084-.063.13-.15.13h-.575c-.092 0-.15-.05-.147-.151.076-.634.617-.957 1.212-.957.645 0 1.219.378 1.219 1.167zm-.855 1.016c0-.18-.16-.294-.444-.294-.268 0-.398.121-.398.294 0 .172.13.294.398.294.285 0 .444-.122.444-.294zm4.278-1.025v1.713c0 .093-.054.147-.146.147h-.587c-.092 0-.146-.054-.146-.147V35.05c0-.294-.172-.424-.394-.424-.264 0-.428.147-.428.491v1.566c0 .092-.054.147-.146.147h-.587c-.092 0-.147-.055-.147-.147v-2.64c0-.093.055-.148.147-.148h.587c.092 0 .146.055.146.147v.122c.138-.206.386-.348.763-.348.549 0 .939.424.939 1.158zm3.856-2.103v3.812c0 .092-.055.147-.147.147h-.587c-.092 0-.146-.055-.146-.147v-.126c-.197.222-.482.357-.872.357-.767 0-1.4-.676-1.4-1.55 0-.873.633-1.548 1.4-1.548.394 0 .68.134.872.356v-1.3c0-.093.05-.148.147-.148h.586c.092 0 .147.055.147.147zm-.88 2.494c0-.441-.293-.718-.696-.718-.402 0-.695.277-.695.718 0 .44.293.718.695.718.403 0 .696-.278.696-.718zm1.831 1.322v-.647c0-.092.055-.146.147-.146h.645c.092 0 .147.054.147.146v.647c0 .092-.055.147-.147.147h-.645c-.092 0-.147-.055-.147-.147zm3.491-1.91c0-1.21.955-2.137 2.133-2.137 1.177 0 2.133.928 2.133 2.137a2.117 2.117 0 01-2.133 2.137 2.117 2.117 0 01-2.133-2.137zm3.327 0c0-.735-.528-1.222-1.194-1.222-.666 0-1.194.487-1.194 1.222s.528 1.221 1.194 1.221c.666 0 1.194-.486 1.194-1.221zm4.291.197v1.713c0 .093-.054.147-.147.147h-.586c-.092 0-.147-.054-.147-.147V35.05c0-.294-.172-.424-.394-.424-.264 0-.427.147-.427.491v1.566c0 .092-.055.147-.147.147h-.587c-.092 0-.146-.055-.146-.147v-2.64c0-.093.054-.148.146-.148h.587c.092 0 .147.055.147.147v.122c.138-.206.385-.348.762-.348.545 0 .94.424.94 1.158zm5.741.391c0 .873-.633 1.549-1.4 1.549-.393 0-.678-.134-.871-.357v1.301c0 .093-.055.147-.147.147h-.587c-.092 0-.146-.05-.146-.147v-3.811c0-.093.054-.147.147-.147h.586c.092 0 .147.054.147.147v.126c.197-.223.482-.357.871-.357.767 0 1.4.676 1.4 1.549zm-.876 0c0-.441-.293-.718-.695-.718-.403 0-.696.277-.696.718 0 .44.293.718.696.718.402 0 .695-.278.695-.718zm1.509 0c0-.873.691-1.55 1.55-1.55.86 0 1.551.677 1.551 1.55s-.691 1.549-1.55 1.549c-.86 0-1.55-.676-1.55-1.55zm2.225 0c0-.416-.293-.693-.674-.693-.382 0-.675.277-.675.693 0 .415.293.692.675.692.38 0 .674-.277.674-.692zm1.655-1.965v-.529c0-.092.055-.147.147-.147h.587c.092 0 .146.055.146.147v.529c0 .092-.054.147-.146.147h-.587c-.092 0-.147-.055-.147-.147zm0 3.287v-2.64c0-.093.055-.147.147-.147h.587c.092 0 .146.054.146.146v2.641c0 .092-.054.147-.146.147h-.587c-.092 0-.147-.055-.147-.147zm4.38-1.713v1.713c0 .093-.055.147-.147.147h-.587c-.092 0-.147-.054-.147-.147V35.05c0-.294-.171-.424-.393-.424-.265 0-.428.147-.428.491v1.566c0 .092-.054.147-.147.147h-.586c-.093 0-.147-.055-.147-.147v-2.64c0-.093.055-.148.147-.148h.586c.093 0 .147.055.147.147v.122c.138-.206.386-.348.763-.348.549 0 .938.424.938 1.158zm2.43-.928v.55c0 .093-.054.147-.147.147h-.322v1.944c0 .092-.055.147-.147.147h-.587c-.092 0-.146-.055-.146-.147v-1.944h-.323c-.092 0-.147-.054-.147-.146v-.55c0-.093.05-.147.147-.147h.323v-.794c0-.092.054-.147.146-.147h.587c.092 0 .147.055.147.147v.794h.322c.093 0 .147.05.147.146z" fill="#fff"/></svg>