<svg width="852" height="321" fill="none" xmlns="http://www.w3.org/2000/svg"><path d="M593.525 216.019a.634.634 0 00.636-.637V62.222c0-4.71-3.818-8.534-8.519-8.534h-23.579c-4.701 0-8.519 3.824-8.519 8.534v153.16c0 .354.283.637.636.637h39.345zM519.997 115.45h6.292c2.439 0 3.075-.638 3.075-3.081V82.587c0-2.444-.636-3.081-3.075-3.081h-7.919c-18.912 0-33.935 5.843-44.646 17.387-10.782 11.616-16.226 28.295-16.226 49.543v92.32c0 2.479.601 3.081 3.075 3.081h32.381c2.439 0 3.075-.637 3.075-3.081v-98.588c0-7.543 2.157-13.599 6.434-18.025 4.277-4.427 10.181-6.693 17.534-6.693zm323.592-11.226c-4.49-7.79-10.711-13.917-18.453-18.202-7.812-4.32-16.685-6.516-26.371-6.516-15.943 0-28.951 4.745-38.673 14.059-9.721 9.313-14.847 22.027-15.271 37.75v60.803c0 16.184 4.773 29.322 14.211 39.06 9.509 9.845 21.669 14.626 37.082 14.626 14.67 0 26.866-4.321 36.269-12.82 9.403-8.499 14.776-19.902 16.013-33.925.142-1.275-.071-1.983-.283-2.196-.247-.283-1.025-.566-2.474-.566H812.94c-1.449 0-2.792.283-3.464 3.47l-.141.496c-2.899 7.932-8.449 9.597-12.585 9.597-4.171 0-7.459-1.417-9.827-4.25-2.192-2.62-3.288-6.161-3.288-10.517v-15.121h14.777c15.518 0 28.209-4.533 37.718-13.457 9.58-8.96 14.246-20.504 14.246-35.307.035-10.092-2.263-19.158-6.787-26.984zm-45.142 42.814h-14.776v-16.786c0-4.426 1.202-8.003 3.535-10.623 2.439-2.763 5.903-4.179 10.251-4.179 5.267 0 14.105 2.195 14.105 16.785 0 9.42-4.773 14.803-13.115 14.803zm-88.623 85.484c9.686-8.853 14.387-20.22 14.387-34.775 0-9.384-2.085-17.317-6.186-23.514-4.242-6.41-9.155-11.438-14.67-15.015-5.762-3.754-13.292-7.72-22.341-11.828-7.742-3.435-13.362-6.339-17.074-8.924-5.621-3.86-6.823-8.569-6.823-11.863 0-3.399 1.202-6.303 3.429-8.393 2.227-2.054 5.232-3.116 9.015-3.116 6.363 0 10.817 3.116 12.619 8.747.99 3.825 2.616 3.825 3.571 3.825h32.38c1.414 0 2.015-.248 2.157-.355.353-.672.565-1.735.565-3.081-.212-6.374-2.085-13.173-5.55-20.078-3.429-6.764-9.049-12.643-16.72-17.459-7.671-4.816-17.428-7.224-29.022-7.224-15.13 0-27.644 4.179-37.153 12.394-9.509 8.181-14.14 19.123-14.14 33.394 0 9.172 2.015 16.928 6.01 23.019 4.1 6.268 8.943 11.19 14.458 14.66 5.832 3.683 13.256 7.614 22.058 11.687 7.954 3.647 13.68 6.728 17.533 9.419 5.762 4.037 6.964 8.747 6.964 12.005 0 3.86-1.414 7.189-4.242 9.845-2.757 2.62-6.292 3.966-10.534 3.966-5.833 0-8.979-2.585-10.605-4.71-1.944-2.585-3.464-5.984-4.701-10.446-.778-2.798-2.051-3.365-3.854-3.365h-32.38c-1.591 0-2.05.354-2.05.354-.283.567-.707 1.771-.707 4.073.212 7.897 2.439 15.865 6.681 23.62 4.171 7.685 10.534 14.059 18.841 19.017 8.307 4.957 18.418 7.436 30.083 7.436 15.625 0 28.386-4.497 38.001-13.315zm-449.121 9.351h31.709c2.439 0 3.075-.638 3.075-3.081V133.227c0-16.184-4.666-29.357-13.892-39.096-9.297-9.844-21.316-14.625-36.729-14.625-11.241 0-21.139 3.4-29.481 10.128l-2.227 1.77-2.227-1.77c-8.343-6.728-18.276-10.128-29.482-10.128-15.413 0-27.431 4.78-36.728 14.625-9.262 9.739-13.928 22.912-13.928 39.096v105.565c0 2.479.601 3.081 3.075 3.081h31.709c2.439 0 3.075-.638 3.075-3.081v-108.54c0-4.356 1.096-7.897 3.288-10.553 2.298-2.762 5.585-4.249 9.474-4.249 3.888 0 7.176 1.487 9.473 4.249 2.192 2.621 3.288 6.162 3.288 10.518v108.539c0 2.479.601 3.081 3.075 3.081h31.709c2.439 0 3.076-.637 3.076-3.081V130.252c0-4.356 1.095-7.897 3.287-10.553 2.298-2.797 5.585-4.249 9.474-4.249 3.888 0 7.176 1.487 9.509 4.249 2.192 2.621 3.287 6.162 3.287 10.518v108.539c.036 2.515.637 3.117 3.111 3.117zM80.315 86.022c-7.813-4.32-16.685-6.516-26.371-6.516-15.943 0-28.952 4.745-38.673 14.059C5.55 102.914.424 115.627 0 131.35v60.803c0 16.184 4.772 29.322 14.21 39.06 9.51 9.845 21.635 14.626 37.083 14.626 14.67 0 26.865-4.321 36.268-12.82 9.403-8.499 14.777-19.901 16.014-33.925.141-1.275-.071-1.983-.283-2.195-.247-.284-1.025-.567-2.474-.567H68.119c-1.45 0-2.793.283-3.464 3.47l-.142.496c-2.898 7.933-8.448 9.597-12.584 9.597-4.171 0-7.459-1.416-9.827-4.249-2.192-2.621-3.288-6.162-3.288-10.553v-15.122H53.59c15.519 0 28.21-4.532 37.718-13.456 9.58-8.96 14.246-20.504 14.246-35.307 0-10.128-2.297-19.193-6.787-27.02-4.49-7.755-10.71-13.881-18.452-18.166zM53.59 147.038H38.814v-16.786c0-4.426 1.202-8.003 3.535-10.624 2.44-2.762 5.904-4.178 10.252-4.178 5.267 0 14.104 2.195 14.104 16.785.035 9.42-4.772 14.803-13.115 14.803zm331.298 98.797c8.06 0 15.589-2.267 22.341-6.693 6.823-4.498 12.372-10.836 16.473-18.84 4.136-8.074 6.222-17.529 6.222-28.153v-58.926c0-16.148-4.879-29.286-14.494-39.025-9.615-9.738-22.553-14.66-38.46-14.66-15.908 0-28.846 4.922-38.461 14.66-9.615 9.739-14.493 22.877-14.493 39.025v171.715c0 2.444.636 3.081 3.075 3.081h32.699c2.439 0 3.075-.637 3.075-3.081v-65.584l5.126 2.55c5.196 2.585 10.887 3.931 16.897 3.931zm-22.023-50.746v-64.841c0-4.462 1.273-8.038 3.782-10.694 2.546-2.727 6.01-4.073 10.323-4.073 4.312 0 7.777 1.381 10.322 4.108 2.51 2.656 3.782 6.268 3.782 10.695v64.84c0 4.427-1.272 8.039-3.782 10.695-2.545 2.726-6.045 4.107-10.322 4.107-4.313 0-7.777-1.381-10.323-4.107-2.509-2.656-3.782-6.268-3.782-10.73zM559.094 35.731c-3.818-3.966-5.762-8.923-5.762-14.873 0-5.914 1.909-10.871 5.762-14.873C562.912 2.019 567.861 0 573.87 0c5.833 0 10.711 1.983 14.635 5.985 3.924 4.002 5.868 8.924 5.868 14.873 0 5.56-2.015 10.412-6.009 14.59-4.03 4.179-8.838 6.233-14.494 6.233-6.045 0-10.958-1.983-14.776-5.95zM386.231 293.359c0-10.199 8.06-18.025 17.993-18.025 9.934 0 17.994 7.826 17.994 18.025 0 10.199-8.06 18.025-17.994 18.025-9.933 0-17.993-7.826-17.993-18.025zm28.068 0c0-6.197-4.454-10.305-10.075-10.305-5.62 0-10.074 4.108-10.074 10.305s4.454 10.305 10.074 10.305c5.621 0 10.075-4.108 10.075-10.305zm36.199 1.663v14.448c0 .779-.459 1.24-1.237 1.24h-4.949c-.778 0-1.237-.461-1.237-1.24v-13.811c0-2.479-1.45-3.576-3.323-3.576-2.227 0-3.606 1.239-3.606 4.143v13.209c0 .779-.459 1.239-1.237 1.239h-4.949c-.778 0-1.237-.46-1.237-1.239V287.16c0-.779.459-1.239 1.237-1.239h4.949c.778 0 1.237.46 1.237 1.239v1.027c1.167-1.735 3.252-2.939 6.434-2.939 4.595 0 7.918 3.577 7.918 9.774zm48.428 3.295c0 7.366-5.338 13.067-11.807 13.067-3.323 0-5.727-1.133-7.353-3.01v1.063c0 .779-.459 1.239-1.237 1.239h-4.949c-.778 0-1.237-.46-1.237-1.239v-32.155c0-.779.459-1.239 1.237-1.239h4.949c.778 0 1.237.46 1.237 1.239v10.978c1.662-1.877 4.065-3.01 7.353-3.01 6.469 0 11.807 5.701 11.807 13.067zm-7.388 0c0-3.718-2.475-6.055-5.868-6.055-3.394 0-5.868 2.337-5.868 6.055 0 3.719 2.474 6.056 5.868 6.056 3.393 0 5.868-2.337 5.868-6.056zm27.787-11.579v5.843c0 .779-.354 1.204-.99 1.204-2.757-.106-5.444 1.275-5.444 5.241v10.447c0 .779-.46 1.24-1.237 1.24h-4.949c-.778 0-1.237-.461-1.237-1.24v-22.274c0-.779.459-1.24 1.237-1.24h4.949c.777 0 1.237.425 1.237 1.24v2.691c.742-2.479 2.687-3.931 5.126-4.32.883-.177 1.308.389 1.308 1.168zm25.589 8.355v14.342c0 .779-.46 1.239-1.237 1.239h-4.737c-.778 0-1.237-.46-1.237-1.239v-.708c-1.308 1.558-3.253 2.62-6.363 2.62-4.348 0-8.166-2.585-8.166-7.72s3.818-7.72 8.166-7.72c3.11 0 5.055.886 6.363 1.877v-2.231c0-2.443-.99-3.506-3.076-3.506-1.52 0-2.474.602-2.863 1.452-.283.708-.53 1.098-1.273 1.098h-4.843c-.777 0-1.272-.425-1.237-1.275.636-5.347 5.197-8.074 10.216-8.074 5.444 0 10.287 3.187 10.287 9.845zm-7.211 8.57c0-1.523-1.344-2.479-3.747-2.479-2.263 0-3.359 1.027-3.359 2.479 0 1.451 1.096 2.478 3.359 2.478 2.403 0 3.747-1.027 3.747-2.478zm36.093-8.641v14.448c0 .779-.46 1.24-1.237 1.24h-4.949c-.778 0-1.237-.461-1.237-1.24v-13.811c0-2.479-1.45-3.576-3.323-3.576-2.227 0-3.606 1.239-3.606 4.143v13.209c0 .779-.46 1.239-1.237 1.239h-4.949c-.778 0-1.237-.46-1.237-1.239V287.16c0-.779.459-1.239 1.237-1.239h4.949c.777 0 1.237.46 1.237 1.239v1.027c1.166-1.735 3.252-2.939 6.434-2.939 4.63 0 7.918 3.577 7.918 9.774zm32.523-17.74v32.155c0 .779-.459 1.239-1.237 1.239h-4.949c-.778 0-1.237-.46-1.237-1.239v-1.062c-1.662 1.877-4.065 3.01-7.353 3.01-6.469 0-11.807-5.702-11.807-13.068 0-7.365 5.338-13.067 11.807-13.067 3.323 0 5.727 1.133 7.353 3.01v-10.978c0-.779.424-1.239 1.237-1.239h4.949c.778 0 1.237.46 1.237 1.239zm-7.423 21.035c0-3.718-2.475-6.055-5.868-6.055-3.394 0-5.868 2.337-5.868 6.055 0 3.719 2.474 6.056 5.868 6.056 3.393 0 5.868-2.337 5.868-6.056zm15.448 11.155v-5.453c0-.779.459-1.24 1.237-1.24h5.444c.778 0 1.237.461 1.237 1.24v5.453c0 .779-.459 1.24-1.237 1.24h-5.444c-.778 0-1.237-.461-1.237-1.24zm29.447-16.113c0-10.199 8.06-18.025 17.993-18.025 9.933 0 17.993 7.826 17.993 18.025 0 10.199-8.06 18.025-17.993 18.025-9.933 0-17.993-7.826-17.993-18.025zm28.068 0c0-6.197-4.454-10.305-10.075-10.305-5.621 0-10.075 4.108-10.075 10.305s4.454 10.305 10.075 10.305c5.621 0 10.075-4.108 10.075-10.305zm36.198 1.663v14.448c0 .779-.46 1.24-1.238 1.24h-4.948c-.778 0-1.238-.461-1.238-1.24v-13.811c0-2.479-1.449-3.576-3.323-3.576-2.227 0-3.605 1.239-3.605 4.143v13.209c0 .779-.46 1.239-1.238 1.239h-4.948c-.778 0-1.238-.46-1.238-1.239V287.16c0-.779.46-1.239 1.238-1.239h4.948c.778 0 1.238.46 1.238 1.239v1.027c1.166-1.735 3.252-2.939 6.433-2.939 4.596 0 7.919 3.577 7.919 9.774zm48.428 3.293c0 7.366-5.337 13.068-11.806 13.068-3.323 0-5.727-1.134-7.353-3.011v10.978c0 .779-.46 1.24-1.237 1.24h-4.949c-.778 0-1.238-.425-1.238-1.24v-32.154c0-.779.46-1.24 1.238-1.24h4.949c.777 0 1.237.461 1.237 1.24v1.062c1.661-1.877 4.065-3.01 7.353-3.01 6.469 0 11.806 5.701 11.806 13.067zm-7.388 0c0-3.718-2.474-6.055-5.868-6.055-3.393 0-5.868 2.337-5.868 6.055 0 3.719 2.475 6.056 5.868 6.056 3.394 0 5.868-2.337 5.868-6.056zm12.727 0c0-7.366 5.833-13.067 13.08-13.067 7.246 0 13.079 5.701 13.079 13.067 0 7.366-5.833 13.068-13.079 13.068-7.247 0-13.08-5.702-13.08-13.068zm18.771 0c0-3.506-2.474-5.843-5.691-5.843-3.217 0-5.692 2.337-5.692 5.843s2.475 5.843 5.692 5.843 5.691-2.337 5.691-5.843zm13.964-16.571v-4.462c0-.779.459-1.239 1.237-1.239h4.949c.778 0 1.237.46 1.237 1.239v4.462c0 .779-.459 1.24-1.237 1.24h-4.949c-.778 0-1.237-.461-1.237-1.24zm0 27.728v-22.274c0-.779.459-1.24 1.237-1.24h4.949c.778 0 1.237.461 1.237 1.24v22.274c0 .78-.459 1.24-1.237 1.24h-4.949c-.778 0-1.237-.46-1.237-1.24zm36.94-14.45v14.448c0 .779-.459 1.24-1.237 1.24h-4.949c-.778 0-1.237-.461-1.237-1.24v-13.811c0-2.479-1.45-3.576-3.323-3.576-2.227 0-3.606 1.239-3.606 4.143v13.209c0 .779-.459 1.239-1.237 1.239h-4.949c-.778 0-1.237-.46-1.237-1.239V287.16c0-.779.459-1.239 1.237-1.239h4.949c.778 0 1.237.46 1.237 1.239v1.027c1.167-1.735 3.252-2.939 6.434-2.939 4.631 0 7.918 3.577 7.918 9.774zm20.5-7.827v4.639c0 .779-.459 1.24-1.237 1.24h-2.722v16.396c0 .779-.46 1.239-1.237 1.239h-4.949c-.778 0-1.238-.46-1.238-1.239v-16.396h-2.722c-.777 0-1.237-.461-1.237-1.24v-4.639c0-.779.424-1.239 1.237-1.239h2.722v-6.693c0-.779.46-1.24 1.238-1.24h4.949c.777 0 1.237.461 1.237 1.24v6.693h2.722c.778 0 1.237.425 1.237 1.239z" fill="#ED6914" fill-opacity=".6"/></svg>