<svg width="36" height="35" fill="none" xmlns="http://www.w3.org/2000/svg"><path d="M17.448 0C10.819 0 5.425 5.394 5.425 12.023c0 3.017 1.134 6.045 3.113 8.309 1.266 1.446 1.957 3.203 1.946 4.94l-.003.27c-.006.733-.011 1.424.028 2.095.07 1.238.964 2.318 2.103 2.687v1.726a2.592 2.592 0 002.589 2.588h4.711A2.592 2.592 0 0022.5 32.05v-1.802c1.035-.428 1.825-1.449 1.89-2.608.036-.67.034-1.364.028-2.098l-.003-.265c-.011-1.74.68-3.493 1.945-4.94 1.98-2.264 3.113-5.292 3.113-8.309C29.471 5.394 24.077 0 17.448 0zm3.36 32.05a.897.897 0 01-.896.897h-4.714a.897.897 0 01-.897-.897v-1.587h6.507v1.587zm.632-3.28h-7.985c-.6 0-1.223-.608-1.257-1.229a24.11 24.11 0 01-.028-1.133h10.556c0 .392-.005.772-.028 1.133-.034.62-.657 1.23-1.258 1.23zm-6.307-12.532a4.9 4.9 0 002.41.629 4.9 4.9 0 002.434-.64v8.49h-4.844v-8.48zm.48-1.703l1.942-3.691 1.937 3.677a3.205 3.205 0 01-1.948.654 3.19 3.19 0 01-1.932-.64zm9.47 4.683c-1.401 1.604-2.222 3.536-2.343 5.495h-1.074v-9.16c0-.347-.085-.691-.248-.998l-3-5.696a.98.98 0 00-.866-.524c-.363 0-.696.2-.865.524l-3 5.696c-.161.307-.248.65-.248.998v9.163h-1.286c-.124-1.96-.942-3.89-2.343-5.495a11.085 11.085 0 01-2.696-7.196c0-5.695 4.636-10.33 10.331-10.33 5.696 0 10.33 4.635 10.33 10.33.004 2.611-.977 5.236-2.692 7.193zM2.887 14.159a.845.845 0 100-1.692H.846a.845.845 0 100 1.692h2.041zM2.04 5.753A.846.846 0 00.846 6.948L2.29 8.392c.166.166.38.248.597.248a.846.846 0 00.598-1.444L2.041 5.753zm.249 12.487L.845 19.684a.846.846 0 001.196 1.195l1.443-1.443A.846.846 0 002.29 18.24zm31.899-5.773h-2.042a.845.845 0 100 1.692h2.041a.845.845 0 100-1.692zm-1.445 5.773a.846.846 0 00-1.195 1.196l1.443 1.443a.838.838 0 00.598.248.846.846 0 00.598-1.444l-1.444-1.443zm-.598-9.6a.834.834 0 00.598-.248l1.444-1.444a.846.846 0 00-1.196-1.195l-1.443 1.443a.846.846 0 00.598 1.444z" fill="#F26222"/></svg>