<svg width="33" height="33" fill="none" xmlns="http://www.w3.org/2000/svg"><path d="M6.567 21.34a.826.826 0 00-.823.822c0 .452.371.823.823.823h1.638v1.638c0 .451.371.823.823.823a.826.826 0 00.823-.823v-1.638h3.283v1.638c0 .451.371.823.823.823a.826.826 0 00.823-.823v-1.638h3.284v1.638c0 .451.37.823.823.823a.826.826 0 00.822-.823v-1.638h3.284v1.638c0 .451.371.823.823.823a.826.826 0 00.823-.823v-1.638h1.638a.826.826 0 00.822-.823.826.826 0 00-.822-.823h-1.638v-3.283h1.638a.826.826 0 00.822-.823.826.826 0 00-.822-.823h-1.638v-1.638a.826.826 0 00-.823-.823.826.826 0 00-.823.823v1.638h-3.284v-1.638a.826.826 0 00-.822-.823.826.826 0 00-.823.823v1.638H14.78v-1.638a.826.826 0 00-.823-.823.826.826 0 00-.823.823v1.638H9.851v-1.638a.826.826 0 00-.823-.823.826.826 0 00-.823.823v1.638H6.567a.826.826 0 00-.823.823c0 .451.371.823.823.823h1.638v3.283H6.567zm16.41-3.284v3.283h-3.284v-3.283h3.284zm-4.921 0v3.283h-3.284v-3.283h3.284zm-8.205 0h3.283v3.283H9.851v-3.283zM28.729 2.46h-2.468a2.46 2.46 0 10-4.922 0h-9.85a2.46 2.46 0 10-4.922 0h-2.46A4.108 4.108 0 000 6.567v20.928a5.333 5.333 0 005.333 5.333h22.162a5.333 5.333 0 005.333-5.333V6.567a4.1 4.1 0 00-4.099-4.106zm-5.752 0c0-.452.371-.823.823-.823.452 0 .823.37.823.823v1.637a.826.826 0 01-.823.823.826.826 0 01-.823-.823V2.461zm-14.772 0c0-.452.371-.823.823-.823.452 0 .823.37.823.823v1.637a.826.826 0 01-.823.823.826.826 0 01-.823-.823V2.461zM1.638 6.567c0-.815.403-1.581 1.089-2.041a2.46 2.46 0 011.38-.42h2.46a2.46 2.46 0 104.921 0h9.851a2.46 2.46 0 104.922 0h2.46c1.259 0 2.324.952 2.453 2.211.008.08.016.17.016.25v3.284H1.638V6.567zM27.495 31.19H5.333a3.684 3.684 0 01-3.397-2.267 4.06 4.06 0 002.17.621H28.73c.767 0 1.517-.218 2.17-.621a3.704 3.704 0 01-3.404 2.267zm3.695-5.744a2.465 2.465 0 01-2.46 2.46H4.105a2.465 2.465 0 01-2.46-2.46V11.488h29.552l-.008 13.958z" fill="#F37321"/></svg>