<svg width="20" height="21" fill="none" xmlns="http://www.w3.org/2000/svg"><g clip-path="url(#clip0_1423_587)"><path d="M19.53 10.567c0-5.392-4.372-9.764-9.765-9.764C4.372.803 0 5.175 0 10.567c0 4.874 3.57 8.914 8.239 9.646V13.39h-2.48v-2.823h2.48v-2.15c0-2.448 1.458-3.8 3.688-3.8 1.068 0 2.186.19 2.186.19v2.404h-1.231c-1.213 0-1.592.753-1.592 1.526v1.83H14l-.433 2.823H11.29v6.823c4.669-.732 8.24-4.772 8.24-9.646z" fill="#fff"/></g><defs><clipPath id="clip0_1423_587"><path fill="#fff" transform="translate(0 .803)" d="M0 0h19.529v19.529H0z"/></clipPath></defs></svg>