<svg width="34" height="34" fill="none" xmlns="http://www.w3.org/2000/svg"><path d="M33.127 12.654a1.027 1.027 0 00-1.128.245l-.203.215V4.4a1.49 1.49 0 00-1.494-1.486l-24.584.28V0H2.845A2.85 2.85 0 000 2.845v25.367c0 .034.006.068.011.102-.005.068-.011.135-.011.203v.352a2.85 2.85 0 002.845 2.845h11.292c-.245.296-.31.705-.155 1.06.164.378.533.624.945.624h17.585c.697 0 1.264-.567 1.264-1.264V13.608a1.029 1.029 0 00-.649-.953zM2.845 1.692h1.181v23.983H2.845c-.412 0-.8.09-1.153.245V2.842c0-.634.519-1.15 1.153-1.15zm-1.153 27.18v-.352c0-.635.516-1.153 1.153-1.153h1.86c.029 0 .057-.006.083-.009.028.003.053.009.081.009a.845.845 0 00.846-.846V4.886l24.39-.276v10.286l-14.37 15.13H2.846a1.158 1.158 0 01-1.153-1.154zm30.389 2.834H16.47l15.61-16.435v16.435z" fill="#F26222"/><path d="M22.86 28.974a.898.898 0 00.825.546h5.259a.97.97 0 00.97-.97v-5.54c0-.372-.223-.7-.567-.837a.897.897 0 00-.987.217L23.031 28a.897.897 0 00-.172.974zm5.365-3.982v2.837h-2.696l2.696-2.837zm-12.996-2.2c.034-.014.068-.028.099-.045l6.211-3.364a1.2 1.2 0 00.632-1.057v-6.3c0-.033-.003-.067-.006-.104a.834.834 0 00-.48-.862c-.03-.023-.061-.048-.095-.068l-5.842-3.505a1.197 1.197 0 00-1.238 0l-5.845 3.508c-.03.02-.06.04-.09.062a.832.832 0 00-.488.86c-.003.037-.008.073-.008.11v6.31c0 .417.22.81.575 1.026l5.475 3.353c.034.02.068.036.102.053a.826.826 0 00.998.022zm.36-2.112v-5.053l4.89-2.436v4.841l-4.89 2.648zm-.467-11.588l4.444 2.664-4.797 2.388-4.164-2.343 4.517-2.71zm-5.354 4.181l4.13 2.326v4.994l-4.13-2.53v-4.79z" fill="#F26222"/></svg>