<svg width="21" height="21" fill="none" xmlns="http://www.w3.org/2000/svg"><g clip-path="url(#clip0_1423_585)" fill="#fff"><path d="M10.412 2.561c2.61 0 2.918.012 3.944.057.954.042 1.469.203 1.812.336.454.175.782.39 1.121.729.344.343.553.667.729 1.121.133.343.294.862.336 1.812.045 1.03.057 1.339.057 3.944 0 2.609-.012 2.918-.057 3.944-.042.953-.203 1.468-.336 1.812a3.02 3.02 0 01-.729 1.121 3.004 3.004 0 01-1.121.729c-.343.133-.862.293-1.812.335-1.03.046-1.339.057-3.944.057-2.609 0-2.918-.011-3.944-.057-.953-.042-1.468-.202-1.812-.335a3.021 3.021 0 01-1.121-.729 3.003 3.003 0 01-.729-1.121c-.133-.344-.293-.862-.335-1.812-.046-1.03-.058-1.339-.058-3.944 0-2.61.012-2.918.058-3.944.042-.954.202-1.469.335-1.812a3.02 3.02 0 01.729-1.121 3.003 3.003 0 011.121-.729c.344-.133.862-.294 1.812-.336 1.026-.045 1.335-.057 3.944-.057zm0-1.758c-2.65 0-2.983.011-4.024.057-1.037.046-1.75.214-2.369.454a4.766 4.766 0 00-1.731 1.129 4.785 4.785 0 00-1.13 1.728C.919 4.793.75 5.502.706 6.54.659 7.585.647 7.915.647 10.567c0 2.651.012 2.983.058 4.025.045 1.037.213 1.75.454 2.368a4.75 4.75 0 001.129 1.732 4.773 4.773 0 001.728 1.125c.621.24 1.33.408 2.368.454 1.042.046 1.373.057 4.024.057s2.983-.011 4.024-.057c1.038-.046 1.751-.213 2.37-.454a4.774 4.774 0 001.727-1.125 4.774 4.774 0 001.125-1.728c.24-.622.408-1.331.454-2.369.046-1.04.057-1.373.057-4.024 0-2.65-.011-2.983-.057-4.024-.046-1.037-.213-1.75-.454-2.369a4.573 4.573 0 00-1.117-1.735 4.773 4.773 0 00-1.728-1.125c-.622-.24-1.331-.408-2.369-.454-1.045-.05-1.377-.061-4.028-.061z"/><path d="M10.412 5.552a5.017 5.017 0 000 10.032 5.017 5.017 0 005.016-5.016 5.017 5.017 0 00-5.016-5.016zm0 8.27a3.254 3.254 0 11.001-6.509 3.254 3.254 0 010 6.508zm6.386-8.468a1.171 1.171 0 11-2.343 0 1.171 1.171 0 012.343 0z"/></g><defs><clipPath id="clip0_1423_585"><path fill="#fff" transform="translate(.647 .803)" d="M0 0h19.529v19.529H0z"/></clipPath></defs></svg>