<svg width="20" height="21" fill="none" xmlns="http://www.w3.org/2000/svg"><g clip-path="url(#clip0_1423_584)"><path d="M18.555.803H1.913C1.115.803.47 1.433.47 2.21v16.71c0 .779.644 1.412 1.442 1.412h16.642c.797 0 1.445-.633 1.445-1.407V2.21c0-.778-.648-1.407-1.445-1.407zM6.265 17.445h-2.9V8.122h2.9v9.323zM4.815 6.852a1.68 1.68 0 11-.006-3.358 1.68 1.68 0 01.006 3.358zm12.298 10.593h-2.895v-4.532c0-1.08-.02-2.471-1.507-2.471-1.507 0-1.736 1.178-1.736 2.395v4.608h-2.89V8.122h2.776v1.274h.038c.385-.732 1.331-1.506 2.739-1.506 2.933 0 3.475 1.93 3.475 4.44v5.115z" fill="#fff"/></g><defs><clipPath id="clip0_1423_584"><path fill="#fff" transform="translate(.47 .803)" d="M0 0h19.529v19.529H0z"/></clipPath></defs></svg>