<svg width="38" height="37" fill="none" xmlns="http://www.w3.org/2000/svg"><path d="M35.955 0h-3.942c-.67 0-1.215.544-1.215 1.215v1.122h-9.096A3.065 3.065 0 0018.744.062c-1.415 0-2.61.967-2.957 2.275H6.369V1.215A1.215 1.215 0 005.154 0H1.218C.544 0 0 .544 0 1.215v3.94c0 .67.544 1.214 1.218 1.214h3.936c.671 0 1.215-.544 1.215-1.215V4.03h5.764C7.9 6.257 4.946 10.601 4.697 15.646a3.062 3.062 0 00-2.385 2.983 3.064 3.064 0 003.06 3.059 3.064 3.064 0 003.058-3.06c0-1.33-.857-2.466-2.047-2.886.274-5.569 4.292-10.17 9.587-11.33a3.07 3.07 0 002.774 1.768 3.065 3.065 0 002.741-1.7c5.137 1.255 9.011 5.77 9.296 11.216a3.06 3.06 0 00-2.19 2.933 3.061 3.061 0 003.058 3.059 3.064 3.064 0 003.06-3.06 3.065 3.065 0 00-2.236-2.946c-.237-5.06-3.192-9.42-7.432-11.653h5.757v1.125c0 .671.544 1.215 1.215 1.215h3.942c.668 0 1.215-.544 1.215-1.215V1.215C37.17.545 36.623 0 35.955 0zM4.678 4.678H1.692V1.692h2.986v2.986zm2.06 13.95c0 .754-.611 1.368-1.367 1.368a1.37 1.37 0 01-1.367-1.367A1.37 1.37 0 015.37 17.26a1.37 1.37 0 011.368 1.368zM19.766 4.03a1.356 1.356 0 01-1.02.46 1.33 1.33 0 01-.892-.336.904.904 0 01-.13-.124 1.362 1.362 0 01-.183-1.554c.029-.047.054-.092.085-.138a1.368 1.368 0 012.487.784c0 .347-.13.666-.347.908zm13.252 14.6a1.37 1.37 0 01-1.368 1.367 1.369 1.369 0 01-1.367-1.367 1.37 1.37 0 011.367-1.368 1.37 1.37 0 011.368 1.368zm2.461-13.951H32.49V1.692h2.988v2.986z" fill="#F26222"/><path d="M19.424 9.638a1.01 1.01 0 00-1.678 0L9.206 22.26a1.257 1.257 0 00.062 1.506c.09.11.192.217.319.35.313.323.834.865 1.618 1.987 1.435 2.053 1.946 4.844 2.072 5.681a4.762 4.762 0 00-2.252 4.05 1.1 1.1 0 001.1 1.099h12.921a1.1 1.1 0 001.1-1.1c0-1.708-.9-3.206-2.253-4.049.127-.84.634-3.623 2.072-5.68.784-1.123 1.306-1.665 1.619-1.989a6.24 6.24 0 00.319-.35c.352-.436.377-1.04.062-1.505l-8.54-12.623zm-.8 11.853a1.369 1.369 0 010 2.735 1.37 1.37 0 01-1.368-1.367 1.37 1.37 0 011.367-1.368zm5.774 13.751H12.773a3.083 3.083 0 013.02-2.484h5.585a3.083 3.083 0 013.02 2.484zm1.965-12.299c-.344.358-.925.962-1.785 2.194-1.474 2.106-2.08 4.77-2.298 6.017a4.554 4.554 0 00-.902-.087h-5.585c-.308 0-.612.028-.903.087-.217-1.246-.823-3.91-2.298-6.017-.86-1.232-1.44-1.836-1.785-2.194l-.014-.014 6.948-10.266v7.266a3.067 3.067 0 00-2.177 2.93 3.064 3.064 0 003.06 3.059 3.064 3.064 0 003.059-3.06 3.064 3.064 0 00-2.25-2.948v-7.247l6.944 10.266-.014.014z" fill="#F26222"/></svg>