<svg width="34" height="35" fill="none" xmlns="http://www.w3.org/2000/svg"><path d="M16.774 34.033H6.075c-1.609 0-2.429-.82-2.429-2.453a1448.7 1448.7 0 01.008-11.652c0-.578-.11-.827-.742-.976C1.25 18.562.085 17.015.03 15.29c-.03-1.062-.054-2.132.016-3.194.023-.375.258-.82.539-1.085A141.703 141.703 0 015.06 6.824c.476-.43.656-.875.625-1.5-.047-.976-.032-1.952-.008-2.936C5.708.99 6.497.2 7.887.2a6683.2 6683.2 0 0117.697 0c1.437 0 2.225.789 2.249 2.234.015.632.078 1.273-.008 1.897-.195 1.39.32 2.367 1.413 3.242 1.297 1.038 2.484 2.225 3.656 3.412.32.328.53.867.577 1.328.086.968.04 1.952.024 2.929-.04 1.765-1.218 3.319-2.921 3.717-.586.14-.71.367-.71.914.023 3.858.015 7.708.007 11.566 0 1.796-.78 2.585-2.554 2.585-3.522.008-7.036.008-10.543.008zm-4.912-6.6c0-1.593-.008-3.116 0-4.63.008-1.203.164-1.36 1.335-1.367h6.467c1.96 0 1.96 0 1.96 1.944v4.022h6.474c0-2.749.008-5.443-.015-8.137 0-.149-.172-.336-.313-.438-.507-.359-1.038-.687-1.562-1.023-1.718 1.609-4.06 2-6.302-.031-2.374 1.867-3.725 1.867-6.373-.008-2.132 1.859-3.834 1.867-6.318.024-.601.445-1.452.773-1.75 1.382-.304.625-.077 1.515-.085 2.296v5.966h6.482zM3.146 10.986h27.217C29.09 9.8 27.958 8.714 26.786 7.667c-.18-.164-.53-.18-.804-.18a7273.77 7273.77 0 00-18.462 0c-.274 0-.617.032-.805.196-1.163 1.039-2.28 2.1-3.569 3.303zm4.264-5.31h18.673c0-1.031-.03-2 .008-2.976.024-.609-.195-.812-.796-.796-1.523.03-3.046.007-4.569.007-4.14 0-8.286.016-12.425-.015-.656-.008-.945.148-.898.867.047.953.007 1.897.007 2.913zm6.256 17.517v9.051h6.13v-9.051h-6.13zm-8.278 6.045c0 .874-.031 1.702.023 2.522.016.195.336.516.523.516 1.945.039 3.89.023 5.865.023v-3.07c-2.147.009-4.232.009-6.411.009zm16.299 0v3.077c1.975 0 3.897.015 5.818-.024.203-.008.554-.351.578-.554.07-.82.03-1.648.03-2.492-2.201-.007-4.294-.007-6.426-.007zm10.02-16.4h-4.585c0 .874-.055 1.702.016 2.522.101 1.179 1 1.952 2.194 1.983 1.297.032 2.21-.64 2.351-1.882.102-.843.023-1.702.023-2.624zm-29.927 0c0 .913-.078 1.756.015 2.569.149 1.257 1.055 1.952 2.335 1.929 1.21-.024 2.093-.766 2.21-1.976.079-.82.016-1.656.016-2.53-1.546.007-3.03.007-4.576.007zm19.055-.016c0 .89-.047 1.718.008 2.546.086 1.179.922 1.92 2.1 1.968 1.266.047 2.281-.672 2.406-1.836.094-.867.016-1.757.016-2.67-1.53-.008-2.983-.008-4.53-.008zm-8.169.023H8.113c0 .86-.039 1.656.008 2.452.07 1.203 1 2.023 2.226 2.039 1.32.015 2.226-.742 2.312-2.015.054-.797.007-1.601.007-2.476zm6.35.016h-4.53c0 .874-.031 1.679.008 2.483.055 1.203.984 2 2.257 2 1.265 0 2.202-.805 2.257-2 .039-.804.008-1.609.008-2.483z" fill="#F37321"/></svg>