<svg width="21" height="21" fill="none" xmlns="http://www.w3.org/2000/svg"><g clip-path="url(#clip0_1423_586)"><path d="M6.967 18.502c7.368 0 11.399-6.106 11.399-11.4 0-.17-.004-.346-.012-.518a8.137 8.137 0 001.999-2.074 7.9 7.9 0 01-2.3.63 4.028 4.028 0 001.762-2.217 8.053 8.053 0 01-2.544.973 4.012 4.012 0 00-6.83 3.653 11.38 11.38 0 01-8.256-4.183 4.011 4.011 0 001.24 5.346 4.011 4.011 0 01-1.816-.5v.05a4.005 4.005 0 003.215 3.93 3.983 3.983 0 01-1.808.068 4.015 4.015 0 003.741 2.784 8.036 8.036 0 01-5.934 1.658 11.366 11.366 0 006.144 1.8z" fill="#fff"/></g><defs><clipPath id="clip0_1423_586"><path fill="#fff" transform="translate(.823 .803)" d="M0 0h19.529v19.529H0z"/></clipPath></defs></svg>