<svg width="148" height="49" fill="none" xmlns="http://www.w3.org/2000/svg"><path d="M33.505 26.04c.5-.251 1.05-.553 1.55-.805.2-.101.9-.353 1-.555.05-.1 0-.403 0-.554V4.78c0-.05.05-.403 0-.453-.05-.05-.45 0-.5 0h-1.1c-.4 0-.35.05-.6.353-.95 1.26-1.9 2.519-2.85 3.829-.45.604-.9 1.158-1.3 1.763-.301.403-.301.453-.851.453l.15-3.325c.05-.806.05-1.612.1-2.418 0-.302.05-.605.05-.907 0-.1-.05-.403 0-.453.1-.151 1-.05 1.25-.05h18.703c.1 0 .55-.051.65 0 .1.05.05.352.05.503.05.655.05 1.36.1 2.015.05 1.461.1 2.872.2 4.333v.302c-.25 0-.45.05-.65-.1-.2-.152-.35-.454-.5-.655-.6-.806-1.2-1.663-1.85-2.469l-1.8-2.418c-.1-.151-.25-.504-.45-.605-.15-.1-.45-.05-.65-.05h-.801c-.1 0-.5-.05-.6 0-.05.05 0 .05-.05.151-.1.403 0 .907 0 1.31V23.42c0 .353-.1.856 0 1.21.1.352.9.604 1.25.755.35.201.95.352 1.25.655.1.1.2.604.1.755-.05.05-.3 0-.35 0H34.005c-.1 0-.45.05-.5 0-.05-.201 0-.604 0-.755zm18.552-.906V3.773c0-.302.1-.756 0-1.058-.1-.353-.7-.403-1.05-.554-.2-.05-.85-.202-.95-.403v-.403h.15c.2-.101.6-.101.85-.151.45-.101.9-.152 1.3-.252 1-.202 2.05-.403 3.05-.555.6-.1 1.2-.251 1.8-.352.15 0 .75-.101.8 0 .051.05 0 .252 0 .302v10.429c1.901-1.915 5.202-2.973 7.852-2.318 2.3.554 3.05 2.72 3.05 4.937.05 2.822 0 5.593 0 8.414v2.267c0 .252-.1.856 0 1.108.05.101.25.151.35.252.35.202.75.403 1.1.605.05.05.2.1.2.15.05.051.05.505 0 .555-.05.1-.05.05-.2.05-.55.101-1.15 0-1.65 0h-7.2c-.05 0-.3.05-.35 0-.05-.05-.05-.604 0-.654.15-.202.75-.404.95-.555.15-.1.6-.252.7-.403.1-.15 0-.705 0-.856v-2.066c0-2.922.05-5.894 0-8.816 0-.857-.15-1.864-1-2.318-.45-.252-1.05-.302-1.55-.302-.4 0-.8.1-1.15.202-.3.1-.851.302-1.051.554-.15.201-.05.503-.05.755v11.89c0 .252-.1.756 0 .957.05.101.25.202.4.252.35.202.8.403 1.15.605.05.05.15.05.15.1.05.05.05.504 0 .555-.05.05-.1.05-.2.05-.55.05-1.15 0-1.7 0h-7.201c-.05 0-.3.05-.35 0-.05-.05 0-.554.05-.655.15-.201.7-.403.9-.504.35-.15.6-.302.85-.453zM75.81 18.18c.1 2.217.8 4.686 2.8 5.895 1.05.604 2.351.806 3.551.705 1.45-.15 2.65-.856 3.9-1.511 0 .201.05.554 0 .756-.1.201-.35.453-.5.604-.2.202-.45.454-.7.655a9.06 9.06 0 01-2.8 1.562c-1.9.655-4.1.604-6.05.1-1.55-.402-2.951-1.158-4.001-2.367-1.05-1.21-1.65-2.771-1.9-4.383-.55-3.476.1-7.456 2.95-9.774 2.5-2.015 6.5-2.418 9.451-1.21 3.6 1.462 4.2 5.593 4.2 9.019h-9.55c-.45-.05-.9-.05-1.35-.05zm-.1-.856c1-.05 2-.1 3.05-.201.6-.05 1.251-.05 1.851-.101.1 0 .35 0 .45-.05.15-.101.05-1.109.05-1.31-.05-1.814-.1-4.03-1.15-5.593-.75-1.108-1.9-.906-2.6.101-1.45 1.965-1.65 4.887-1.65 7.154zM0 35.714c0-2.822.55-5.744 2.1-8.111 1.5-2.318 3.9-3.83 6.501-4.585 3.15-.907 6.651-.806 9.902-.202.7.152 1.4.303 2.05.504.1.05.55.151.6.252v.151c.15.605.05 1.36.05 1.965.05 1.562.05 3.174.1 4.736-.2 0-.55.05-.7 0-.1-.05-.2-.302-.25-.403-.4-.605-.8-1.21-1.15-1.864-.85-1.36-1.75-2.72-2.6-4.081-.45-.756-1.701-.756-2.501-.756-.9 0-1.8.151-2.55.605-1.7 1.058-2.5 3.123-2.95 4.987-.7 2.973-.65 6.096-.5 9.12.15 2.317.35 4.785 1.25 6.901.55 1.31 1.5 2.469 2.95 2.771.45.1.9.1 1.4.05.3-.05 1.35-.1 1.5-.403.05-.1 0-.352 0-.453v-8.262c0-.353.1-.504-.2-.706-.35-.201-.75-.403-1.1-.655-.25-.15-.75-.302-.9-.503-.1-.101-.15-.655-.05-.756.05-.1.05-.05.2-.05.45-.101 1.05 0 1.5 0h7.751c.5 0 1.05-.05 1.55 0h.2c.05.05.05.755 0 .856-.1.151-.6.353-.8.453-.35.202-.75.404-1.1.655-.4.202-.35.202-.35.655v8.212c0 .101.05.353 0 .454-.1.252-1.15.403-1.45.503-.85.252-1.75.454-2.65.605-1.75.302-3.501.403-5.251.353-2.8-.101-5.751-.706-8.051-2.419-2-1.46-3.3-3.677-3.9-6.096C.15 38.787 0 37.225 0 35.714zm23.053-4.585c0-.1-.05-.504 0-.554.05-.05.1 0 .15-.05.3-.152.7-.152 1.05-.202 1.15-.201 2.3-.403 3.5-.605.9-.15 1.801-.352 2.651-.453.25-.05.55-.05.8.05.25.05.15 0 .2.202.1.605 0 1.31 0 1.914v10.53c0 1.26-.35 3.577.85 4.332.6.403 1.45.403 2.15.252.55-.1 1.6-.504 1.801-1.108.05-.151 0-.353 0-.504V32.59c0-.1.05-.403 0-.504-.15-.15-.65-.302-.8-.352-.3-.101-.55-.252-.85-.353-.1-.05-.45-.1-.5-.201-.05-.05-.05-.504 0-.555.05-.05.05 0 .1-.05.25-.151.7-.1.95-.151 2.05-.353 4.15-.806 6.25-1.109.25-.05.5-.05.75 0s.15-.05.2.202c.1.504 0 1.209 0 1.763v14.51c0 .15-.05.403 0 .604.05.151 0 .1.25.202.5.201 1.051.453 1.551.655.15.05.2.05.25.15.05.101.05.454 0 .454-.1.1-.6.05-.7.1-1.1.152-2.2.253-3.35.404-1 .1-2 .252-2.95.353-.2.05-.4.05-.601 0-.1 0-.4 0-.45-.05-.05-.102 0-.505 0-.605V47.2c0-.15.1-.554 0-.705-.1-.151-.3.05-.45.151-.4.353-.85.705-1.3.957-1.65 1.008-3.7 1.461-5.601 1.058-1.4-.302-2.6-1.108-3.2-2.468-.45-.958-.55-2.016-.55-3.023V32.59c0-.1.05-.403 0-.504-.1-.15-.7-.302-.85-.403-.5-.201-.9-.352-1.3-.554zm47.157-1.914c.1 0 .55 0 .6.1.05.05 0 .403 0 .454v4.433c0 .151-.05.403 0 .554v.101c.2.202.25-.453.3-.504.45-1.864 1.3-4.03 3.2-4.786.35-.15.7-.201 1.05-.252.3 0 1.15-.1 1.3.152.05.1 0 .352 0 .453v5.139c-1.2-.252-2.55-.202-3.7.05-.55.1-1.05.252-1.55.504-.25.1-.3.05-.35.252-.05.201 0 .554 0 .755v9.724c0 .1-.05.252 0 .352.1.152.45.252.6.303.25.15.55.302.8.453.1.05.25.1.3.202.05.05.05.655 0 .705-.05.05-.35 0-.45 0h-8.301c-.25 0-.7.1-.9 0h-.15c-.05-.05 0-.605 0-.655.1-.302.75-.504 1.05-.655.2-.1.6-.252.7-.453.05-.101 0-.403 0-.504V32.086c0-.05.05-.302 0-.352-.05-.05-.3-.101-.4-.101-.3-.1-.6-.202-.9-.252-.3-.1-1.05-.151-.8-.655.05-.151.25-.1.45-.151 2.2-.403 4.35-.806 6.55-1.21.2-.1.4-.1.6-.15zm18.852.453V24.48c0-.151.05-.453 0-.605-.05-.1-.25-.15-.4-.201-.4-.151-.8-.302-1.25-.453-.3-.101-.45-.05-.45-.404 0-.302-.05-.201.2-.252.55-.201 1.2-.201 1.75-.302 1.65-.302 3.25-.604 4.9-.907.35-.05.7-.15 1.051-.1.4.05.45-.05.45.302.05.806 0 1.663 0 2.469v22.066c0 .201-.05.201.1.302.3.202.8.302 1.1.403.2.05.75.151.85.303.05.05.05.604 0 .654-.05.05-.35.05-.4.05-.7.102-1.35.202-2.05.253-1.55.201-3.1.403-4.7.604-.25.05-.85.151-.95-.05-.1-.202 0-.857 0-1.058 0-.151.1-.806 0-.907-.1-.1-1.2.907-1.351 1.008-.6.403-1.25.705-1.95.906-1.1.303-2.35.303-3.45.05-4.801-1.108-5.802-6.85-5.401-11.032.2-2.217.9-4.434 2.4-6.046 1.4-1.46 3.3-2.217 5.25-2.368 1.5-.15 2.951-.05 4.301.504zm0 16.071V31.028c0-.302-.05-.352-.4-.554-.7-.403-1.6-.554-2.35-.252-1.15.454-1.7 1.814-2 2.922-.6 2.016-.65 4.182-.6 6.298.05 1.813.1 4.03 1.1 5.642.9 1.41 2.95 1.764 4.25.655zm16.552-16.524c.251.05.551-.05.651.201.05.151 0 .504 0 .655V45.84c0 .201-.05.504 0 .705.05.202.25.252.45.353.3.151.55.302.85.453.1.05.4.151.45.303 0 .05.05.655 0 .705h-.15c-.3.05-.7 0-1.05 0h-7.601c-.2 0-.75.1-.9 0-.1-.05-.15-.655-.05-.756.1-.15.45-.252.6-.302.3-.151.6-.353.9-.504.25-.15.2-.1.2-.302.1-.756 0-1.612 0-2.368V32.892c0-.201.05-.554 0-.755-.05-.202-.3-.202-.5-.303-.35-.15-.65-.252-1-.403-.1-.05-.5-.1-.6-.252-.05-.05-.05-.554 0-.604.05-.05.15 0 .2-.05.4-.152.85-.152 1.3-.252.65-.101 1.25-.252 1.9-.353 1.25-.202 2.45-.453 3.7-.655.25.05.45 0 .65-.05zm.701-4.686c-.1 3.023-4.151 4.333-6.001 1.965a3.276 3.276 0 01-.15-3.778c.75-1.16 2.2-1.663 3.55-1.36a3.233 3.233 0 012.601 3.173zm21.903 22.117V32.187c0-.05.05-.302 0-.353-.05-.1-.35-.15-.45-.15l-.901-.303c-.15-.05-.55-.1-.65-.252-.1-.1-.05-.353-.05-.504 0-.302.1-.252.4-.302l3.301-.605 3.3-.604c.2-.05.35-.1.55-.1.1 0 .6 0 .7.05.05.05 0 .352 0 .453v.957c0 .151-.1.605 0 .756.1.201.3 0 .45-.151a8.372 8.372 0 011.401-.907c1.8-1.008 3.95-1.461 6-1.159 1.401.202 2.551.957 3.051 2.318.35.957.4 1.964.4 2.972V45.79c0 .201-.05.554 0 .755.05.202.2.252.45.353.25.151.55.302.8.453.1.05.45.151.5.303.05.1.05.604 0 .655-.05.1.05 0-.1.05-.2.1-.65 0-.9 0h-7.151c-.3 0-1.45.151-1.6-.05-.05-.05-.05-.605 0-.706.05-.1.35-.201.45-.252.3-.15.55-.302.85-.453.1-.05.4-.151.45-.252.05-.1 0-.302 0-.403V34.807c0-.806.05-1.713-.45-2.418-.4-.605-1.1-.756-1.8-.807-.55 0-1.05.05-1.55.202-.25.1-1.001.302-1.151.605-.05.1 0 .302 0 .403V45.84c0 .151-.05.504 0 .655.05.201.35.252.5.353.251.15.551.302.801.453.1.05.3.151.35.201.05.05.05.655 0 .706 0 .05-.05 0-.1 0-.2.1-.7 0-.9 0h-8.402c-.25 0-.3.05-.35-.1-.05-.102-.05-.555 0-.656.05-.1.35-.201.45-.252.5-.05.9-.302 1.351-.554zm-10.602-9.27c0-1.31.05-2.67-.05-4.03-.15-1.461-.55-3.073-2.2-3.376-.5-.1-1.4-.252-1.75.152-.35.352-.601.856-.901 1.259l-2.55 3.476c-.15.202-.3.605-.5.706-.05.05-.55.05-.55 0-.05-.05 0-.404 0-.504v-4.081c0-.151-.05-.403 0-.554.1-.252 1.2-.403 1.45-.504 1.4-.353 2.851-.605 4.301-.705 2.05-.151 4.35-.101 6.251.806 1.5.705 2.45 1.964 2.7 3.577.15.806.1 1.713.1 2.519v10.076c0 .15-.1.554 0 .655.05.05.3.1.35.1.4.101.75.202 1.15.303.25.05.3.05.3.302s.05.252-.25.353c-.35.15-.7.302-1.05.403-1.85.554-4.751.705-6.101-1.008-.1-.151-.4-.806-.55-.857-.2-.05-.8.756-1 .907-.8.706-1.85 1.109-2.9 1.26-1.951.252-4.051-.151-5.251-1.864-1-1.461-1.2-3.728-.45-5.34 1.35-3.074 5.351-3.376 8.251-3.88.35 0 .75-.1 1.2-.15zm0 8.363v-7.456c-1.5.1-3.05.201-3.6 1.864-.4 1.108-.4 2.418-.25 3.577.1.806.3 1.814 1.05 2.318.8.554 2.15.453 2.8-.303zm-63.309-8.363c0-1.31.05-2.67-.05-4.03-.15-1.461-.55-3.073-2.2-3.376-.5-.1-1.4-.252-1.75.152-.35.352-.6.856-.9 1.259l-2.55 3.476c-.15.202-.3.605-.5.706-.05.05-.55.05-.55 0-.05-.05 0-.404 0-.504v-4.03c0-.152-.05-.404 0-.555.1-.252 1.15-.403 1.45-.504a25.03 25.03 0 014.25-.705c2.05-.151 4.35-.1 6.25.806 1.501.705 2.451 1.965 2.701 3.577.15.806.1 1.713.1 2.52v10.075c0 .151-.1.554 0 .655.05.05.3.1.35.1.4.102.75.202 1.15.303.25.05.3.05.3.302s.05.252-.25.353c-.35.151-.7.302-1.05.403-1.85.554-4.75.705-6.1-1.008-.1-.15-.4-.806-.55-.856-.2-.05-.8.756-.95.907-.8.705-1.85 1.108-2.901 1.26-1.95.251-4.05-.152-5.25-1.865-1-1.46-1.201-3.728-.45-5.34 1.35-3.073 5.35-3.376 8.2-3.88.4-.05.8-.15 1.25-.2zm0 8.363v-7.456c-1.5.1-3.05.201-3.6 1.864-.4 1.108-.4 2.418-.25 3.577.1.806.3 1.814 1.05 2.318.8.554 2.15.453 2.8-.303z" fill="#121212"/></svg>