<svg width="127" height="39" fill="none" xmlns="http://www.w3.org/2000/svg"><path d="M60.127 0s-1.417.03-2.24.016c-.033.342-.43 3.443-.77 5.938-.392 2.309-3.495 19.434-4.547 24.56-.277 1.549-1.133 5.921-1.213 6.358-.988.117-2.155.226-2.917.255-.102.003-.272.036-.353.036v.888c.093-.004.587.034.936.019.84-.027 3.22-.139 3.67-.139 1.712 0 2.853.113 4.437.144.021 0 .456-.002.647-.026v-.897c-.132 0-.306-.004-.409-.004-.447.014-2.094-.112-2.929-.225.098-.586 1.554-9.455 2.252-13.002a2806.49 2806.49 0 002.248-11.218l.248.578L69.681 38.11l1.916.01s1.094-2.689 2.392-5.705c.035-.07.128-.287.26-.595 1.363-3.132 8.115-19.024 8.115-19.024s.064.286.17.798c.644 3.115 2.82 14.34 3.283 17.049.217 1.393.422 2.806.541 3.634.175 1.172.29 2.32.29 2.65-.213.009-2.35.2-3.16.235a4.424 4.424 0 00-.345.01v.902c.29 0 .571.013.852.007 1.652-.032 3.24-.16 4.892-.16 1.856.002 4.867.163 6.795.176.217 0 .605-.02.605-.02v-.912c-.11 0-.596-.024-.775-.038-.864-.067-2.32-.201-2.69-.226 0 0-.24-1.311-.554-2.826-1.26-6.058-4.85-24.474-5.4-29.005-.184-1.56-.718-5.056-.718-5.056h-2.158l-2.108 6.003c-.685 1.957-1.618 4.372-2.329 6.224-3.508 9.152-7.442 17.68-7.442 17.68S63.75 10.117 63.308 8.972C62.86 7.827 60.128 0 60.128 0zM.017.008l.019 2.093L0 7.2l.556-.016.059-4.534s3.05-.026 3.445-.025l5.688.002 3.672.018.006 31.528v2.723l-.077.011c-.489.038-2.37.152-3.133.18-.171.005-.28.009-.3.007l.004.922c.138.007.51.016.559.014 1.807-.023 4.252-.179 5.986-.177 1.76 0 4.24.17 5.774.188.152.001.332-.014.478-.014v-.865l-.19.002c-.49-.002-3.192-.175-3.472-.211-.012-.423-.062-2.465-.062-2.51l.013-31.801 2.796-.007 7.293.005 2.434.033c.016.172.139 2.469.137 2.531-.006.167.09 1.878.087 2.299l.577.006-.041-5.155.026-2.32C30.172.093 24.71.165 16.233.16 8.963.156 1.956.095.018.008zm33.954.009l.009.902c.288.016 1.98.165 2.39.185.33.04.787.08 1.115.112 0 .289.005 2.284.01 3.071.055 7.462.008 23.955-.014 29.79l-.012 2.775c-.207.062-.674.085-1.178.12-.431.028-1.977.157-2.322.164v.903c.143 0 .405.03.555.03 1.75 0 4.182-.216 5.974-.215 1.811.002 4.23.22 5.656.221h-.005c.124.002.418-.03.541-.03v-.902h-.123c-.056-.012-1.895-.089-2.342-.135-.234-.014-1.248-.102-1.26-.135a15.784 15.784 0 01-.009-.738c.004-.427.004-1.137.004-1.907.005-5.887.022-23.368.026-30.05 0-1.292.004-2.342.004-2.904.396-.025 2.014-.193 2.593-.244L46.69.965V.024c-1.98 0-4.6.153-6.532.152-2.02-.001-4.51-.159-6.187-.16zm91.625.025L125 .044c-1.324.005-4.713.03-8.677.052-2.436.014-4.339.033-6.846.032-1.759.02-4.22.088-5.74.085-2.427-.004-4.406-.152-5.484-.157-.51-.002-.796.017-.936.008.008.013.008.892.008.892.094.016.281.037.456.033.608.04 1.75.132 2.329.208.115.02.31.053.855.113-.004.2.026 2.462.022 3.821l-.013 29.357c0 .046-.064 2.26-.064 2.439-.962.163-2.81.264-3.44.266h-.188v.894c.09 0 .503.016.737.016 1.018 0 3.64-.161 6.318-.163 1.878-.002 3.943.068 6.034.098 2.576.035 5.181.037 7.523.07 3.862.054 6.991.059 8.009.06 0 0 .123-7.11.123-7.682l-.558.006c0 .605-.225 2.857-.234 2.955a59.7 59.7 0 01-.208 2.174s-.273.021-.405.019c-.634-.012-2.661.061-2.704.061l-9.039.004-6.348-.106-.042-1.747-.005-13.57c1.133-.038 2.862-.098 3.913-.096.894.002 3.002-.048 4.181-.046 2.866.005 5.412.024 5.616.03.473.013 1.35.042 1.682.062.013.12.051.306.055.36.171 1.038.264 1.758.379 2.778.017.092.026.18.038.264h.652s.017-.364.008-.591c-.012-.8-.063-2.396-.063-4.165-.005-1.225.068-3.1.076-4 .004-.245-.025-.418-.025-.488l-.596.012a4.483 4.483 0 01-.052.482c-.051.672-.242 1.53-.395 2.436-.043.113-.073.27-.073.27-.068.024-1.937.123-2.103.121-.064 0-2.785.076-2.832.076l-10.456-.04.017-14.963s1.328-.047 1.698-.045c1.508 0 3.96-.013 6.459-.01 3.658.005 7.209.027 7.217.033.021.01 1.103.025 1.124.043.026.02 1.38.06 1.712.071 0 0 .025.112.042.252.149 1.578.273 3.452.328 4.115l.004.266.558-.001c0-.972-.051-3.947-.059-5.84-.005-.608.008-1.103.008-1.385v-.24z" fill="#E90606"/></svg>