<svg width="168" height="43" fill="none" xmlns="http://www.w3.org/2000/svg"><path d="M166.054.98H1.43v33.63h164.624V.98z" fill="#005EA6"/><path d="M165.864 34.174H0v1.667h165.864v-1.667z" fill="#fff"/><path d="M166.054 35.59H1.43v6.204h164.624V35.59z" fill="#C41623"/><path d="M165.399 1.64v39.334H2.089V1.639h163.31zM167.032 0H.456v42.613h166.576V0z" fill="#fff"/><path fill-rule="evenodd" clip-rule="evenodd" d="M50.145 19.87c4.905.94 7.465 2.978 7.465 7.213 0 .745-.107 1.444-.302 2.101h3.89v5.043h-4.816v-3.161c-1.584 2.184-4.705 3.505-9.393 3.505-7.464 0-10.15-2.257-11.145-5.392-.254-.813-.348-2.037-.348-2.537h5.56c0 .44.156 1.192.344 1.567.688 1.442 2.311 2.066 5.589 2.066 3.75 0 5.061-1.03 5.061-2.661 0-2.04-1.033-2.758-5.026-3.51-.72-.127-2.531-.474-3.624-.692-4.811-.908-7.776-3.133-7.776-7.24 0-4.203 3.371-7.021 10.617-7.021 6.184 0 9.09 2.162 10.337 5.296.314.816.563 1.752.563 2.381h-5.56c0-.281-.156-.843-.344-1.22-.655-1.38-1.998-2.1-5.121-2.1-4.09 0-4.904.907-4.904 2.318 0 1.819 1.469 2.54 5.499 3.354.435.087.917.186 1.384.282h.002c.867.179 1.682.346 2.047.408zM31.79 9.465v17.269c0 .895-.134 1.71-.383 2.45h3.849v5.043h-4.818V31.02c-1.786 2.356-5.207 3.521-9.453 3.521-6.151 0-10.74-2.317-10.74-8.12V9.464h5.399v16.488c0 2.604 1.938 4.136 5.467 4.136 3.091 0 5.278-1.532 5.278-4.104V9.465h5.401zm46.834 15.953L69.132 9.465h-6.278v24.763h5.153V17.456l9.933 16.77h5.838V9.465h-5.153v15.953zm8.216-5.837c1.754-2.558 4.898-4.052 8.87-4.052 4.169 0 7.017 1.526 8.636 3.886 1.357 1.992 1.853 4.618 1.556 7.37H90.48c0 .836.365 1.465.992 2.163.766.83 2.252 1.36 4.238 1.36 1.49 0 2.58-.266 3.344-.598.957-.432 1.421-1.028 1.518-1.428h5.196c-.427 1.76-1.486 3.419-3.304 4.585-1.59 1.028-3.81 1.659-6.754 1.659-4.04 0-7.314-1.195-9.067-3.986-.896-1.427-1.392-3.254-1.392-5.547 0-2.093.564-3.951 1.588-5.412zm4.733 1.528c-.628.565-1.126 1.657-1.126 2.191h10.189c0-.533-.226-1.394-.886-2.092-.764-.763-2.021-1.397-4.008-1.397-1.883 0-3.274.5-4.169 1.298zm41.616-5.148l-4.266 13.581-4.105-13.58h-5.889l-4.003 13.58-4.368-13.58h-5.526l6.513 18.265h6.293s3.576-10.494 3.608-11.127c.033-.2.228-1.283.228-1.283s.201 1.082.236 1.316c.064.6 3.641 11.094 3.641 11.094h6.253l6.585-18.266h-5.2zm15.683 6.863c.895.132 1.755.258 2.084.31 4.366.665 6.288 2.293 6.288 5.713 0 3.786-2.845 5.711-9.132 5.711-6.157 0-9.068-1.226-9.83-4.215a7.556 7.556 0 01-.196-1.828h5.26c0 .233.032.564.165.931.332.863 1.72 1.095 4.601 1.095 3.011 0 3.938-.532 3.938-1.593 0-1.032-1.095-1.263-3.775-1.661-.693-.1-2.877-.433-3.968-.599-4.005-.563-5.924-2.322-5.924-5.814 0-3.25 2.909-5.376 8.769-5.376 4.993 0 8.141 1.295 9.067 3.917.231.7.331 1.826.331 2.191h-5.129c0-.199-.07-.762-.232-.994-.365-.496-1.324-.931-3.837-.931-2.914 0-3.777.468-3.777 1.33 0 .797.566 1.094 3.147 1.495.502.076 1.341.2 2.15.318zm-45.575-8.32c1.815 0 2.643-.86 2.643-2.607 0-1.663-.772-2.534-2.643-2.534-1.834 0-2.646.965-2.646 2.553 0 1.7.826 2.588 2.646 2.588zm0-3.964c.841 0 1.11.407 1.11 1.392 0 1.11-.405 1.406-1.102 1.406-.725 0-1.105-.35-1.105-1.406 0-1 .288-1.392 1.097-1.392zm-13.679 3.7c-.383.16-.893.24-1.365.24-1.179 0-2.24-.217-2.283-1.13-.004-.054-.002-.127-.001-.187l.001-.07c.013-.567.548-.918 1.135-1.195-.288-.41-.398-.751-.406-1.052v-.253c.027-.611.625-1.19 1.658-1.19.944 0 1.494.548 1.53 1.152a1.63 1.63 0 010 .172v.044c-.016.63-.498 1.069-.993 1.376.11.09.233.196.364.309.138.118.284.245.43.365.163-.207.254-.47.268-.755h1.39a2.225 2.225 0 01-.672 1.542c.33.246.705.535 1.064.822H89.85a2.93 2.93 0 01-.233-.19zm-1.276-3.773c-.22 0-.312.15-.333.326a.496.496 0 000 .135c.008.137.078.295.2.457.254-.15.431-.315.447-.509v-.1c-.008-.165-.086-.31-.314-.31zm.011 2.728a7.697 7.697 0 01-.524-.464c-.227.129-.385.265-.384.405 0 .24.221.332.738.332.14 0 .31-.018.434-.05-.088-.076-.177-.15-.264-.223zm8.434-1.794c-.009.167-.768 3.029-.768 3.029h-1.645l-1.42-4.977h1.622s.758 3.073.758 3.23c0-.157.733-3.23.733-3.23h1.56s.753 3.073.753 3.23c0-.157.744-3.23.744-3.23h1.472l-1.39 4.977h-1.659s-.741-2.869-.76-3.029zm12.348 1.344h-1.026v1.685h-1.496V9.453h3.139c.66 0 1.089.19 1.34.522.192.251.285.585.285 1.051 0 .4-.086.717-.218.938a.963.963 0 01-.61.472l1.16 1.993h-1.703l-.871-1.684zm.268-2.12h-1.28v1.014h1.313c.187 0 .346-.043.402-.167a.902.902 0 00.057-.32c0-.111-.011-.246-.054-.32-.073-.16-.218-.208-.438-.208zm6.939 2.574h-2.381V9.453h-1.534v4.977h3.915v-1.231zm5.603-1.354c0 1.06-.075 1.45-.349 1.862-.298.46-.81.723-1.702.723H117.1V9.453h2.72c.897 0 1.455.221 1.761.648.304.423.364.837.364 1.743zm-3.336-1.228v2.637h.957c.387 0 .591-.081.762-.283.129-.158.144-.722.144-1.127 0-.356-.036-.817-.157-.958-.193-.213-.375-.27-.749-.27h-.957zm7.354 2.128h1.024l.876 1.684h1.7l-1.161-1.993a.96.96 0 00.61-.472c.131-.22.219-.537.219-.938 0-.466-.093-.8-.286-1.051-.25-.332-.679-.522-1.339-.522h-3.137v4.977h1.494v-1.685zm.014-2.12h1.276c.219 0 .368.047.445.207.039.074.048.209.048.32a.9.9 0 01-.054.32c-.056.124-.22.167-.405.167h-1.31v-1.015zm5.857 2.644h2.75v1.16h-4.242V9.454h4.215v1.172h-2.723v.722h2.622v1.183h-2.622v.74zm5.25-.397s1.341.01 1.528.008c.609-.013 1.084-.171 1.37-.506.247-.264.366-.655.366-1.206 0-.618-.156-1.047-.446-1.298-.271-.284-.697-.417-1.295-.417h-3.051v4.977h1.527v-1.558h.001zm-.018-2.262h1.21c.25 0 .394.077.478.236.047.067.067.195.067.35 0 .145-.012.238-.062.328-.071.138-.213.234-.502.234h-1.191V10.61zm9.106 1.287c0 1.748-.829 2.607-2.641 2.607-1.823 0-2.65-.887-2.649-2.588 0-1.588.811-2.553 2.649-2.553 1.867 0 2.641.871 2.641 2.534zm-1.535.035c0-.985-.266-1.392-1.106-1.392-.814 0-1.099.392-1.099 1.392 0 1.056.376 1.406 1.1 1.406.7 0 1.105-.296 1.105-1.406zm3.72.813h1.026l.874 1.684h1.698l-1.157-1.993c.232-.051.454-.206.614-.472.127-.22.216-.537.216-.938 0-.466-.097-.8-.287-1.051-.252-.332-.686-.522-1.342-.522h-3.138v4.977h1.496v-1.685zm.013-2.12h1.279c.217 0 .367.047.442.207.038.074.049.209.049.32a.92.92 0 01-.054.32c-.054.124-.22.167-.407.167h-1.309v-1.015zm6.822 3.805h-1.545v-3.78h-1.573V9.453h4.704v1.197h-1.586v3.78z" fill="#fff"/></svg>