<svg width="170" height="26" fill="none" xmlns="http://www.w3.org/2000/svg"><path d="M25.348 12.673c0 7-5.674 12.674-12.675 12.674C5.674 25.347 0 19.673 0 12.673 0 5.674 5.674 0 12.673 0c7.001 0 12.675 5.674 12.675 12.673z" fill="#00ABE6"/><path d="M37.192 18.113c-1.995 0-3.108-1.221-3.108-3.374V3.809h-4.945V14.71c0 4.787 2.921 7.523 8.053 7.523 5.132 0 8.053-2.736 8.053-7.523V3.81H40.3v10.93c0 2.153-1.113 3.374-3.108 3.374zm16.781 4.118c4.335 0 7.178-2.311 7.178-5.742 0-2.447-1.464-4.334-5.347-5.397l-1.356-.373c-1.939-.53-2.656-1.113-2.656-1.966 0-.905.797-1.408 2.204-1.408 1.706 0 3.538.956 4.815 2.046l2.47-3.108a10.92 10.92 0 00-7.308-2.82c-4.176 0-7.098 2.26-7.098 5.742 0 2.684 1.752 4.442 4.996 5.29l1.119.293c2.419.639 3.244 1.12 3.244 2.074 0 .984-.854 1.487-2.29 1.487-2.124 0-3.882-.769-5.317-2.046l-2.39 3.006c1.994 1.86 4.786 2.922 7.736 2.922zm21.29-.343h5.03l-6.624-18.08h-5.742l-6.617 18.08h4.888l1.147-3.374h6.776l1.142 3.374zm-6.669-7.048l2.154-6.324 2.124 6.324h-4.278zm21.24 7.048h4.944V7.798h5.375v-3.99H84.465v3.99h5.368v14.09zm19.58.343c5.42 0 9.382-3.854 9.382-9.359 0-5.498-3.962-9.41-9.382-9.41-5.425 0-9.387 3.912-9.387 9.41 0 5.505 3.962 9.36 9.387 9.36zm0-4.091c-2.577 0-4.363-2.13-4.363-5.268 0-3.136 1.786-5.312 4.363-5.312 2.577 0 4.358 2.176 4.358 5.313 0 3.136-1.781 5.267-4.358 5.267zm11.092 3.748h7.121c5.346 0 9.149-3.725 9.149-9.037 0-5.318-3.803-9.042-9.149-9.042h-7.121v18.079zm4.866-3.905V7.72h2.255c2.605 0 4.204 2.045 4.204 5.131 0 3.08-1.599 5.132-4.204 5.132h-2.255zm24.446 3.904h5.029L148.224 3.81h-5.742l-6.618 18.078h4.889l1.147-3.373h6.776l1.142 3.373zm-6.669-7.047l2.153-6.324 2.125 6.324h-4.278zm19.752.537l6.403-11.568h-5.578l-3.323 7.177-3.352-7.177h-5.583l6.409 11.568v6.51h5.024v-6.51z" fill="#33261C"/></svg>