<svg width="101" height="39" viewBox="0 0 101 39" fill="none" xmlns="http://www.w3.org/2000/svg">
<path d="M70.3589 25.6075C70.4008 25.6075 70.4343 25.5739 70.4343 25.5319V7.37572C70.4343 6.81739 69.9817 6.36401 69.4244 6.36401H66.6293C66.072 6.36401 65.6194 6.81739 65.6194 7.37572V25.5319C65.6194 25.5739 65.6529 25.6075 65.6948 25.6075H70.3589Z" fill="white"/>
<path d="M61.6425 13.6853H62.3884C62.6775 13.6853 62.753 13.6097 62.753 13.32V9.78954C62.753 9.49988 62.6775 9.42432 62.3884 9.42432H61.4497C59.2078 9.42432 57.4268 10.117 56.1571 11.4855C54.879 12.8625 54.2336 14.8397 54.2336 17.3585V28.3026C54.2336 28.5964 54.3049 28.6678 54.5982 28.6678H58.4367C58.7259 28.6678 58.8013 28.5922 58.8013 28.3026V16.6154C58.8013 15.7213 59.0569 15.0034 59.564 14.4787C60.071 13.9539 60.7709 13.6853 61.6425 13.6853Z" fill="white"/>
<path d="M100.003 12.3545C99.4706 11.4309 98.733 10.7047 97.8153 10.1967C96.8892 9.68459 95.8374 9.42432 94.6892 9.42432C92.7993 9.42432 91.2571 9.98684 90.1047 11.0909C88.9523 12.195 88.3447 13.702 88.2944 15.5659V22.7739C88.2944 24.6923 88.8602 26.2498 89.979 27.4042C91.1063 28.5712 92.5478 29.138 94.3749 29.138C96.114 29.138 97.5597 28.6258 98.6744 27.6183C99.789 26.6108 100.426 25.2591 100.573 23.5967C100.589 23.4455 100.564 23.3616 100.539 23.3364C100.51 23.3028 100.418 23.2692 100.246 23.2692H96.3696C96.1978 23.2692 96.0385 23.3028 95.9589 23.6806L95.9421 23.7394C95.5985 24.6797 94.9406 24.877 94.4503 24.877C93.9558 24.877 93.5661 24.7091 93.2853 24.3733C93.0255 24.0626 92.8956 23.6428 92.8956 23.1265V21.334H94.6473C96.4869 21.334 97.9913 20.7966 99.1186 19.7387C100.254 18.6766 100.807 17.3081 100.807 15.5533C100.812 14.3569 100.539 13.2822 100.003 12.3545ZM94.6515 17.4298H92.8998V15.44C92.8998 14.9153 93.0423 14.4913 93.3189 14.1806C93.608 13.8532 94.0187 13.6853 94.5341 13.6853C95.1585 13.6853 96.2061 13.9455 96.2061 15.6751C96.2061 16.7918 95.6404 17.4298 94.6515 17.4298Z" fill="white"/>
<path d="M84.1458 27.5638C85.294 26.5143 85.8514 25.1667 85.8514 23.4414C85.8514 22.3289 85.6041 21.3886 85.118 20.6539C84.6152 19.8941 84.0327 19.298 83.379 18.874C82.6959 18.429 81.8033 17.9588 80.7305 17.4719C79.8128 17.0647 79.1465 16.7204 78.7065 16.414C78.0402 15.9564 77.8977 15.3981 77.8977 15.0077C77.8977 14.6047 78.0402 14.2604 78.3042 14.0127C78.5682 13.7693 78.9244 13.6433 79.3728 13.6433C80.1271 13.6433 80.6551 14.0127 80.8688 14.6802C80.9862 15.1336 81.1789 15.1336 81.2921 15.1336H85.1306C85.2982 15.1336 85.3694 15.1042 85.3862 15.0916C85.4281 15.0119 85.4533 14.8859 85.4533 14.7264C85.4281 13.9708 85.206 13.1648 84.7954 12.3461C84.3889 11.5443 83.7226 10.8475 82.8132 10.2766C81.9039 9.70563 80.7473 9.42017 79.3728 9.42017C77.5793 9.42017 76.0958 9.91553 74.9686 10.8895C73.8413 11.8592 73.2924 13.1564 73.2924 14.8481C73.2924 15.9354 73.5312 16.8548 74.0048 17.5768C74.4909 18.3199 75.065 18.9034 75.7187 19.3148C76.4101 19.7514 77.2901 20.2173 78.3336 20.7001C79.2764 21.1325 79.9553 21.4977 80.4121 21.8168C81.0951 22.2953 81.2376 22.8537 81.2376 23.2399C81.2376 23.6975 81.07 24.0921 80.7347 24.4069C80.4079 24.7176 79.9888 24.8771 79.486 24.8771C78.7945 24.8771 78.4216 24.5706 78.2288 24.3188C77.9983 24.0123 77.8181 23.6093 77.6715 23.0804C77.5793 22.7487 77.4284 22.6815 77.2147 22.6815H73.3762C73.1876 22.6815 73.1331 22.7235 73.1331 22.7235C73.0996 22.7907 73.0493 22.9334 73.0493 23.2063C73.0745 24.1424 73.3385 25.087 73.8413 26.0063C74.3358 26.9173 75.0901 27.6729 76.0749 28.2606C77.0596 28.8484 78.2581 29.1422 79.641 29.1422C81.4932 29.1422 83.006 28.6091 84.1458 27.5638Z" fill="white"/>
<path d="M30.9051 28.672H34.664C34.9531 28.672 35.0285 28.5964 35.0285 28.3068V15.7926C35.0285 13.8742 34.4754 12.3125 33.3817 11.1581C32.2795 9.99104 30.8548 9.42432 29.0277 9.42432C27.6951 9.42432 26.5218 9.82732 25.5328 10.6249L25.2688 10.8348L25.0048 10.6249C24.0158 9.82732 22.8383 9.42432 21.5099 9.42432C19.6828 9.42432 18.2581 9.99104 17.1559 11.1581C16.058 12.3125 15.5049 13.8742 15.5049 15.7926V28.3068C15.5049 28.6006 15.5761 28.672 15.8695 28.672H19.6284C19.9175 28.672 19.9929 28.5964 19.9929 28.3068V15.44C19.9929 14.9237 20.1228 14.5039 20.3827 14.189C20.655 13.8616 21.0448 13.6853 21.5057 13.6853C21.9667 13.6853 22.3564 13.8616 22.6288 14.189C22.8886 14.4997 23.0185 14.9195 23.0185 15.4358V28.3026C23.0185 28.5964 23.0897 28.6678 23.3831 28.6678H27.142C27.4311 28.6678 27.5065 28.5922 27.5065 28.3026V15.44C27.5065 14.9237 27.6364 14.5039 27.8963 14.189C28.1686 13.8574 28.5584 13.6853 29.0193 13.6853C29.4803 13.6853 29.87 13.8616 30.1466 14.189C30.4064 14.4997 30.5363 14.9195 30.5363 15.4358V28.3026C30.5405 28.6006 30.6117 28.672 30.9051 28.672Z" fill="white"/>
<path d="M9.52087 10.1967C8.59476 9.68459 7.54294 9.42432 6.39474 9.42432C4.50481 9.42432 2.9627 9.98684 1.81031 11.0909C0.657912 12.1992 0.0502863 13.7062 0 15.5701V22.7781C0 24.6965 0.565721 26.254 1.68459 27.4084C2.81184 28.5754 4.24919 29.1422 6.08045 29.1422C7.81952 29.1422 9.26525 28.63 10.3799 27.6225C11.4946 26.615 12.1316 25.2632 12.2782 23.6009C12.295 23.4497 12.2699 23.3658 12.2447 23.3406C12.2154 23.307 12.1232 23.2734 11.9514 23.2734H8.07514C7.90333 23.2734 7.74409 23.307 7.66447 23.6848L7.64771 23.7436C7.30408 24.6839 6.64617 24.8812 6.15588 24.8812C5.6614 24.8812 5.27168 24.7133 4.99091 24.3775C4.7311 24.0668 4.60119 23.647 4.60119 23.1265V21.334H6.35283C8.19247 21.334 9.69687 20.7966 10.8241 19.7387C11.9598 18.6766 12.5129 17.3081 12.5129 15.5533C12.5129 14.3527 12.2405 13.2781 11.7083 12.3503C11.1761 11.4309 10.4386 10.7047 9.52087 10.1967ZM6.35283 17.4298H4.60119V15.44C4.60119 14.9153 4.74367 14.4913 5.02025 14.1806C5.30939 13.8532 5.72006 13.6853 6.2355 13.6853C6.85989 13.6853 7.90752 13.9455 7.90752 15.6751C7.91171 16.7917 7.3418 17.4298 6.35283 17.4298Z" fill="white"/>
<path d="M45.6265 29.1421C46.5819 29.1421 47.4745 28.8734 48.2749 28.3487C49.0837 27.8156 49.7416 27.0641 50.2277 26.1154C50.718 25.1583 50.9652 24.0374 50.9652 22.778V15.7926C50.9652 13.8783 50.3869 12.3209 49.2471 11.1664C48.1073 10.012 46.5735 9.42847 44.6878 9.42847C42.8021 9.42847 41.2683 10.012 40.1285 11.1664C38.9887 12.3209 38.4104 13.8783 38.4104 15.7926V36.1485C38.4104 36.4382 38.4858 36.5138 38.775 36.5138H42.6512C42.9404 36.5138 43.0158 36.4382 43.0158 36.1485V28.3739L43.6234 28.6761C44.2394 28.9826 44.9141 29.1421 45.6265 29.1421ZM43.0158 23.1264V15.44C43.0158 14.911 43.1666 14.487 43.4642 14.1722C43.7659 13.8489 44.1766 13.6894 44.6878 13.6894C45.199 13.6894 45.6097 13.8531 45.9114 14.1764C46.209 14.4912 46.3598 14.9194 46.3598 15.4442V23.1306C46.3598 23.6554 46.209 24.0836 45.9114 24.3984C45.6097 24.7217 45.1949 24.8854 44.6878 24.8854C44.1766 24.8854 43.7659 24.7217 43.4642 24.3984C43.1666 24.0836 43.0158 23.6554 43.0158 23.1264Z" fill="white"/>
<path d="M66.2773 4.23575C65.8247 3.76558 65.5942 3.17786 65.5942 2.4726C65.5942 1.77154 65.8205 1.18383 66.2773 0.709457C66.7299 0.239284 67.3165 0 68.0289 0C68.7204 0 69.2987 0.235086 69.7638 0.709457C70.229 1.18383 70.4594 1.76734 70.4594 2.4726C70.4594 3.13168 70.2206 3.70681 69.747 4.20217C69.2693 4.69753 68.6994 4.94101 68.0289 4.94101C67.3124 4.94101 66.7299 4.70592 66.2773 4.23575Z" fill="#F78F2C"/>
<path d="M45.7856 34.7759C45.7856 33.5669 46.7411 32.6392 47.9186 32.6392C49.0962 32.6392 50.0516 33.5669 50.0516 34.7759C50.0516 35.9849 49.0962 36.9127 47.9186 36.9127C46.7411 36.9127 45.7856 35.9849 45.7856 34.7759ZM49.1129 34.7759C49.1129 34.0413 48.5849 33.5543 47.9186 33.5543C47.2523 33.5543 46.7243 34.0413 46.7243 34.7759C46.7243 35.5106 47.2523 35.9975 47.9186 35.9975C48.5849 35.9975 49.1129 35.5106 49.1129 34.7759Z" fill="white"/>
<path d="M53.4041 34.9733V36.6861C53.4041 36.7785 53.3496 36.833 53.2574 36.833H52.6708C52.5786 36.833 52.5241 36.7785 52.5241 36.6861V35.0489C52.5241 34.755 52.3523 34.6249 52.1302 34.6249C51.8662 34.6249 51.7028 34.7718 51.7028 35.1161V36.6819C51.7028 36.7743 51.6483 36.8288 51.5561 36.8288H50.9694C50.8772 36.8288 50.8228 36.7743 50.8228 36.6819V34.0414C50.8228 33.949 50.8772 33.8945 50.9694 33.8945H51.5561C51.6483 33.8945 51.7028 33.949 51.7028 34.0414V34.1631C51.8411 33.9574 52.0883 33.8147 52.4654 33.8147C53.0102 33.8147 53.4041 34.2387 53.4041 34.9733Z" fill="white"/>
<path d="M59.1449 35.3637C59.1449 36.2368 58.5122 36.9127 57.7453 36.9127C57.3514 36.9127 57.0664 36.7784 56.8737 36.5559V36.6818C56.8737 36.7742 56.8192 36.8288 56.727 36.8288H56.1403C56.0481 36.8288 55.9937 36.7742 55.9937 36.6818V32.8701C55.9937 32.7777 56.0481 32.7231 56.1403 32.7231H56.727C56.8192 32.7231 56.8737 32.7777 56.8737 32.8701V34.1714C57.0706 33.9489 57.3556 33.8146 57.7453 33.8146C58.5122 33.8146 59.1449 34.4905 59.1449 35.3637ZM58.2691 35.3637C58.2691 34.9229 57.9758 34.6458 57.5735 34.6458C57.1712 34.6458 56.8779 34.9229 56.8779 35.3637C56.8779 35.8045 57.1712 36.0815 57.5735 36.0815C57.9758 36.0815 58.2691 35.8045 58.2691 35.3637Z" fill="white"/>
<path d="M61.5629 33.9908V34.6834C61.5629 34.7758 61.5209 34.8262 61.4455 34.8262C61.1187 34.8136 60.8002 34.9773 60.8002 35.4475V36.6859C60.8002 36.7782 60.7457 36.8328 60.6535 36.8328H60.0668C59.9746 36.8328 59.9202 36.7782 59.9202 36.6859V34.0454C59.9202 33.953 59.9746 33.8984 60.0668 33.8984H60.6535C60.7457 33.8984 60.8002 33.9488 60.8002 34.0454V34.3644C60.8882 34.0705 61.1187 33.8984 61.4078 33.8523C61.5126 33.8313 61.5629 33.8984 61.5629 33.9908Z" fill="white"/>
<path d="M64.5969 34.9817V36.6819C64.5969 36.7743 64.5425 36.8288 64.4503 36.8288H63.8888C63.7966 36.8288 63.7421 36.7743 63.7421 36.6819V36.5979C63.587 36.7827 63.3566 36.9086 62.9878 36.9086C62.4724 36.9086 62.0198 36.6021 62.0198 35.9934C62.0198 35.3847 62.4724 35.0783 62.9878 35.0783C63.3566 35.0783 63.587 35.1832 63.7421 35.3008V35.0363C63.7421 34.7466 63.6247 34.6207 63.3775 34.6207C63.1973 34.6207 63.0842 34.6921 63.0381 34.7928C63.0045 34.8768 62.9752 34.923 62.8872 34.923H62.3131C62.2209 34.923 62.1623 34.8726 62.1664 34.7718C62.2419 34.1379 62.7825 33.8147 63.3775 33.8147C64.0228 33.8147 64.5969 34.1925 64.5969 34.9817ZM63.7421 35.9976C63.7421 35.8171 63.5828 35.7038 63.2979 35.7038C63.0297 35.7038 62.8998 35.8255 62.8998 35.9976C62.8998 36.1698 63.0297 36.2915 63.2979 36.2915C63.5828 36.2915 63.7421 36.1698 63.7421 35.9976Z" fill="white"/>
<path d="M68.0206 34.9733V36.6861C68.0206 36.7785 67.9661 36.833 67.8739 36.833H67.2872C67.195 36.833 67.1406 36.7785 67.1406 36.6861V35.0489C67.1406 34.755 66.9687 34.6249 66.7467 34.6249C66.4826 34.6249 66.3192 34.7718 66.3192 35.1161V36.6819C66.3192 36.7743 66.2647 36.8288 66.1726 36.8288H65.5859C65.4937 36.8288 65.4392 36.7743 65.4392 36.6819V34.0414C65.4392 33.949 65.4937 33.8945 65.5859 33.8945H66.1726C66.2647 33.8945 66.3192 33.949 66.3192 34.0414V34.1631C66.4575 33.9574 66.7047 33.8147 67.0819 33.8147C67.6309 33.8147 68.0206 34.2387 68.0206 34.9733Z" fill="white"/>
<path d="M71.8759 32.8701V36.6818C71.8759 36.7742 71.8214 36.8288 71.7292 36.8288H71.1425C71.0504 36.8288 70.9959 36.7742 70.9959 36.6818V36.5559C70.7989 36.7784 70.514 36.9127 70.1242 36.9127C69.3574 36.9127 68.7246 36.2368 68.7246 35.3637C68.7246 34.4905 69.3574 33.8146 70.1242 33.8146C70.5182 33.8146 70.8031 33.9489 70.9959 34.1714V32.8701C70.9959 32.7777 71.0462 32.7231 71.1425 32.7231H71.7292C71.8214 32.7231 71.8759 32.7777 71.8759 32.8701ZM70.9959 35.3637C70.9959 34.9229 70.7025 34.6458 70.3002 34.6458C69.898 34.6458 69.6046 34.9229 69.6046 35.3637C69.6046 35.8045 69.898 36.0815 70.3002 36.0815C70.7025 36.0815 70.9959 35.8045 70.9959 35.3637Z" fill="white"/>
<path d="M72.8271 36.686V36.0395C72.8271 35.9472 72.8816 35.8926 72.9738 35.8926H73.6192C73.7113 35.8926 73.7658 35.9472 73.7658 36.0395V36.686C73.7658 36.7783 73.7113 36.8329 73.6192 36.8329H72.9738C72.8816 36.8329 72.8271 36.7783 72.8271 36.686Z" fill="white"/>
<path d="M76.3179 34.7759C76.3179 33.5669 77.2733 32.6392 78.4509 32.6392C79.6284 32.6392 80.5838 33.5669 80.5838 34.7759C80.5838 35.9849 79.6284 36.9127 78.4509 36.9127C77.2733 36.9127 76.3179 35.9849 76.3179 34.7759ZM79.6451 34.7759C79.6451 34.0413 79.1171 33.5543 78.4509 33.5543C77.7846 33.5543 77.2566 34.0413 77.2566 34.7759C77.2566 35.5106 77.7846 35.9975 78.4509 35.9975C79.1171 35.9975 79.6451 35.5106 79.6451 34.7759Z" fill="white"/>
<path d="M83.9361 34.9733V36.6861C83.9361 36.7785 83.8816 36.833 83.7894 36.833H83.2028C83.1106 36.833 83.0561 36.7785 83.0561 36.6861V35.0489C83.0561 34.755 82.8843 34.6249 82.6622 34.6249C82.3982 34.6249 82.2347 34.7718 82.2347 35.1161V36.6819C82.2347 36.7743 82.1803 36.8288 82.0881 36.8288H81.5014C81.4092 36.8288 81.3547 36.7743 81.3547 36.6819V34.0414C81.3547 33.949 81.4092 33.8945 81.5014 33.8945H82.0881C82.1803 33.8945 82.2347 33.949 82.2347 34.0414V34.1631C82.373 33.9574 82.6203 33.8147 82.9974 33.8147C83.5422 33.8147 83.9361 34.2387 83.9361 34.9733Z" fill="white"/>
<path d="M89.6772 35.3637C89.6772 36.2369 89.0444 36.9128 88.2775 36.9128C87.8836 36.9128 87.5987 36.7785 87.4059 36.556V37.8573C87.4059 37.9497 87.3514 38.0043 87.2592 38.0043H86.6725C86.5804 38.0043 86.5259 37.9539 86.5259 37.8573V34.0456C86.5259 33.9532 86.5804 33.8987 86.6725 33.8987H87.2592C87.3514 33.8987 87.4059 33.9532 87.4059 34.0456V34.1715C87.6028 33.949 87.8878 33.8147 88.2775 33.8147C89.0444 33.8147 89.6772 34.4906 89.6772 35.3637ZM88.8013 35.3637C88.8013 34.923 88.508 34.6459 88.1057 34.6459C87.7034 34.6459 87.4101 34.923 87.4101 35.3637C87.4101 35.8045 87.7034 36.0816 88.1057 36.0816C88.508 36.0816 88.8013 35.8045 88.8013 35.3637Z" fill="white"/>
<path d="M90.3101 35.3637C90.3101 34.4906 91.0015 33.8147 91.8606 33.8147C92.7196 33.8147 93.411 34.4906 93.411 35.3637C93.411 36.2369 92.7196 36.9128 91.8606 36.9128C91.0015 36.9128 90.3101 36.2369 90.3101 35.3637ZM92.5352 35.3637C92.5352 34.9481 92.2419 34.6711 91.8606 34.6711C91.4792 34.6711 91.1859 34.9481 91.1859 35.3637C91.1859 35.7793 91.4792 36.0564 91.8606 36.0564C92.2419 36.0564 92.5352 35.7793 92.5352 35.3637Z" fill="white"/>
<path d="M94.1904 33.399V32.8701C94.1904 32.7777 94.2449 32.7231 94.3371 32.7231H94.9238C95.016 32.7231 95.0704 32.7777 95.0704 32.8701V33.399C95.0704 33.4914 95.016 33.5459 94.9238 33.5459H94.3371C94.2449 33.5459 94.1904 33.4914 94.1904 33.399ZM94.1904 36.686V34.0455C94.1904 33.9531 94.2449 33.8986 94.3371 33.8986H94.9238C95.016 33.8986 95.0704 33.9531 95.0704 34.0455V36.686C95.0704 36.7784 95.016 36.833 94.9238 36.833H94.3371C94.2449 36.833 94.1904 36.7784 94.1904 36.686Z" fill="white"/>
<path d="M98.5694 34.9733V36.6861C98.5694 36.7785 98.5149 36.833 98.4227 36.833H97.8361C97.7439 36.833 97.6894 36.7785 97.6894 36.6861V35.0489C97.6894 34.755 97.5176 34.6249 97.2955 34.6249C97.0315 34.6249 96.868 34.7718 96.868 35.1161V36.6819C96.868 36.7743 96.8136 36.8288 96.7214 36.8288H96.1347C96.0425 36.8288 95.988 36.7743 95.988 36.6819V34.0414C95.988 33.949 96.0425 33.8945 96.1347 33.8945H96.7214C96.8136 33.8945 96.868 33.949 96.868 34.0414V34.1631C97.0063 33.9574 97.2536 33.8147 97.6307 33.8147C98.1797 33.8147 98.5694 34.2387 98.5694 34.9733Z" fill="white"/>
<path d="M101 34.0455V34.5955C101 34.6878 100.946 34.7424 100.853 34.7424H100.531V36.686C100.531 36.7784 100.476 36.833 100.384 36.833H99.7974C99.7052 36.833 99.6507 36.7784 99.6507 36.686V34.7424H99.3281C99.2359 34.7424 99.1814 34.6878 99.1814 34.5955V34.0455C99.1814 33.9532 99.2317 33.8986 99.3281 33.8986H99.6507V33.1052C99.6507 33.0128 99.7052 32.9583 99.7974 32.9583H100.384C100.476 32.9583 100.531 33.0128 100.531 33.1052V33.8986H100.853C100.946 33.8986 101 33.949 101 34.0455Z" fill="white"/>
</svg>
