<svg width="101" height="39" viewBox="0 0 101 39" fill="none" xmlns="http://www.w3.org/2000/svg">
<path d="M70.3589 25.6077C70.4008 25.6077 70.4343 25.5742 70.4343 25.5322V7.37597C70.4343 6.81764 69.9817 6.36426 69.4244 6.36426H66.6293C66.072 6.36426 65.6194 6.81764 65.6194 7.37597V25.5322C65.6194 25.5742 65.6529 25.6077 65.6948 25.6077H70.3589Z" fill="#373737"/>
<path d="M61.6425 13.6857H62.3884C62.6776 13.6857 62.753 13.6102 62.753 13.3205V9.79003C62.753 9.50037 62.6776 9.4248 62.3884 9.4248H61.4497C59.2078 9.4248 57.4268 10.1175 56.1571 11.486C54.879 12.8629 54.2336 14.8402 54.2336 17.359V28.3031C54.2336 28.5969 54.3049 28.6683 54.5982 28.6683H58.4367C58.7259 28.6683 58.8013 28.5927 58.8013 28.3031V16.6159C58.8013 15.7218 59.0569 15.0039 59.564 14.4792C60.071 13.9544 60.7709 13.6857 61.6425 13.6857Z" fill="#373737"/>
<path d="M100.003 12.355C99.4706 11.4314 98.733 10.7052 97.8153 10.1972C96.8892 9.68508 95.8374 9.4248 94.6892 9.4248C92.7993 9.4248 91.2571 9.98733 90.1047 11.0914C88.9523 12.1955 88.3447 13.7025 88.2944 15.5664V22.7743C88.2944 24.6928 88.8602 26.2503 89.979 27.4047C91.1063 28.5717 92.5478 29.1385 94.3749 29.1385C96.114 29.1385 97.5597 28.6263 98.6744 27.6188C99.789 26.6113 100.426 25.2595 100.573 23.5971C100.589 23.446 100.564 23.3621 100.539 23.3369C100.51 23.3033 100.418 23.2697 100.246 23.2697H96.3696C96.1978 23.2697 96.0385 23.3033 95.9589 23.6811L95.9421 23.7399C95.5985 24.6802 94.9406 24.8775 94.4503 24.8775C93.9558 24.8775 93.5661 24.7096 93.2853 24.3738C93.0255 24.0631 92.8956 23.6433 92.8956 23.127V21.3344H94.6473C96.4869 21.3344 97.9913 20.7971 99.1186 19.7392C100.254 18.6771 100.807 17.3086 100.807 15.5538C100.812 14.3574 100.539 13.2827 100.003 12.355ZM94.6515 17.4303H92.8998V15.4405C92.8998 14.9157 93.0423 14.4918 93.3189 14.1811C93.608 13.8537 94.0187 13.6857 94.5341 13.6857C95.1585 13.6857 96.2061 13.946 96.2061 15.6756C96.2061 16.7922 95.6404 17.4303 94.6515 17.4303Z" fill="#373737"/>
<path d="M84.1458 27.564C85.294 26.5145 85.8514 25.167 85.8514 23.4416C85.8514 22.3292 85.6041 21.3888 85.118 20.6542C84.6152 19.8943 84.0327 19.2982 83.379 18.8742C82.6959 18.4292 81.8033 17.9591 80.7305 17.4721C79.8128 17.0649 79.1465 16.7207 78.7065 16.4142C78.0402 15.9566 77.8977 15.3983 77.8977 15.0079C77.8977 14.6049 78.0402 14.2607 78.3042 14.013C78.5682 13.7695 78.9244 13.6436 79.3728 13.6436C80.1271 13.6436 80.6551 14.013 80.8688 14.6805C80.9862 15.1338 81.1789 15.1338 81.2921 15.1338H85.1306C85.2982 15.1338 85.3694 15.1045 85.3862 15.0919C85.4281 15.0121 85.4533 14.8862 85.4533 14.7266C85.4281 13.971 85.206 13.165 84.7954 12.3464C84.3889 11.5446 83.7226 10.8477 82.8132 10.2768C81.9039 9.70587 80.7473 9.42041 79.3728 9.42041C77.5793 9.42041 76.0958 9.91577 74.9686 10.8897C73.8413 11.8594 73.2924 13.1566 73.2924 14.8484C73.2924 15.9357 73.5312 16.855 74.0048 17.5771C74.4909 18.3201 75.065 18.9036 75.7187 19.315C76.4101 19.7516 77.2901 20.2176 78.3336 20.7003C79.2764 21.1327 79.9553 21.498 80.4121 21.817C81.0951 22.2956 81.2376 22.8539 81.2376 23.2401C81.2376 23.6977 81.07 24.0923 80.7347 24.4072C80.4079 24.7178 79.9888 24.8773 79.486 24.8773C78.7945 24.8773 78.4216 24.5709 78.2288 24.319C77.9983 24.0125 77.8181 23.6095 77.6715 23.0806C77.5793 22.749 77.4284 22.6818 77.2147 22.6818H73.3762C73.1876 22.6818 73.1331 22.7238 73.1331 22.7238C73.0996 22.7909 73.0493 22.9337 73.0493 23.2065C73.0745 24.1427 73.3385 25.0872 73.8413 26.0066C74.3358 26.9175 75.0901 27.6732 76.0749 28.2609C77.0596 28.8486 78.2581 29.1425 79.641 29.1425C81.4932 29.1425 83.006 28.6093 84.1458 27.564Z" fill="#373737"/>
<path d="M30.9051 28.6725H34.664C34.9531 28.6725 35.0285 28.5969 35.0285 28.3073V15.7931C35.0285 13.8747 34.4754 12.313 33.3817 11.1586C32.2795 9.99153 30.8548 9.4248 29.0277 9.4248C27.6951 9.4248 26.5218 9.82781 25.5328 10.6254L25.2688 10.8353L25.0048 10.6254C24.0158 9.82781 22.8383 9.4248 21.5099 9.4248C19.6828 9.4248 18.2581 9.99153 17.1559 11.1586C16.058 12.313 15.5049 13.8747 15.5049 15.7931V28.3073C15.5049 28.6011 15.5761 28.6725 15.8695 28.6725H19.6284C19.9175 28.6725 19.9929 28.5969 19.9929 28.3073V15.4405C19.9929 14.9241 20.1228 14.5043 20.3827 14.1895C20.655 13.8621 21.0448 13.6857 21.5057 13.6857C21.9667 13.6857 22.3564 13.8621 22.6288 14.1895C22.8886 14.5001 23.0185 14.9199 23.0185 15.4363V28.3031C23.0185 28.5969 23.0897 28.6683 23.3831 28.6683H27.142C27.4311 28.6683 27.5065 28.5927 27.5065 28.3031V15.4405C27.5065 14.9241 27.6364 14.5043 27.8963 14.1895C28.1686 13.8579 28.5584 13.6857 29.0193 13.6857C29.4803 13.6857 29.87 13.8621 30.1466 14.1895C30.4064 14.5001 30.5363 14.9199 30.5363 15.4363V28.3031C30.5405 28.6011 30.6117 28.6725 30.9051 28.6725Z" fill="#373737"/>
<path d="M9.52087 10.1972C8.59476 9.68508 7.54294 9.4248 6.39474 9.4248C4.50481 9.4248 2.9627 9.98733 1.81031 11.0914C0.657912 12.1997 0.0502863 13.7067 0 15.5706V22.7785C0 24.697 0.565721 26.2545 1.68459 27.4089C2.81184 28.5759 4.24919 29.1427 6.08045 29.1427C7.81952 29.1427 9.26525 28.6305 10.3799 27.623C11.4946 26.6155 12.1316 25.2637 12.2782 23.6013C12.295 23.4502 12.2699 23.3663 12.2447 23.3411C12.2154 23.3075 12.1232 23.2739 11.9514 23.2739H8.07514C7.90333 23.2739 7.74409 23.3075 7.66447 23.6853L7.64771 23.7441C7.30408 24.6844 6.64617 24.8817 6.15588 24.8817C5.6614 24.8817 5.27168 24.7138 4.99091 24.378C4.7311 24.0673 4.60119 23.6475 4.60119 23.127V21.3344H6.35283C8.19247 21.3344 9.69687 20.7971 10.8241 19.7392C11.9598 18.6771 12.5129 17.3086 12.5129 15.5538C12.5129 14.3532 12.2405 13.2785 11.7083 12.3508C11.1761 11.4314 10.4386 10.7052 9.52087 10.1972ZM6.35283 17.4303H4.60119V15.4405C4.60119 14.9157 4.74367 14.4918 5.02025 14.1811C5.30939 13.8537 5.72006 13.6857 6.2355 13.6857C6.85989 13.6857 7.90752 13.946 7.90752 15.6756C7.91171 16.7922 7.3418 17.4303 6.35283 17.4303Z" fill="#373737"/>
<path d="M45.6265 29.1424C46.5819 29.1424 47.4745 28.8737 48.2749 28.3489C49.0837 27.8158 49.7416 27.0644 50.2277 26.1156C50.718 25.1585 50.9652 24.0376 50.9652 22.7782V15.7928C50.9652 13.8786 50.3869 12.3211 49.2471 11.1667C48.1073 10.0122 46.5735 9.42871 44.6878 9.42871C42.8021 9.42871 41.2683 10.0122 40.1285 11.1667C38.9887 12.3211 38.4104 13.8786 38.4104 15.7928V36.1488C38.4104 36.4384 38.4858 36.514 38.775 36.514H42.6512C42.9404 36.514 43.0158 36.4384 43.0158 36.1488V28.3741L43.6234 28.6764C44.2394 28.9828 44.9141 29.1424 45.6265 29.1424ZM43.0158 23.1267V15.4402C43.0158 14.9113 43.1666 14.4873 43.4642 14.1724C43.7659 13.8492 44.1766 13.6896 44.6878 13.6896C45.199 13.6896 45.6097 13.8534 45.9114 14.1766C46.209 14.4915 46.3598 14.9197 46.3598 15.4444V23.1309C46.3598 23.6556 46.209 24.0838 45.9114 24.3987C45.6097 24.7219 45.1949 24.8856 44.6878 24.8856C44.1766 24.8856 43.7659 24.7219 43.4642 24.3987C43.1666 24.0838 43.0158 23.6556 43.0158 23.1267Z" fill="#373737"/>
<path d="M66.2773 4.23575C65.8247 3.76558 65.5942 3.17786 65.5942 2.4726C65.5942 1.77154 65.8205 1.18383 66.2773 0.709457C66.7299 0.239284 67.3165 0 68.0289 0C68.7204 0 69.2987 0.235086 69.7638 0.709457C70.229 1.18383 70.4594 1.76734 70.4594 2.4726C70.4594 3.13168 70.2206 3.70681 69.747 4.20217C69.2693 4.69753 68.6994 4.94101 68.0289 4.94101C67.3124 4.94101 66.7299 4.70592 66.2773 4.23575Z" fill="#F78F2C"/>
<path d="M45.7856 34.7759C45.7856 33.5669 46.7411 32.6392 47.9186 32.6392C49.0962 32.6392 50.0516 33.5669 50.0516 34.7759C50.0516 35.9849 49.0962 36.9127 47.9186 36.9127C46.7411 36.9127 45.7856 35.9849 45.7856 34.7759ZM49.1129 34.7759C49.1129 34.0413 48.5849 33.5543 47.9186 33.5543C47.2523 33.5543 46.7243 34.0413 46.7243 34.7759C46.7243 35.5106 47.2523 35.9975 47.9186 35.9975C48.5849 35.9975 49.1129 35.5106 49.1129 34.7759Z" fill="#373737"/>
<path d="M53.4041 34.9731V36.6859C53.4041 36.7782 53.3496 36.8328 53.2574 36.8328H52.6708C52.5786 36.8328 52.5241 36.7782 52.5241 36.6859V35.0487C52.5241 34.7548 52.3523 34.6247 52.1302 34.6247C51.8662 34.6247 51.7028 34.7716 51.7028 35.1158V36.6817C51.7028 36.774 51.6483 36.8286 51.5561 36.8286H50.9694C50.8772 36.8286 50.8228 36.774 50.8228 36.6817V34.0411C50.8228 33.9488 50.8772 33.8942 50.9694 33.8942H51.5561C51.6483 33.8942 51.7028 33.9488 51.7028 34.0411V34.1629C51.8411 33.9572 52.0883 33.8145 52.4654 33.8145C53.0102 33.8145 53.4041 34.2384 53.4041 34.9731Z" fill="#373737"/>
<path d="M59.1449 35.3637C59.1449 36.2368 58.5122 36.9127 57.7453 36.9127C57.3514 36.9127 57.0664 36.7784 56.8737 36.5559V36.6818C56.8737 36.7742 56.8192 36.8288 56.727 36.8288H56.1403C56.0481 36.8288 55.9937 36.7742 55.9937 36.6818V32.8701C55.9937 32.7777 56.0481 32.7231 56.1403 32.7231H56.727C56.8192 32.7231 56.8737 32.7777 56.8737 32.8701V34.1714C57.0706 33.9489 57.3556 33.8146 57.7453 33.8146C58.5122 33.8146 59.1449 34.4905 59.1449 35.3637ZM58.2691 35.3637C58.2691 34.9229 57.9758 34.6458 57.5735 34.6458C57.1712 34.6458 56.8779 34.9229 56.8779 35.3637C56.8779 35.8045 57.1712 36.0815 57.5735 36.0815C57.9758 36.0815 58.2691 35.8045 58.2691 35.3637Z" fill="#373737"/>
<path d="M61.5629 33.991V34.6837C61.5629 34.776 61.5209 34.8264 61.4455 34.8264C61.1187 34.8138 60.8002 34.9776 60.8002 35.4477V36.6861C60.8002 36.7785 60.7457 36.8331 60.6535 36.8331H60.0668C59.9746 36.8331 59.9202 36.7785 59.9202 36.6861V34.0456C59.9202 33.9532 59.9746 33.8987 60.0668 33.8987H60.6535C60.7457 33.8987 60.8002 33.949 60.8002 34.0456V34.3646C60.8882 34.0708 61.1187 33.8987 61.4078 33.8525C61.5126 33.8315 61.5629 33.8987 61.5629 33.991Z" fill="#373737"/>
<path d="M64.5969 34.9815V36.6817C64.5969 36.774 64.5425 36.8286 64.4503 36.8286H63.8888C63.7966 36.8286 63.7421 36.774 63.7421 36.6817V36.5977C63.587 36.7824 63.3566 36.9084 62.9878 36.9084C62.4724 36.9084 62.0198 36.6019 62.0198 35.9932C62.0198 35.3845 62.4724 35.078 62.9878 35.078C63.3566 35.078 63.587 35.183 63.7421 35.3005V35.0361C63.7421 34.7464 63.6247 34.6205 63.3775 34.6205C63.1973 34.6205 63.0842 34.6918 63.0381 34.7926C63.0045 34.8765 62.9752 34.9227 62.8872 34.9227H62.3131C62.2209 34.9227 62.1623 34.8723 62.1664 34.7716C62.2419 34.1377 62.7825 33.8145 63.3775 33.8145C64.0228 33.8145 64.5969 34.1923 64.5969 34.9815ZM63.7421 35.9974C63.7421 35.8169 63.5828 35.7035 63.2979 35.7035C63.0297 35.7035 62.8998 35.8253 62.8998 35.9974C62.8998 36.1695 63.0297 36.2913 63.2979 36.2913C63.5828 36.2913 63.7421 36.1695 63.7421 35.9974Z" fill="#373737"/>
<path d="M68.0206 34.9731V36.6859C68.0206 36.7782 67.9661 36.8328 67.8739 36.8328H67.2872C67.195 36.8328 67.1406 36.7782 67.1406 36.6859V35.0487C67.1406 34.7548 66.9687 34.6247 66.7467 34.6247C66.4826 34.6247 66.3192 34.7716 66.3192 35.1158V36.6817C66.3192 36.774 66.2647 36.8286 66.1726 36.8286H65.5859C65.4937 36.8286 65.4392 36.774 65.4392 36.6817V34.0411C65.4392 33.9488 65.4937 33.8942 65.5859 33.8942H66.1726C66.2647 33.8942 66.3192 33.9488 66.3192 34.0411V34.1629C66.4575 33.9572 66.7047 33.8145 67.0819 33.8145C67.6309 33.8145 68.0206 34.2384 68.0206 34.9731Z" fill="#373737"/>
<path d="M71.8759 32.8701V36.6818C71.8759 36.7742 71.8214 36.8288 71.7292 36.8288H71.1425C71.0504 36.8288 70.9959 36.7742 70.9959 36.6818V36.5559C70.7989 36.7784 70.514 36.9127 70.1242 36.9127C69.3574 36.9127 68.7246 36.2368 68.7246 35.3637C68.7246 34.4905 69.3574 33.8146 70.1242 33.8146C70.5182 33.8146 70.8031 33.9489 70.9959 34.1714V32.8701C70.9959 32.7777 71.0462 32.7231 71.1425 32.7231H71.7292C71.8214 32.7231 71.8759 32.7777 71.8759 32.8701ZM70.9959 35.3637C70.9959 34.9229 70.7025 34.6458 70.3002 34.6458C69.898 34.6458 69.6046 34.9229 69.6046 35.3637C69.6046 35.8045 69.898 36.0815 70.3002 36.0815C70.7025 36.0815 70.9959 35.8045 70.9959 35.3637Z" fill="#373737"/>
<path d="M72.8271 36.686V36.0395C72.8271 35.9472 72.8816 35.8926 72.9738 35.8926H73.6192C73.7113 35.8926 73.7658 35.9472 73.7658 36.0395V36.686C73.7658 36.7783 73.7113 36.8329 73.6192 36.8329H72.9738C72.8816 36.8329 72.8271 36.7783 72.8271 36.686Z" fill="#373737"/>
<path d="M76.3179 34.7759C76.3179 33.5669 77.2733 32.6392 78.4509 32.6392C79.6284 32.6392 80.5838 33.5669 80.5838 34.7759C80.5838 35.9849 79.6284 36.9127 78.4509 36.9127C77.2733 36.9127 76.3179 35.9849 76.3179 34.7759ZM79.6451 34.7759C79.6451 34.0413 79.1171 33.5543 78.4509 33.5543C77.7846 33.5543 77.2566 34.0413 77.2566 34.7759C77.2566 35.5106 77.7846 35.9975 78.4509 35.9975C79.1171 35.9975 79.6451 35.5106 79.6451 34.7759Z" fill="#373737"/>
<path d="M83.9361 34.9731V36.6859C83.9361 36.7782 83.8816 36.8328 83.7894 36.8328H83.2028C83.1106 36.8328 83.0561 36.7782 83.0561 36.6859V35.0487C83.0561 34.7548 82.8843 34.6247 82.6622 34.6247C82.3982 34.6247 82.2347 34.7716 82.2347 35.1158V36.6817C82.2347 36.774 82.1803 36.8286 82.0881 36.8286H81.5014C81.4092 36.8286 81.3547 36.774 81.3547 36.6817V34.0411C81.3547 33.9488 81.4092 33.8942 81.5014 33.8942H82.0881C82.1803 33.8942 82.2347 33.9488 82.2347 34.0411V34.1629C82.373 33.9572 82.6203 33.8145 82.9974 33.8145C83.5422 33.8145 83.9361 34.2384 83.9361 34.9731Z" fill="#373737"/>
<path d="M89.6772 35.3635C89.6772 36.2367 89.0444 36.9126 88.2775 36.9126C87.8836 36.9126 87.5987 36.7782 87.4059 36.5557V37.8571C87.4059 37.9495 87.3514 38.004 87.2592 38.004H86.6725C86.5804 38.004 86.5259 37.9536 86.5259 37.8571V34.0453C86.5259 33.953 86.5804 33.8984 86.6725 33.8984H87.2592C87.3514 33.8984 87.4059 33.953 87.4059 34.0453V34.1713C87.6028 33.9488 87.8878 33.8145 88.2775 33.8145C89.0444 33.8145 89.6772 34.4903 89.6772 35.3635ZM88.8013 35.3635C88.8013 34.9227 88.508 34.6456 88.1057 34.6456C87.7034 34.6456 87.4101 34.9227 87.4101 35.3635C87.4101 35.8043 87.7034 36.0814 88.1057 36.0814C88.508 36.0814 88.8013 35.8043 88.8013 35.3635Z" fill="#373737"/>
<path d="M90.3101 35.3635C90.3101 34.4903 91.0015 33.8145 91.8606 33.8145C92.7196 33.8145 93.411 34.4903 93.411 35.3635C93.411 36.2367 92.7196 36.9126 91.8606 36.9126C91.0015 36.9126 90.3101 36.2367 90.3101 35.3635ZM92.5352 35.3635C92.5352 34.9479 92.2419 34.6708 91.8606 34.6708C91.4792 34.6708 91.1859 34.9479 91.1859 35.3635C91.1859 35.7791 91.4792 36.0562 91.8606 36.0562C92.2419 36.0562 92.5352 35.7791 92.5352 35.3635Z" fill="#373737"/>
<path d="M94.1904 33.399V32.8701C94.1904 32.7777 94.2449 32.7231 94.3371 32.7231H94.9238C95.016 32.7231 95.0704 32.7777 95.0704 32.8701V33.399C95.0704 33.4914 95.016 33.5459 94.9238 33.5459H94.3371C94.2449 33.5459 94.1904 33.4914 94.1904 33.399ZM94.1904 36.686V34.0455C94.1904 33.9531 94.2449 33.8986 94.3371 33.8986H94.9238C95.016 33.8986 95.0704 33.9531 95.0704 34.0455V36.686C95.0704 36.7784 95.016 36.833 94.9238 36.833H94.3371C94.2449 36.833 94.1904 36.7784 94.1904 36.686Z" fill="#373737"/>
<path d="M98.5694 34.9731V36.6859C98.5694 36.7782 98.5149 36.8328 98.4227 36.8328H97.8361C97.7439 36.8328 97.6894 36.7782 97.6894 36.6859V35.0487C97.6894 34.7548 97.5176 34.6247 97.2955 34.6247C97.0315 34.6247 96.868 34.7716 96.868 35.1158V36.6817C96.868 36.774 96.8136 36.8286 96.7214 36.8286H96.1347C96.0425 36.8286 95.988 36.774 95.988 36.6817V34.0411C95.988 33.9488 96.0425 33.8942 96.1347 33.8942H96.7214C96.8136 33.8942 96.868 33.9488 96.868 34.0411V34.1629C97.0063 33.9572 97.2536 33.8145 97.6307 33.8145C98.1797 33.8145 98.5694 34.2384 98.5694 34.9731Z" fill="#373737"/>
<path d="M101 34.0453V34.5952C101 34.6876 100.946 34.7421 100.853 34.7421H100.531V36.6858C100.531 36.7782 100.476 36.8327 100.384 36.8327H99.7974C99.7052 36.8327 99.6507 36.7782 99.6507 36.6858V34.7421H99.3281C99.2359 34.7421 99.1814 34.6876 99.1814 34.5952V34.0453C99.1814 33.9529 99.2317 33.8984 99.3281 33.8984H99.6507V33.1049C99.6507 33.0126 99.7052 32.958 99.7974 32.958H100.384C100.476 32.958 100.531 33.0126 100.531 33.1049V33.8984H100.853C100.946 33.8984 101 33.9487 101 34.0453Z" fill="#373737"/>
</svg>
