<svg width="852" height="321" viewBox="0 0 852 321" fill="none" xmlns="http://www.w3.org/2000/svg">
<path d="M593.525 216.019C593.878 216.019 594.161 215.736 594.161 215.382V62.2222C594.161 57.5123 590.343 53.6877 585.642 53.6877H562.063C557.362 53.6877 553.544 57.5123 553.544 62.2222V215.382C553.544 215.736 553.827 216.019 554.18 216.019H593.525Z" fill="#ED6914" fill-opacity="0.6"/>
<path d="M519.997 115.45H526.289C528.728 115.45 529.364 114.812 529.364 112.369V82.5868C529.364 80.1433 528.728 79.5059 526.289 79.5059H518.37C499.458 79.5059 484.435 85.3489 473.724 96.8934C462.942 108.509 457.498 125.188 457.498 146.436V238.756C457.498 241.235 458.099 241.837 460.573 241.837H492.954C495.393 241.837 496.029 241.2 496.029 238.756V140.168C496.029 132.625 498.186 126.569 502.463 122.143C506.74 117.716 512.644 115.45 519.997 115.45Z" fill="#ED6914" fill-opacity="0.6"/>
<path d="M843.589 104.224C839.099 96.4333 832.878 90.3069 825.136 86.022C817.324 81.7017 808.451 79.5061 798.765 79.5061C782.822 79.5061 769.814 84.2514 760.092 93.5649C750.371 102.878 745.245 115.592 744.821 131.315V192.118C744.821 208.302 749.594 221.44 759.032 231.178C768.541 241.023 780.701 245.804 796.114 245.804C810.784 245.804 822.98 241.483 832.383 232.984C841.786 224.485 847.159 213.082 848.396 199.059C848.538 197.784 848.325 197.076 848.113 196.863C847.866 196.58 847.088 196.297 845.639 196.297H812.94C811.491 196.297 810.148 196.58 809.476 199.767L809.335 200.263C806.436 208.195 800.886 209.86 796.75 209.86C792.579 209.86 789.291 208.443 786.923 205.61C784.731 202.99 783.635 199.449 783.635 195.093V179.972H798.412C813.93 179.972 826.621 175.439 836.13 166.515C845.71 157.555 850.376 146.011 850.376 131.208C850.411 121.116 848.113 112.05 843.589 104.224ZM798.447 147.038H783.671V130.252C783.671 125.826 784.873 122.249 787.206 119.629C789.645 116.866 793.109 115.45 797.457 115.45C802.724 115.45 811.562 117.645 811.562 132.235C811.562 141.655 806.789 147.038 798.447 147.038Z" fill="#ED6914" fill-opacity="0.6"/>
<path d="M709.824 232.522C719.51 223.669 724.211 212.302 724.211 197.747C724.211 188.363 722.126 180.43 718.025 174.233C713.783 167.823 708.87 162.795 703.355 159.218C697.593 155.464 690.063 151.498 681.014 147.39C673.272 143.955 667.652 141.051 663.94 138.466C658.319 134.606 657.117 129.897 657.117 126.603C657.117 123.204 658.319 120.3 660.546 118.21C662.773 116.156 665.778 115.094 669.561 115.094C675.924 115.094 680.378 118.21 682.18 123.841C683.17 127.666 684.796 127.666 685.751 127.666H718.131C719.545 127.666 720.146 127.418 720.288 127.311C720.641 126.639 720.853 125.576 720.853 124.23C720.641 117.856 718.768 111.057 715.303 104.152C711.874 97.3878 706.254 91.5093 698.583 86.6932C690.912 81.877 681.155 79.469 669.561 79.469C654.431 79.469 641.917 83.6477 632.408 91.8634C622.899 100.044 618.268 110.986 618.268 125.257C618.268 134.429 620.283 142.185 624.278 148.276C628.378 154.544 633.221 159.466 638.736 162.936C644.568 166.619 651.992 170.55 660.794 174.623C668.748 178.27 674.474 181.351 678.327 184.042C684.089 188.079 685.291 192.789 685.291 196.047C685.291 199.907 683.877 203.236 681.049 205.892C678.292 208.512 674.757 209.858 670.515 209.858C664.682 209.858 661.536 207.273 659.91 205.148C657.966 202.563 656.446 199.164 655.209 194.702C654.431 191.904 653.158 191.337 651.355 191.337H618.975C617.384 191.337 616.925 191.691 616.925 191.691C616.642 192.258 616.218 193.462 616.218 195.764C616.43 203.661 618.657 211.629 622.899 219.384C627.07 227.069 633.433 233.443 641.74 238.401C650.047 243.358 660.158 245.837 671.823 245.837C687.448 245.837 700.209 241.34 709.824 232.522Z" fill="#ED6914" fill-opacity="0.6"/>
<path d="M260.703 241.873H292.412C294.851 241.873 295.487 241.235 295.487 238.792V133.227C295.487 117.043 290.821 103.87 281.595 94.1313C272.298 84.2866 260.279 79.5059 244.866 79.5059C233.625 79.5059 223.727 82.9055 215.385 89.6339L213.158 91.4045L210.931 89.6339C202.588 82.9055 192.655 79.5059 181.449 79.5059C166.036 79.5059 154.018 84.2866 144.721 94.1313C135.459 103.87 130.793 117.043 130.793 133.227V238.792C130.793 241.271 131.394 241.873 133.868 241.873H165.577C168.016 241.873 168.652 241.235 168.652 238.792V130.252C168.652 125.896 169.748 122.355 171.94 119.699C174.238 116.937 177.525 115.45 181.414 115.45C185.302 115.45 188.59 116.937 190.887 119.699C193.079 122.32 194.175 125.861 194.175 130.217V238.756C194.175 241.235 194.776 241.837 197.25 241.837H228.959C231.398 241.837 232.035 241.2 232.035 238.756V130.252C232.035 125.896 233.13 122.355 235.322 119.699C237.62 116.902 240.907 115.45 244.796 115.45C248.684 115.45 251.972 116.937 254.305 119.699C256.497 122.32 257.592 125.861 257.592 130.217V238.756C257.628 241.271 258.229 241.873 260.703 241.873Z" fill="#ED6914" fill-opacity="0.6"/>
<path d="M80.3147 86.0218C72.5024 81.7014 63.6296 79.5059 53.9438 79.5059C38.001 79.5059 24.9923 84.2511 15.2711 93.5647C5.54992 102.914 0.424198 115.627 0 131.35V192.153C0 208.337 4.77222 221.475 14.2106 231.213C23.7197 241.058 35.8447 245.839 51.2926 245.839C65.9627 245.839 78.1584 241.518 87.5614 233.019C96.9645 224.52 102.338 213.118 103.575 199.094C103.716 197.819 103.504 197.111 103.292 196.899C103.045 196.615 102.267 196.332 100.818 196.332H68.1191C66.6697 196.332 65.3264 196.615 64.6548 199.802L64.5134 200.298C61.6147 208.231 56.0648 209.895 51.9288 209.895C47.7576 209.895 44.47 208.479 42.1016 205.646C39.9099 203.025 38.8141 199.484 38.8141 195.093V179.971H53.5903C69.1088 179.971 81.7994 175.439 91.3085 166.515C100.888 157.555 105.554 146.011 105.554 131.208C105.554 121.08 103.257 112.015 98.7673 104.188C94.2779 96.4331 88.0563 90.3067 80.3147 86.0218ZM53.5903 147.038H38.8141V130.252C38.8141 125.826 40.016 122.249 42.3491 119.628C44.7882 116.866 48.2525 115.45 52.6005 115.45C57.8676 115.45 66.7051 117.645 66.7051 132.235C66.7404 141.655 61.9328 147.038 53.5903 147.038Z" fill="#ED6914" fill-opacity="0.6"/>
<path d="M384.888 245.835C392.948 245.835 400.477 243.568 407.229 239.142C414.052 234.644 419.601 228.306 423.702 220.302C427.838 212.228 429.924 202.773 429.924 192.149V133.223C429.924 117.075 425.045 103.937 415.43 94.1982C405.815 84.4597 392.877 79.5374 376.97 79.5374C361.062 79.5374 348.124 84.4597 338.509 94.1982C328.894 103.937 324.016 117.075 324.016 133.223V304.938C324.016 307.382 324.652 308.019 327.091 308.019H359.79C362.229 308.019 362.865 307.382 362.865 304.938V239.354L367.991 241.904C373.187 244.489 378.878 245.835 384.888 245.835ZM362.865 195.089V130.248C362.865 125.786 364.138 122.21 366.647 119.554C369.193 116.827 372.657 115.481 376.97 115.481C381.282 115.481 384.747 116.862 387.292 119.589C389.802 122.245 391.074 125.857 391.074 130.284V195.124C391.074 199.551 389.802 203.163 387.292 205.819C384.747 208.545 381.247 209.926 376.97 209.926C372.657 209.926 369.193 208.545 366.647 205.819C364.138 203.163 362.865 199.551 362.865 195.089Z" fill="#ED6914" fill-opacity="0.6"/>
<path d="M559.094 35.7315C555.276 31.7653 553.332 26.8076 553.332 20.8583C553.332 14.9444 555.241 9.98659 559.094 5.98497C562.912 2.01876 567.861 0.000244141 573.87 0.000244141C579.703 0.000244141 584.581 1.98335 588.505 5.98497C592.429 9.98659 594.373 14.9089 594.373 20.8583C594.373 26.418 592.358 31.2696 588.364 35.4482C584.334 39.6269 579.526 41.6809 573.87 41.6809C567.825 41.6809 562.912 39.6978 559.094 35.7315Z" fill="#ED6914" fill-opacity="0.6"/>
<path d="M386.231 293.359C386.231 283.16 394.291 275.334 404.224 275.334C414.158 275.334 422.218 283.16 422.218 293.359C422.218 303.558 414.158 311.384 404.224 311.384C394.291 311.384 386.231 303.558 386.231 293.359ZM414.299 293.359C414.299 287.162 409.845 283.054 404.224 283.054C398.604 283.054 394.15 287.162 394.15 293.359C394.15 299.556 398.604 303.664 404.224 303.664C409.845 303.664 414.299 299.556 414.299 293.359Z" fill="#ED6914" fill-opacity="0.6"/>
<path d="M450.498 295.022V309.47C450.498 310.249 450.039 310.71 449.261 310.71H444.312C443.534 310.71 443.075 310.249 443.075 309.47V295.659C443.075 293.18 441.625 292.083 439.752 292.083C437.525 292.083 436.146 293.322 436.146 296.226V309.435C436.146 310.214 435.687 310.674 434.909 310.674H429.96C429.182 310.674 428.723 310.214 428.723 309.435V287.16C428.723 286.381 429.182 285.921 429.96 285.921H434.909C435.687 285.921 436.146 286.381 436.146 287.16V288.187C437.313 286.452 439.398 285.248 442.58 285.248C447.175 285.248 450.498 288.825 450.498 295.022Z" fill="#ED6914" fill-opacity="0.6"/>
<path d="M498.926 298.317C498.926 305.683 493.588 311.384 487.119 311.384C483.796 311.384 481.392 310.251 479.766 308.374V309.437C479.766 310.216 479.307 310.676 478.529 310.676H473.58C472.802 310.676 472.343 310.216 472.343 309.437V277.282C472.343 276.503 472.802 276.043 473.58 276.043H478.529C479.307 276.043 479.766 276.503 479.766 277.282V288.26C481.428 286.383 483.831 285.25 487.119 285.25C493.588 285.25 498.926 290.951 498.926 298.317ZM491.538 298.317C491.538 294.599 489.063 292.262 485.67 292.262C482.276 292.262 479.802 294.599 479.802 298.317C479.802 302.036 482.276 304.373 485.67 304.373C489.063 304.373 491.538 302.036 491.538 298.317Z" fill="#ED6914" fill-opacity="0.6"/>
<path d="M519.325 286.738V292.581C519.325 293.36 518.971 293.785 518.335 293.785C515.578 293.679 512.891 295.06 512.891 299.026V309.473C512.891 310.252 512.431 310.713 511.654 310.713H506.705C505.927 310.713 505.468 310.252 505.468 309.473V287.199C505.468 286.42 505.927 285.959 506.705 285.959H511.654C512.431 285.959 512.891 286.384 512.891 287.199V289.89C513.633 287.411 515.578 285.959 518.017 285.57C518.9 285.393 519.325 285.959 519.325 286.738Z" fill="#ED6914" fill-opacity="0.6"/>
<path d="M544.914 295.093V309.435C544.914 310.214 544.454 310.674 543.677 310.674H538.94C538.162 310.674 537.703 310.214 537.703 309.435V308.727C536.395 310.285 534.45 311.347 531.34 311.347C526.992 311.347 523.174 308.762 523.174 303.627C523.174 298.492 526.992 295.907 531.34 295.907C534.45 295.907 536.395 296.793 537.703 297.784V295.553C537.703 293.11 536.713 292.047 534.627 292.047C533.107 292.047 532.153 292.649 531.764 293.499C531.481 294.207 531.234 294.597 530.491 294.597H525.648C524.871 294.597 524.376 294.172 524.411 293.322C525.047 287.975 529.608 285.248 534.627 285.248C540.071 285.248 544.914 288.435 544.914 295.093ZM537.703 303.663C537.703 302.14 536.359 301.184 533.956 301.184C531.693 301.184 530.597 302.211 530.597 303.663C530.597 305.114 531.693 306.141 533.956 306.141C536.359 306.141 537.703 305.114 537.703 303.663Z" fill="#ED6914" fill-opacity="0.6"/>
<path d="M573.796 295.022V309.47C573.796 310.249 573.336 310.71 572.559 310.71H567.61C566.832 310.71 566.373 310.249 566.373 309.47V295.659C566.373 293.18 564.923 292.083 563.05 292.083C560.823 292.083 559.444 293.322 559.444 296.226V309.435C559.444 310.214 558.984 310.674 558.207 310.674H553.258C552.48 310.674 552.021 310.214 552.021 309.435V287.16C552.021 286.381 552.48 285.921 553.258 285.921H558.207C558.984 285.921 559.444 286.381 559.444 287.16V288.187C560.61 286.452 562.696 285.248 565.878 285.248C570.508 285.248 573.796 288.825 573.796 295.022Z" fill="#ED6914" fill-opacity="0.6"/>
<path d="M606.319 277.282V309.437C606.319 310.216 605.86 310.676 605.082 310.676H600.133C599.355 310.676 598.896 310.216 598.896 309.437V308.375C597.234 310.252 594.831 311.385 591.543 311.385C585.074 311.385 579.736 305.683 579.736 298.317C579.736 290.952 585.074 285.25 591.543 285.25C594.866 285.25 597.27 286.383 598.896 288.26V277.282C598.896 276.503 599.32 276.043 600.133 276.043H605.082C605.86 276.043 606.319 276.503 606.319 277.282ZM598.896 298.317C598.896 294.599 596.421 292.262 593.028 292.262C589.634 292.262 587.16 294.599 587.16 298.317C587.16 302.036 589.634 304.373 593.028 304.373C596.421 304.373 598.896 302.036 598.896 298.317Z" fill="#ED6914" fill-opacity="0.6"/>
<path d="M614.344 309.472V304.019C614.344 303.24 614.803 302.779 615.581 302.779H621.025C621.803 302.779 622.262 303.24 622.262 304.019V309.472C622.262 310.251 621.803 310.712 621.025 310.712H615.581C614.803 310.712 614.344 310.251 614.344 309.472Z" fill="#ED6914" fill-opacity="0.6"/>
<path d="M643.791 293.359C643.791 283.16 651.851 275.334 661.784 275.334C671.717 275.334 679.777 283.16 679.777 293.359C679.777 303.558 671.717 311.384 661.784 311.384C651.851 311.384 643.791 303.558 643.791 293.359ZM671.859 293.359C671.859 287.162 667.405 283.054 661.784 283.054C656.163 283.054 651.709 287.162 651.709 293.359C651.709 299.556 656.163 303.664 661.784 303.664C667.405 303.664 671.859 299.556 671.859 293.359Z" fill="#ED6914" fill-opacity="0.6"/>
<path d="M708.057 295.022V309.47C708.057 310.249 707.597 310.71 706.819 310.71H701.871C701.093 310.71 700.633 310.249 700.633 309.47V295.659C700.633 293.18 699.184 292.083 697.31 292.083C695.083 292.083 693.705 293.322 693.705 296.226V309.435C693.705 310.214 693.245 310.674 692.467 310.674H687.519C686.741 310.674 686.281 310.214 686.281 309.435V287.16C686.281 286.381 686.741 285.921 687.519 285.921H692.467C693.245 285.921 693.705 286.381 693.705 287.16V288.187C694.871 286.452 696.957 285.248 700.138 285.248C704.734 285.248 708.057 288.825 708.057 295.022Z" fill="#ED6914" fill-opacity="0.6"/>
<path d="M756.485 298.315C756.485 305.681 751.148 311.383 744.679 311.383C741.356 311.383 738.952 310.249 737.326 308.372V319.35C737.326 320.129 736.866 320.59 736.089 320.59H731.14C730.362 320.59 729.902 320.165 729.902 319.35V287.196C729.902 286.417 730.362 285.956 731.14 285.956H736.089C736.866 285.956 737.326 286.417 737.326 287.196V288.258C738.987 286.381 741.391 285.248 744.679 285.248C751.148 285.248 756.485 290.949 756.485 298.315ZM749.097 298.315C749.097 294.597 746.623 292.26 743.229 292.26C739.836 292.26 737.361 294.597 737.361 298.315C737.361 302.034 739.836 304.371 743.229 304.371C746.623 304.371 749.097 302.034 749.097 298.315Z" fill="#ED6914" fill-opacity="0.6"/>
<path d="M761.824 298.315C761.824 290.949 767.657 285.248 774.904 285.248C782.15 285.248 787.983 290.949 787.983 298.315C787.983 305.681 782.15 311.383 774.904 311.383C767.657 311.383 761.824 305.681 761.824 298.315ZM780.595 298.315C780.595 294.809 778.121 292.472 774.904 292.472C771.687 292.472 769.212 294.809 769.212 298.315C769.212 301.821 771.687 304.158 774.904 304.158C778.121 304.158 780.595 301.821 780.595 298.315Z" fill="#ED6914" fill-opacity="0.6"/>
<path d="M794.559 281.744V277.282C794.559 276.503 795.018 276.043 795.796 276.043H800.745C801.523 276.043 801.982 276.503 801.982 277.282V281.744C801.982 282.523 801.523 282.984 800.745 282.984H795.796C795.018 282.984 794.559 282.523 794.559 281.744ZM794.559 309.472V287.198C794.559 286.419 795.018 285.958 795.796 285.958H800.745C801.523 285.958 801.982 286.419 801.982 287.198V309.472C801.982 310.252 801.523 310.712 800.745 310.712H795.796C795.018 310.712 794.559 310.252 794.559 309.472Z" fill="#ED6914" fill-opacity="0.6"/>
<path d="M831.499 295.022V309.47C831.499 310.249 831.04 310.71 830.262 310.71H825.313C824.535 310.71 824.076 310.249 824.076 309.47V295.659C824.076 293.18 822.626 292.083 820.753 292.083C818.526 292.083 817.147 293.322 817.147 296.226V309.435C817.147 310.214 816.688 310.674 815.91 310.674H810.961C810.183 310.674 809.724 310.214 809.724 309.435V287.16C809.724 286.381 810.183 285.921 810.961 285.921H815.91C816.688 285.921 817.147 286.381 817.147 287.16V288.187C818.314 286.452 820.399 285.248 823.581 285.248C828.212 285.248 831.499 288.825 831.499 295.022Z" fill="#ED6914" fill-opacity="0.6"/>
<path d="M851.999 287.195V291.834C851.999 292.613 851.54 293.074 850.762 293.074H848.04V309.47C848.04 310.249 847.58 310.709 846.803 310.709H841.854C841.076 310.709 840.616 310.249 840.616 309.47V293.074H837.894C837.117 293.074 836.657 292.613 836.657 291.834V287.195C836.657 286.416 837.081 285.956 837.894 285.956H840.616V279.263C840.616 278.484 841.076 278.023 841.854 278.023H846.803C847.58 278.023 848.04 278.484 848.04 279.263V285.956H850.762C851.54 285.956 851.999 286.381 851.999 287.195Z" fill="#ED6914" fill-opacity="0.6"/>
</svg>
