<svg width="21" height="17" viewBox="0 0 21 17" fill="none" xmlns="http://www.w3.org/2000/svg">
<path fill-rule="evenodd" clip-rule="evenodd" d="M9.5733 16.6553C9.28041 16.9482 8.80553 16.9482 8.51264 16.6553L0.825137 8.96783C0.684485 8.82718 0.605468 8.63641 0.605468 8.4375C0.605468 8.23859 0.684485 8.04782 0.825137 7.90717L8.51264 0.21967C8.80553 -0.0732222 9.28041 -0.0732221 9.5733 0.21967C9.86619 0.512563 9.86619 0.987437 9.5733 1.28033L3.16613 7.6875L19.293 7.6875C19.7072 7.6875 20.043 8.02329 20.043 8.4375C20.043 8.85171 19.7072 9.1875 19.293 9.1875L3.16613 9.1875L9.5733 15.5947C9.86619 15.8876 9.86619 16.3624 9.5733 16.6553Z" fill="#F37321"/>
</svg>
