<svg width="36" height="35" viewBox="0 0 36 35" fill="none" xmlns="http://www.w3.org/2000/svg">
<path d="M17.4479 0C10.8191 0 5.42529 5.39381 5.42529 12.0226C5.42529 15.0395 6.55876 18.0677 8.53808 20.3318C9.80407 21.7783 10.4949 23.5348 10.4836 25.2717L10.4808 25.5424C10.4751 26.2755 10.4695 26.9662 10.509 27.6373C10.5794 28.8751 11.4732 29.955 12.6123 30.3243V32.0499C12.6123 33.4766 13.774 34.6383 15.2007 34.6383H19.9122C21.3389 34.6383 22.5005 33.4766 22.5005 32.0499V30.2482C23.5353 29.8196 24.3248 28.799 24.3896 27.6401C24.4263 26.9691 24.4235 26.2755 24.4178 25.5424L24.415 25.2773C24.4037 23.5377 25.0945 21.7839 26.3605 20.3375C28.3398 18.0734 29.4733 15.0452 29.4733 12.0282C29.4705 5.39381 24.0767 0 17.4479 0ZM20.8088 32.0499C20.8088 32.5462 20.4056 32.9465 19.9122 32.9465H15.1979C14.7016 32.9465 14.3013 32.5433 14.3013 32.0499V30.4625H17.4479H20.8088V32.0499ZM21.4404 28.7708H17.4479H13.4554C12.8548 28.7708 12.2317 28.1617 12.1979 27.5414C12.1781 27.1805 12.1725 26.7999 12.1697 26.408H13.4413H21.6659H22.7261C22.7261 26.7999 22.7205 27.1805 22.6979 27.5414C22.6641 28.1617 22.0409 28.7708 21.4404 28.7708ZM15.133 16.2378C15.8605 16.6467 16.6838 16.8666 17.5437 16.8666C18.4122 16.8666 19.2439 16.6438 19.977 16.2266V24.7162H15.133V16.2378ZM15.6124 14.5348L17.555 10.844L19.4921 14.5207C18.9338 14.9437 18.2599 15.1749 17.5437 15.1749C16.836 15.1777 16.1678 14.9493 15.6124 14.5348ZM25.0832 19.2181C23.6819 20.8224 22.8614 22.7538 22.7402 24.7134H21.6659V15.5527C21.6659 15.2059 21.5814 14.8619 21.4178 14.5546L18.4178 8.85905C18.2486 8.53762 17.9159 8.33461 17.5522 8.33461C17.1885 8.33461 16.8558 8.5348 16.6866 8.85905L13.6866 14.5546C13.5259 14.8619 13.4385 15.2059 13.4385 15.5527V24.7162H12.1528C12.0287 22.7566 11.211 20.8253 9.8097 19.2209C8.09823 17.2613 7.11421 14.6391 7.11421 12.0254C7.11421 6.32991 11.7496 1.69455 17.4451 1.69455C23.1406 1.69455 27.7759 6.32991 27.7759 12.0254C27.7787 14.6363 26.7975 17.2613 25.0832 19.2181Z" fill="#F26222"/>
<path d="M2.88723 14.159C3.35527 14.159 3.73309 13.7812 3.73309 13.3132C3.73309 12.8451 3.35527 12.4673 2.88723 12.4673H0.845867C0.377821 12.4673 0 12.8451 0 13.3132C0 13.7812 0.377821 14.159 0.845867 14.159H2.88723Z" fill="#F26222"/>
<path d="M2.04056 5.75279C1.71068 5.4229 1.17496 5.4229 0.845072 5.75279C0.515184 6.08268 0.515184 6.61839 0.845072 6.94828L2.28869 8.39189C2.45504 8.55825 2.66933 8.64001 2.88643 8.64001C3.10354 8.64001 3.32064 8.55825 3.48418 8.39189C3.81407 8.062 3.81407 7.52629 3.48418 7.1964L2.04056 5.75279Z" fill="#F26222"/>
<path d="M2.28869 18.2401L0.845072 19.6837C0.515184 20.0136 0.515184 20.5493 0.845072 20.8792C1.01143 21.0456 1.22571 21.1273 1.44282 21.1273C1.65992 21.1273 1.87703 21.0456 2.04056 20.8792L3.48418 19.4356C3.81407 19.1057 3.81407 18.57 3.48418 18.2401C3.15429 17.9102 2.61857 17.9102 2.28869 18.2401Z" fill="#F26222"/>
<path d="M34.1875 12.4673H32.1462C31.6781 12.4673 31.3003 12.8451 31.3003 13.3132C31.3003 13.7812 31.6781 14.159 32.1462 14.159H34.1875C34.6556 14.159 35.0334 13.7812 35.0334 13.3132C35.0334 12.8451 34.6527 12.4673 34.1875 12.4673Z" fill="#F26222"/>
<path d="M32.7432 18.2401C32.4133 17.9102 31.8776 17.9102 31.5477 18.2401C31.2178 18.57 31.2178 19.1057 31.5477 19.4356L32.9913 20.8792C33.1577 21.0456 33.372 21.1273 33.5891 21.1273C33.8062 21.1273 34.0233 21.0456 34.1868 20.8792C34.5167 20.5493 34.5167 20.0136 34.1868 19.6837L32.7432 18.2401Z" fill="#F26222"/>
<path d="M32.1455 8.64001C32.3626 8.64001 32.5797 8.55825 32.7432 8.39189L34.1868 6.94828C34.5167 6.61839 34.5167 6.08268 34.1868 5.75279C33.8569 5.4229 33.3212 5.4229 32.9913 5.75279L31.5477 7.1964C31.2178 7.52629 31.2178 8.062 31.5477 8.39189C31.7112 8.55543 31.9284 8.64001 32.1455 8.64001Z" fill="#F26222"/>
</svg>
