<svg width="33" height="33" viewBox="0 0 33 33" fill="none" xmlns="http://www.w3.org/2000/svg">
<path d="M6.56713 21.3391C6.11534 21.3391 5.74422 21.7103 5.74422 22.162C5.74422 22.6138 6.11534 22.985 6.56713 22.985H8.20488V24.6227C8.20488 25.0745 8.57599 25.4456 9.02779 25.4456C9.47958 25.4456 9.85069 25.0745 9.85069 24.6227V22.985H13.1343V24.6227C13.1343 25.0745 13.5054 25.4456 13.9572 25.4456C14.409 25.4456 14.7801 25.0745 14.7801 24.6227V22.985H18.0636V24.6227C18.0636 25.0745 18.4348 25.4456 18.8866 25.4456C19.3383 25.4456 19.7095 25.0745 19.7095 24.6227V22.985H22.993V24.6227C22.993 25.0745 23.3641 25.4456 23.8159 25.4456C24.2677 25.4456 24.6388 25.0745 24.6388 24.6227V22.985H26.2766C26.7284 22.985 27.0995 22.6138 27.0995 22.162C27.0995 21.7103 26.7284 21.3391 26.2766 21.3391H24.6388V18.0556H26.2766C26.7284 18.0556 27.0995 17.6845 27.0995 17.2327C27.0995 16.7809 26.7284 16.4098 26.2766 16.4098H24.6388V14.772C24.6388 14.3202 24.2677 13.9491 23.8159 13.9491C23.3641 13.9491 22.993 14.3202 22.993 14.772V16.4098H19.7095V14.772C19.7095 14.3202 19.3383 13.9491 18.8866 13.9491C18.4348 13.9491 18.0636 14.3202 18.0636 14.772V16.4098H14.7801V14.772C14.7801 14.3202 14.409 13.9491 13.9572 13.9491C13.5054 13.9491 13.1343 14.3202 13.1343 14.772V16.4098H9.85069V14.772C9.85069 14.3202 9.47958 13.9491 9.02779 13.9491C8.57599 13.9491 8.20488 14.3202 8.20488 14.772V16.4098H6.56713C6.11534 16.4098 5.74422 16.7809 5.74422 17.2327C5.74422 17.6845 6.11534 18.0556 6.56713 18.0556H8.20488V21.3391H6.56713ZM22.9769 18.0556V21.3391H19.6933V18.0556H22.9769ZM18.0556 18.0556V21.3391H14.772V18.0556H18.0556ZM9.85069 18.0556H13.1343V21.3391H9.85069V18.0556ZM28.7292 2.46066H26.2605C26.2605 1.09721 25.1552 0 23.7998 0C22.4444 0 21.3391 1.10528 21.3391 2.46066H11.4884C11.4884 1.09721 10.3832 0 9.02779 0C7.67241 0 6.56713 1.10528 6.56713 2.46066H4.10647C1.83944 2.46066 0 4.3001 0 6.56713V27.4948C0 30.4395 2.38805 32.8276 5.33277 32.8276H27.4948C30.4395 32.8276 32.8276 30.4395 32.8276 27.4948V6.56713C32.8276 4.3001 30.9962 2.46066 28.7292 2.46066ZM22.9769 2.46066C22.9769 2.00887 23.348 1.63775 23.7998 1.63775C24.2516 1.63775 24.6227 2.00887 24.6227 2.46066V4.09841C24.6227 4.5502 24.2516 4.92132 23.7998 4.92132C23.348 4.92132 22.9769 4.5502 22.9769 4.09841V2.46066ZM8.20488 2.46066C8.20488 2.00887 8.57599 1.63775 9.02779 1.63775C9.47958 1.63775 9.85069 2.00887 9.85069 2.46066V4.09841C9.85069 4.5502 9.47958 4.92132 9.02779 4.92132C8.57599 4.92132 8.20488 4.5502 8.20488 4.09841V2.46066ZM1.63775 6.56713C1.63775 5.75229 2.04113 4.98586 2.72689 4.526C3.13028 4.25169 3.61434 4.10647 4.10647 4.10647H6.56713C6.56713 5.46992 7.67241 6.56713 9.02779 6.56713C10.3832 6.56713 11.4884 5.46185 11.4884 4.10647H21.3391C21.3391 5.46992 22.4444 6.56713 23.7998 6.56713C25.1552 6.56713 26.2605 5.46185 26.2605 4.10647H28.7211C29.9797 4.10647 31.0446 5.05847 31.1737 6.31703C31.1818 6.39771 31.1898 6.48645 31.1898 6.56713V9.8507H1.63775V6.56713ZM27.4948 31.1898H5.33277C3.8483 31.1898 2.50906 30.2943 1.93625 28.9228C2.58974 29.3343 3.34004 29.544 4.10647 29.544H28.7292C29.4956 29.544 30.2459 29.3262 30.8994 28.9228C30.3185 30.2943 28.9793 31.1898 27.4948 31.1898ZM31.1898 25.4456C31.1898 26.801 30.0846 27.9063 28.7292 27.9063H4.10647C2.7511 27.9063 1.64582 26.801 1.64582 25.4456V11.4884H31.1979L31.1898 25.4456Z" fill="#F37321"/>
</svg>
