<svg width="20" height="21" viewBox="0 0 20 21" fill="none" xmlns="http://www.w3.org/2000/svg">
<g clip-path="url(#clip0_1423_587)">
<path d="M19.5294 10.5674C19.5294 5.17454 15.1576 0.802734 9.76471 0.802734C4.3718 0.802734 0 5.17454 0 10.5674C0 15.4412 3.57079 19.481 8.23897 20.2135V13.39H5.75965V10.5674H8.23897V8.41615C8.23897 5.96887 9.69681 4.61707 11.9272 4.61707C12.9953 4.61707 14.1131 4.80779 14.1131 4.80779V7.21082H12.8818C11.6688 7.21082 11.2904 7.96358 11.2904 8.73656V10.5674H13.9986L13.5657 13.39H11.2904V20.2135C15.9586 19.481 19.5294 15.4412 19.5294 10.5674Z" fill="white"/>
</g>
<defs>
<clipPath id="clip0_1423_587">
<rect width="19.5294" height="19.5294" fill="white" transform="translate(0 0.802734)"/>
</clipPath>
</defs>
</svg>
