<svg width="34" height="34" viewBox="0 0 34 34" fill="none" xmlns="http://www.w3.org/2000/svg">
<path d="M33.127 12.6542C32.7322 12.4963 32.2924 12.595 31.9992 12.8995L31.7961 13.1138V4.40133C31.7961 3.58366 31.1307 2.91542 30.3018 2.91542L5.71806 3.19456V0H2.84493C1.27726 0 0 1.27726 0 2.84493V28.2125C0 28.2463 0.00564152 28.2802 0.0112806 28.314C0.00564152 28.3817 0 28.4493 0 28.517V28.8694C0 30.4371 1.27726 31.7144 2.84493 31.7144H14.1373C13.892 32.0104 13.8271 32.4193 13.9822 32.7745C14.1457 33.1524 14.5151 33.3977 14.9267 33.3977H32.5123C33.2087 33.3977 33.7755 32.8309 33.7755 32.1345V13.6072C33.7727 13.1842 33.5189 12.8121 33.127 12.6542ZM2.84493 1.69173H4.02633V25.6749H2.84493C2.43328 25.6749 2.04418 25.7651 1.69173 25.9202V2.84211C1.69173 2.20771 2.21053 1.69173 2.84493 1.69173ZM1.69173 28.8723V28.5198C1.69173 27.8854 2.20771 27.3666 2.84493 27.3666H4.70584C4.73404 27.3666 4.76223 27.361 4.7876 27.3582C4.8158 27.361 4.84118 27.3666 4.86937 27.3666C5.33742 27.3666 5.71524 26.9888 5.71524 26.5208V4.88629L30.1044 4.60998V14.8957L15.7359 30.0255H2.84493C2.21053 30.0226 1.69173 29.5067 1.69173 28.8723ZM32.0809 31.7059H16.4718L32.0809 15.2707V31.7059Z" fill="#F26222"/>
<path d="M22.8591 28.9735C23.0001 29.3062 23.3271 29.5205 23.6852 29.5205H28.9437C29.4794 29.5205 29.9136 29.0863 29.9136 28.5506V23.0101C29.9136 22.638 29.6909 22.3109 29.3469 22.1727C29.0029 22.0346 28.6138 22.122 28.36 22.3898L23.0311 28.0008C22.7858 28.2602 22.7153 28.6436 22.8591 28.9735ZM28.2247 24.9923V27.8288H25.5292L28.2247 24.9923Z" fill="#F26222"/>
<path d="M15.229 22.7918C15.2628 22.7777 15.2967 22.7636 15.3277 22.7467L21.5392 19.383C21.9283 19.1715 22.1708 18.7683 22.1708 18.3257V12.0268C22.1708 11.9929 22.1679 11.9591 22.1651 11.9225C22.1849 11.7646 22.1595 11.5982 22.0834 11.4459C21.996 11.2683 21.8522 11.1386 21.6858 11.0597C21.6548 11.0371 21.6238 11.0117 21.5899 10.992L15.7478 7.48729C15.3644 7.2589 14.8907 7.25608 14.51 7.48729L8.66508 10.9948C8.63406 11.0146 8.60587 11.0343 8.57486 11.0568C8.41696 11.1273 8.28163 11.2458 8.18858 11.4093C8.09835 11.57 8.06733 11.7476 8.08707 11.9168C8.08425 11.9535 8.07861 11.9901 8.07861 12.0268V18.3369C8.07861 18.7542 8.29854 19.1462 8.65381 19.3633L14.1294 22.7157C14.1632 22.7355 14.1971 22.7524 14.2309 22.7693C14.3747 22.8793 14.5523 22.9469 14.7469 22.9469C14.9245 22.9469 15.0908 22.8905 15.229 22.7918ZM15.5899 20.68V15.6273L20.479 13.1913V18.0324L15.5899 20.68ZM15.1219 9.09162L19.5655 11.7561L14.7694 14.1443L10.6049 11.8012L15.1219 9.09162ZM9.76753 13.273L13.8982 15.5992V20.5926L9.76753 18.0634V13.273Z" fill="#F26222"/>
</svg>
