<svg width="21" height="21" viewBox="0 0 21 21" fill="none" xmlns="http://www.w3.org/2000/svg">
    <g clip-path="url(#clip0_1423_585)">
        <path d="M10.4122 2.56114C13.0212 2.56114 13.3301 2.57259 14.3562 2.61836C15.3098 2.66032 15.8247 2.82052 16.168 2.95402C16.6219 3.12948 16.9499 3.34308 17.2894 3.68256C17.6327 4.02585 17.8425 4.35007 18.018 4.80398C18.1515 5.14727 18.3117 5.66602 18.3536 6.61579C18.3994 7.64566 18.4108 7.95462 18.4108 10.5598C18.4108 13.1688 18.3994 13.4778 18.3536 14.5038C18.3117 15.4574 18.1515 15.9724 18.018 16.3156C17.8425 16.7696 17.6289 17.0976 17.2894 17.4371C16.9461 17.7804 16.6219 17.9901 16.168 18.1656C15.8247 18.2991 15.306 18.4593 14.3562 18.5013C13.3263 18.547 13.0174 18.5585 10.4122 18.5585C7.80316 18.5585 7.4942 18.547 6.46814 18.5013C5.51456 18.4593 4.99962 18.2991 4.65633 18.1656C4.20242 17.9901 3.87439 17.7765 3.53491 17.4371C3.19162 17.0938 2.98184 16.7696 2.80638 16.3156C2.67287 15.9724 2.51267 15.4536 2.47071 14.5038C2.42494 13.474 2.4135 13.165 2.4135 10.5598C2.4135 7.9508 2.42494 7.64184 2.47071 6.61579C2.51267 5.6622 2.67287 5.14727 2.80638 4.80398C2.98184 4.35007 3.19544 4.02204 3.53491 3.68256C3.87821 3.33927 4.20242 3.12948 4.65633 2.95402C4.99962 2.82052 5.51837 2.66032 6.46814 2.61836C7.4942 2.57259 7.80316 2.56114 10.4122 2.56114ZM10.4122 0.802734C7.7612 0.802734 7.42935 0.814177 6.38804 0.859949C5.35054 0.905722 4.63726 1.07355 4.01934 1.31386C3.37471 1.5656 2.82926 1.89745 2.28763 2.4429C1.74218 2.98454 1.41033 3.52999 1.15858 4.1708C0.918279 4.79253 0.750448 5.502 0.704676 6.5395C0.658904 7.58463 0.647461 7.91647 0.647461 10.5674C0.647461 13.2184 0.658904 13.5503 0.704676 14.5916C0.750448 15.6291 0.918279 16.3423 1.15858 16.9603C1.41033 17.6049 1.74218 18.1503 2.28763 18.692C2.82926 19.2336 3.37471 19.5693 4.01552 19.8172C4.63726 20.0575 5.34673 20.2253 6.38423 20.2711C7.42554 20.3169 7.75739 20.3283 10.4084 20.3283C13.0593 20.3283 13.3912 20.3169 14.4325 20.2711C15.47 20.2253 16.1833 20.0575 16.8012 19.8172C17.442 19.5693 17.9874 19.2336 18.5291 18.692C19.0707 18.1503 19.4064 17.6049 19.6543 16.9641C19.8946 16.3423 20.0624 15.6329 20.1082 14.5954C20.154 13.5541 20.1654 13.2222 20.1654 10.5713C20.1654 7.92029 20.154 7.58844 20.1082 6.54713C20.0624 5.50963 19.8946 4.79635 19.6543 4.17842C19.414 3.52999 19.0822 2.98454 18.5367 2.4429C17.9951 1.90126 17.4496 1.5656 16.8088 1.31767C16.1871 1.07737 15.4776 0.909536 14.4401 0.863764C13.395 0.814177 13.0631 0.802734 10.4122 0.802734Z" fill="white"/>
        <path d="M10.4123 5.55176C7.64313 5.55176 5.39648 7.7984 5.39648 10.5676C5.39648 13.3368 7.64313 15.5835 10.4123 15.5835C13.1815 15.5835 15.4282 13.3368 15.4282 10.5676C15.4282 7.7984 13.1815 5.55176 10.4123 5.55176ZM10.4123 13.8212C8.61579 13.8212 7.15871 12.3642 7.15871 10.5676C7.15871 8.77106 8.61579 7.31398 10.4123 7.31398C12.2089 7.31398 13.666 8.77106 13.666 10.5676C13.666 12.3642 12.2089 13.8212 10.4123 13.8212Z" fill="white"/>
        <path d="M16.7976 5.35362C16.7976 6.00206 16.2712 6.52462 15.6266 6.52462C14.9781 6.52462 14.4556 5.99824 14.4556 5.35362C14.4556 4.70518 14.9819 4.18262 15.6266 4.18262C16.2712 4.18262 16.7976 4.709 16.7976 5.35362Z" fill="white"/>
    </g>
    <defs>
        <clipPath id="clip0_1423_585">
            <rect width="19.5294" height="19.5294" fill="white" transform="translate(0.647461 0.802734)"/>
        </clipPath>
    </defs>
</svg>
