<svg width="20" height="21" viewBox="0 0 20 21" fill="none" xmlns="http://www.w3.org/2000/svg">
<g clip-path="url(#clip0_1423_584)">
<path d="M18.5545 0.802734H1.91252C1.11533 0.802734 0.470703 1.4321 0.470703 2.21023V18.9208C0.470703 19.699 1.11533 20.3321 1.91252 20.3321H18.5545C19.3517 20.3321 20.0001 19.699 20.0001 18.9247V2.21023C20.0001 1.4321 19.3517 0.802734 18.5545 0.802734ZM6.26468 17.4447H3.36579V8.12245H6.26468V17.4447ZM4.81523 6.85227C3.88454 6.85227 3.13311 6.10085 3.13311 5.17397C3.13311 4.24708 3.88454 3.49566 4.81523 3.49566C5.74212 3.49566 6.49354 4.24708 6.49354 5.17397C6.49354 6.09704 5.74212 6.85227 4.81523 6.85227ZM17.1127 17.4447H14.2176V12.9133C14.2176 11.8338 14.1985 10.4416 12.7109 10.4416C11.2043 10.4416 10.9754 11.6202 10.9754 12.837V17.4447H8.08412V8.12245H10.861V9.39644H10.8991C11.2844 8.66409 12.2303 7.88977 13.6378 7.88977C16.571 7.88977 17.1127 9.81983 17.1127 12.3297V17.4447Z" fill="white"/>
</g>
<defs>
<clipPath id="clip0_1423_584">
<rect width="19.5294" height="19.5294" fill="white" transform="translate(0.470703 0.802734)"/>
</clipPath>
</defs>
</svg>
