<svg width="38" height="37" viewBox="0 0 38 37" fill="none" xmlns="http://www.w3.org/2000/svg">
<path d="M35.955 0H32.0133C31.3422 0 30.798 0.544174 30.798 1.21523V2.33741H21.7021C21.3553 1.02914 20.1598 0.0620303 18.7444 0.0620303C17.329 0.0620303 16.1335 1.02914 15.7867 2.33741H6.36938V1.21523C6.36938 0.544174 5.8252 0 5.15415 0H1.21805C0.544172 0 0 0.544174 0 1.21523V5.15415C0 5.82521 0.544172 6.36938 1.21805 6.36938H5.15415C5.8252 6.36938 6.36938 5.82521 6.36938 5.15415V4.02915H12.1326C7.9004 6.2566 4.9455 10.6015 4.69738 15.6457C3.33271 15.9531 2.31204 17.1739 2.31204 18.6288C2.31204 20.3149 3.68516 21.688 5.37125 21.688C7.05735 21.688 8.43047 20.3149 8.43047 18.6288C8.43047 17.298 7.57333 16.1617 6.38348 15.7416C6.65697 10.173 10.6748 5.57144 15.97 4.41261C16.4606 5.45584 17.5207 6.18047 18.7444 6.18047C19.9427 6.18047 20.9831 5.48686 21.485 4.48028C26.6223 5.73498 30.4963 10.2491 30.7811 15.6965C29.5151 16.0687 28.5903 17.2444 28.5903 18.6288C28.5903 20.3149 29.9606 21.688 31.6495 21.688C33.3356 21.688 34.7087 20.3149 34.7087 18.6288C34.7087 17.2275 33.7614 16.0433 32.4728 15.6824C32.236 10.6213 29.2811 6.26224 25.0405 4.02915H30.798V5.15415C30.798 5.82521 31.3422 6.36938 32.0133 6.36938H35.955C36.6232 6.36938 37.1702 5.82521 37.1702 5.15415V1.21523C37.1702 0.544174 36.6232 0 35.955 0ZM4.67764 4.67765H1.69173V1.69173H4.67764V4.67765ZM6.73874 18.6288C6.73874 19.3816 6.12689 19.9963 5.37125 19.9963C4.61843 19.9963 4.00377 19.3816 4.00377 18.6288C4.00377 17.876 4.61843 17.2613 5.37125 17.2613C6.12689 17.2613 6.73874 17.876 6.73874 18.6288ZM19.7651 4.02915C19.72 4.0799 19.6692 4.13065 19.6157 4.17576C19.3788 4.37313 19.0743 4.48874 18.7444 4.48874C18.4032 4.48874 18.0903 4.36467 17.8534 4.15321C17.8055 4.11655 17.7632 4.07426 17.7237 4.02915C17.5095 3.78667 17.3769 3.46806 17.3769 3.12125C17.3769 2.89005 17.4361 2.67012 17.5405 2.47557C17.5687 2.42764 17.594 2.38253 17.625 2.33741C17.8732 1.98497 18.282 1.75376 18.7444 1.75376C19.2068 1.75376 19.6185 1.98497 19.8638 2.33741C19.9033 2.39098 19.9371 2.44738 19.9681 2.50941C20.0611 2.69268 20.1119 2.90132 20.1119 3.12125C20.1119 3.46806 19.9822 3.78667 19.7651 4.02915ZM33.017 18.6288C33.017 19.3816 32.4023 19.9963 31.6495 19.9963C30.8939 19.9963 30.282 19.3816 30.282 18.6288C30.282 17.876 30.8939 17.2613 31.6495 17.2613C32.4023 17.2613 33.017 17.876 33.017 18.6288ZM35.4785 4.67765H32.4898V1.69173H35.4785V4.67765Z" fill="#F26222"/>
<path d="M19.4241 9.63787C19.2352 9.35874 18.9222 9.19238 18.5867 9.19238C18.2483 9.19238 17.9353 9.35874 17.7464 9.63787L9.206 22.261C8.89021 22.7263 8.91558 23.3296 9.26803 23.7667C9.35825 23.8766 9.45976 23.9838 9.58664 24.1163C9.89961 24.4405 10.4212 24.9819 11.2051 26.1041C12.6402 28.1567 13.1506 30.9481 13.2774 31.7855C11.924 32.6285 11.0246 34.1257 11.0246 35.8344C11.0246 36.4406 11.518 36.934 12.1242 36.934H25.0463C25.6525 36.934 26.1459 36.4406 26.1459 35.8344C26.1459 34.1257 25.2465 32.6285 23.8931 31.7855C24.02 30.9453 24.5275 28.1624 25.9654 26.1041C26.7493 24.9819 27.2709 24.4405 27.5839 24.1163C27.7108 23.9838 27.8123 23.8766 27.9025 23.7667C28.2549 23.3296 28.2803 22.7263 27.9645 22.261L19.4241 9.63787ZM18.6233 21.4913C19.379 21.4913 19.9908 22.106 19.9908 22.8588C19.9908 23.6116 19.379 24.2263 18.6233 24.2263C17.8705 24.2263 17.2558 23.6116 17.2558 22.8588C17.2558 22.106 17.8705 21.4913 18.6233 21.4913ZM24.3978 35.2423H12.7727C13.0491 33.8297 14.2981 32.7582 15.7925 32.7582H21.378C22.8724 32.7582 24.1215 33.8297 24.3978 35.2423ZM26.363 22.9434C26.019 23.3014 25.4382 23.9048 24.5782 25.137C23.1036 27.2432 22.4974 29.9077 22.2803 31.1539C21.9871 31.0947 21.6854 31.0665 21.378 31.0665H15.7925C15.4851 31.0665 15.1806 31.0947 14.8902 31.1539C14.6731 29.9077 14.0669 27.2432 12.5923 25.137C11.7323 23.9048 11.1515 23.3014 10.8075 22.9434C10.8019 22.9377 10.799 22.9349 10.7934 22.9293L17.7408 12.6633V19.9293C16.4833 20.3099 15.5641 21.48 15.5641 22.8588C15.5641 24.5449 16.9372 25.918 18.6233 25.918C20.3094 25.918 21.6825 24.5449 21.6825 22.8588C21.6825 21.4518 20.7267 20.2648 19.4325 19.9095V12.6633L26.3771 22.9293L26.363 22.9434Z" fill="#F26222"/>
</svg>
