<svg width="38" height="29" viewBox="0 0 38 29" fill="none" xmlns="http://www.w3.org/2000/svg">
<path d="M0 7.92632C0.222218 7.78907 0.424829 7.61914 0.660119 7.5211C6.45086 5.05056 12.2547 2.59962 18.0454 0.122547C18.418 -0.0408489 18.7317 -0.0408489 19.1108 0.122547C24.9015 2.59309 30.6988 5.05056 36.496 7.51457C37.13 7.78253 37.1562 7.82175 37.1562 8.50801C37.1562 12.5275 37.1496 16.5405 37.1627 20.5601C37.1627 20.9784 36.9993 21.194 36.6333 21.3574C30.7707 23.8411 24.908 26.3312 19.0454 28.8344C18.7186 28.9717 18.4376 28.9717 18.1108 28.8344C12.2481 26.3377 6.3855 23.8476 0.529402 21.3509C0.339863 21.2725 0.176467 21.1222 0 20.998C0 16.6386 0 12.2792 0 7.92632ZM35.1693 20.7496C35.0386 20.6908 34.9536 20.645 34.8686 20.6124C29.5419 18.3444 24.2152 16.0765 18.882 13.8282C18.699 13.7497 18.431 13.7694 18.2415 13.8478C13.6403 15.7889 9.04558 17.7431 4.4509 19.6908C3.64699 20.0307 2.84962 20.3771 1.99343 20.7365C2.13068 20.8084 2.21564 20.8542 2.30061 20.8934C7.65345 23.1679 12.9998 25.4423 18.3526 27.7037C18.4898 27.7626 18.7055 27.7429 18.8493 27.6841C24.1695 25.4358 29.4896 23.1744 34.8033 20.9195C34.9144 20.8738 35.019 20.8215 35.1693 20.7496ZM36.0582 19.913C36.0647 19.8085 36.0712 19.7627 36.0712 19.717C36.0712 16.0765 36.0712 12.436 36.0778 8.79559C36.0778 8.53415 35.934 8.48187 35.7575 8.40344C30.3393 6.10283 24.9211 3.80222 19.5029 1.49507C19.3983 1.44932 19.2938 1.41664 19.1434 1.36435C19.1434 1.56043 19.1434 1.69115 19.1434 1.82186C19.1434 3.54078 19.1434 5.25971 19.1434 6.97863C19.1434 7.54724 18.9604 7.83482 18.5879 7.84136C18.2088 7.84789 18.0193 7.55378 18.0127 6.95902C18.0127 6.88713 18.0127 6.81523 18.0127 6.74334C18.0127 5.08324 18.0127 3.42967 18.0127 1.76958C18.0127 1.64539 17.9997 1.52121 17.9931 1.36435C17.8624 1.4101 17.784 1.43625 17.7121 1.46893C12.2612 3.78261 6.81033 6.10283 1.35292 8.41651C1.1307 8.50801 1.08495 8.62566 1.08495 8.84787C1.09148 12.4164 1.09148 15.985 1.09148 19.5536C1.09148 19.6581 1.09148 19.7627 1.09148 19.9065C1.23527 19.8542 1.34638 19.815 1.45749 19.7692C6.87569 17.4686 12.2939 15.168 17.7186 12.8739C17.967 12.7694 18.0323 12.6387 18.0258 12.3903C18.0127 11.789 18.0062 11.1812 18.0258 10.5733C18.0389 10.1028 18.3657 9.84132 18.7513 9.9655C19.0715 10.0701 19.1434 10.338 19.1434 10.6256C19.15 11.2073 19.163 11.789 19.1369 12.3641C19.1238 12.6583 19.2349 12.7759 19.4964 12.887C23.7643 14.6909 28.0256 16.5013 32.287 18.3183C33.5353 18.8412 34.7771 19.3706 36.0582 19.913Z" fill="#F37321"/>
<path d="M22.9279 19.2977C22.9279 19.7356 22.9214 20.167 22.9279 20.6049C22.9344 20.9513 22.7972 21.1735 22.4769 21.3107C21.2874 21.8075 20.1044 22.3303 18.9084 22.814C18.7188 22.8924 18.4443 22.8924 18.2548 22.8205C17.0587 22.3369 15.8758 21.8205 14.6862 21.3173C14.366 21.18 14.2222 20.9643 14.2287 20.618C14.2353 19.7356 14.2353 18.8533 14.2287 17.9709C14.2222 17.6245 14.3725 17.4154 14.6928 17.2781C15.8627 16.788 17.0195 16.2716 18.196 15.801C18.4182 15.7095 18.7319 15.7095 18.9541 15.801C20.1306 16.2716 21.2874 16.788 22.4573 17.2716C22.7972 17.4089 22.941 17.6376 22.9279 17.9971C22.9214 18.4219 22.9279 18.8598 22.9279 19.2977ZM16.2091 17.8337C16.9934 18.167 17.6993 18.4677 18.4117 18.7618C18.5032 18.801 18.6339 18.8141 18.7188 18.7814C19.4509 18.4807 20.1763 18.167 20.9541 17.8337C20.1698 17.5004 19.4443 17.1866 18.7123 16.8795C18.6339 16.8468 18.5162 16.8533 18.4378 16.8925C17.7123 17.1866 16.9934 17.4938 16.2091 17.8337ZM15.3464 18.6637C15.3464 19.2258 15.3398 19.7095 15.3529 20.1931C15.3529 20.2716 15.4052 20.3957 15.4705 20.4219C16.3071 20.7879 17.1437 21.1408 18.026 21.5199C18.026 20.9644 18.0326 20.4742 18.0195 19.9774C18.0195 19.899 17.9607 19.7814 17.8953 19.7552C17.0653 19.3958 16.2352 19.0428 15.3464 18.6637ZM19.1437 21.5199C20.0129 21.1539 20.8364 20.8075 21.6534 20.4546C21.7188 20.4284 21.8037 20.3434 21.8103 20.2846C21.8234 19.7618 21.8168 19.2389 21.8168 18.6637C20.9345 19.0363 20.124 19.3761 19.3201 19.7356C19.2417 19.7748 19.1567 19.9055 19.1502 20.0036C19.1371 20.4807 19.1437 20.9644 19.1437 21.5199Z" fill="#F37321"/>
<path d="M29.9673 11.6322C29.9673 12.7433 29.9673 13.8544 29.9673 14.972C29.9673 15.7171 29.6405 15.9262 28.9543 15.6386C26.3007 14.5145 23.6472 13.3838 20.9936 12.2662C20.6015 12.1028 20.4512 11.8609 20.4512 11.4361C20.4642 9.17471 20.4577 6.91331 20.4577 4.65192C20.4577 3.9199 20.778 3.71729 21.4512 3.99833C24.1047 5.1225 26.7582 6.25319 29.4118 7.37082C29.8105 7.54075 29.9869 7.78911 29.9804 8.22701C29.9543 9.35771 29.9673 10.4949 29.9673 11.6322ZM21.5819 5.26628C21.5688 5.32511 21.5557 5.35779 21.5557 5.397C21.5557 7.28585 21.5623 9.16817 21.5492 11.057C21.5492 11.3054 21.693 11.3511 21.8629 11.423C24.0589 12.3577 26.2615 13.2923 28.4576 14.2269C28.5752 14.2727 28.6928 14.3119 28.817 14.3576C28.8301 14.2727 28.8497 14.24 28.8497 14.2008C28.8497 12.325 28.8497 10.4492 28.8562 8.57341C28.8562 8.33159 28.7255 8.27276 28.5491 8.20087C26.3269 7.25971 24.1047 6.31855 21.8825 5.37739C21.7845 5.33818 21.6864 5.3055 21.5819 5.26628Z" fill="#F37321"/>
<path d="M11.1311 10.3711C11.1311 11.5083 11.1311 12.6456 11.1311 13.7828C11.1311 14.3384 11.0788 14.4168 10.5755 14.6259C8.0527 15.6521 5.52987 16.6847 3.00051 17.7108C2.37307 17.9657 2.03974 17.7435 2.03974 17.0703C2.03974 14.7959 2.04627 12.5214 2.0332 10.2469C2.0332 9.86785 2.17046 9.63909 2.52339 9.49531C5.0789 8.4169 7.62787 7.33195 10.1834 6.247C10.8043 5.98557 11.1245 6.20779 11.1311 6.89405C11.1311 8.05089 11.1311 9.21427 11.1311 10.3711ZM10.0069 7.55417C9.91541 7.58031 9.84351 7.58685 9.78469 7.61299C7.64094 8.52147 5.49719 9.43649 3.35344 10.3319C3.13122 10.4234 3.13122 10.5737 3.13122 10.7633C3.13122 12.541 3.13122 14.3187 3.13122 16.0965C3.13122 16.2011 3.14429 16.2991 3.15083 16.4233C3.22926 16.3971 3.27501 16.3906 3.32076 16.371C5.47758 15.4952 7.63441 14.6129 9.79123 13.7501C10.02 13.6586 10.02 13.5148 10.02 13.3318C10.02 11.5149 10.02 9.70445 10.02 7.88749C10.0265 7.78946 10.0134 7.68488 10.0069 7.55417Z" fill="#F37321"/>
<path d="M30.5026 12.3583C30.5026 11.2211 30.5026 10.0838 30.5026 8.9466C30.5026 8.20805 30.836 7.98583 31.5222 8.27995C32.5418 8.71131 33.5614 9.15575 34.5875 9.57404C34.9535 9.72436 35.1104 9.95965 35.1104 10.3453C35.1039 12.6328 35.1104 14.9203 35.1038 17.2013C35.1038 17.8745 34.7574 18.0968 34.1365 17.8353C33.1039 17.3974 32.0778 16.9465 31.0386 16.5282C30.6399 16.3648 30.4961 16.1033 30.4961 15.6916C30.5157 14.5805 30.5026 13.4694 30.5026 12.3583ZM31.6268 9.52175C31.6268 9.70475 31.6268 9.83547 31.6268 9.96619C31.6268 11.574 31.6268 13.1818 31.6268 14.7896C31.6268 15.5739 31.6268 15.5805 32.3653 15.8876C32.8947 16.1099 33.4176 16.3321 33.9862 16.5674C33.9862 14.5739 33.9862 12.6393 33.9797 10.7047C33.9797 10.6263 33.9274 10.5021 33.862 10.476C33.1366 10.1557 32.4046 9.84854 31.6268 9.52175Z" fill="#F37321"/>
<path d="M12.0322 7.33154C12.0322 6.86096 12.0387 6.39038 12.0322 5.9198C12.0256 5.60608 12.1629 5.39694 12.457 5.27276C13.7446 4.73028 15.0256 4.18127 16.3197 3.64534C16.8099 3.44273 17.1759 3.67148 17.1824 4.20742C17.202 5.18779 17.1889 6.16163 17.1824 7.142C17.1824 7.42304 17.0386 7.61912 16.7772 7.73023C15.47 8.28577 14.1629 8.84785 12.8492 9.39033C12.3916 9.57986 12.0518 9.35765 12.0322 8.85439C12.0191 8.34459 12.0322 7.8348 12.0322 7.33154ZM13.1302 8.07663C14.0975 7.66487 15.0256 7.27272 15.9537 6.8675C16.006 6.84135 16.0582 6.73678 16.0582 6.66489C16.0648 6.10934 16.0648 5.56033 16.0648 4.94596C15.0909 5.35772 14.1629 5.74987 13.2413 6.15509C13.189 6.18124 13.1433 6.28581 13.1433 6.3577C13.1302 6.90671 13.1302 7.46226 13.1302 8.07663Z" fill="#F37321"/>
<path d="M12.0322 11.9269C12.0322 11.5413 12.0322 11.1557 12.0322 10.7701C12.0322 10.4825 12.1694 10.293 12.4243 10.1819C13.7184 9.63284 15.0125 9.07076 16.3131 8.52829C16.7968 8.32568 17.1628 8.5675 17.1759 9.0969C17.1955 9.86813 17.1824 10.6394 17.1759 11.4171C17.1759 11.6982 17.0321 11.8877 16.7707 11.9988C15.4635 12.5544 14.1563 13.1164 12.8426 13.6589C12.3851 13.8484 12.0518 13.6197 12.0322 13.123C12.0191 12.7243 12.0322 12.3256 12.0322 11.9269ZM13.1302 12.3452C14.0975 11.9335 15.006 11.5478 15.9079 11.1557C15.9733 11.123 16.0452 11.0184 16.0517 10.9465C16.0648 10.6001 16.0582 10.2537 16.0582 9.84199C15.0713 10.2603 14.1432 10.6524 13.2217 11.0577C13.1694 11.0773 13.1367 11.1949 13.1367 11.2668C13.1302 11.6001 13.1302 11.9335 13.1302 12.3452Z" fill="#F37321"/>
</svg>
