<svg width="34" height="35" viewBox="0 0 34 35" fill="none" xmlns="http://www.w3.org/2000/svg">
<path d="M16.7743 34.0327C13.2053 34.0327 9.63623 34.0327 6.07501 34.0327C4.46622 34.0327 3.6462 33.2127 3.6462 31.5805C3.63839 27.6991 3.63059 23.8098 3.65402 19.9284C3.65402 19.3505 3.54468 19.1006 2.9121 18.9522C1.24864 18.5617 0.0849906 17.0154 0.0303228 15.2895C-0.000915952 14.2274 -0.0243536 13.1574 0.0459336 12.0953C0.0693626 11.7205 0.303655 11.2753 0.584804 11.0098C2.04521 9.58841 3.53687 8.18266 5.05976 6.82378C5.53615 6.39425 5.71576 5.9491 5.68453 5.32432C5.63767 4.34811 5.65329 3.3719 5.67672 2.38788C5.70796 0.98995 6.49674 0.20117 7.88686 0.20117C13.7832 0.19336 19.6795 0.19336 25.5836 0.20117C27.0206 0.20117 27.8094 0.989948 27.8328 2.43474C27.8484 3.06732 27.9109 3.70771 27.825 4.33249C27.6297 5.72261 28.1452 6.69883 29.2385 7.57351C30.5349 8.6122 31.722 9.79927 32.8935 10.9863C33.2137 11.3143 33.4245 11.8532 33.4714 12.314C33.5573 13.2824 33.5104 14.2664 33.4948 15.2426C33.4558 17.0076 32.2765 18.5617 30.574 18.96C29.9883 19.1006 29.8633 19.3271 29.8633 19.8738C29.8867 23.7318 29.8789 27.5819 29.8711 31.4399C29.8711 33.2361 29.0902 34.0249 27.3174 34.0249C23.7952 34.0327 20.2808 34.0327 16.7743 34.0327ZM11.862 27.4335C11.862 25.8404 11.8542 24.3175 11.862 22.8024C11.8698 21.5997 12.026 21.4435 13.1975 21.4357C15.3529 21.4357 17.5084 21.4357 19.6639 21.4357C21.6241 21.4357 21.6241 21.4357 21.6241 23.3803C21.6241 24.7236 21.6241 26.059 21.6241 27.4023C23.8499 27.4023 25.9272 27.4023 28.0983 27.4023C28.0983 24.6533 28.1061 21.959 28.0827 19.2646C28.0827 19.1162 27.9109 18.9288 27.7703 18.8273C27.2627 18.468 26.7316 18.14 26.2084 17.8042C24.4902 19.413 22.1473 19.8035 19.906 17.773C17.5318 19.6395 16.1807 19.6395 13.5333 17.7652C11.4012 19.6239 9.69871 19.6317 7.21523 17.7886C6.61388 18.2337 5.76262 18.5617 5.46586 19.1709C5.16128 19.7957 5.38776 20.686 5.37995 21.4669C5.37995 21.7559 5.37995 22.0449 5.37995 22.326C5.37995 24.0129 5.37995 25.6998 5.37995 27.4335C7.56666 27.4335 9.65185 27.4335 11.862 27.4335ZM3.14638 10.9863C12.3228 10.9863 21.2414 10.9863 30.3631 10.9863C29.0902 9.79927 27.9577 8.71372 26.7863 7.66723C26.6067 7.50322 26.2552 7.48761 25.9819 7.48761C19.8279 7.4798 13.6738 7.4798 7.51981 7.48761C7.24647 7.48761 6.90284 7.51885 6.71541 7.68285C5.55177 8.72154 4.43498 9.78365 3.14638 10.9863ZM7.41047 5.67575C13.6895 5.67575 19.8513 5.67575 26.0834 5.67575C26.0834 4.64488 26.0522 3.67648 26.0912 2.70027C26.1147 2.09111 25.896 1.88807 25.2946 1.90369C23.7718 1.93493 22.2489 1.91149 20.726 1.91149C16.5869 1.91149 12.4399 1.92711 8.30078 1.89587C7.64476 1.88806 7.35581 2.04425 7.40267 2.76275C7.44952 3.71553 7.41047 4.6605 7.41047 5.67575ZM13.666 23.1929C13.666 26.2699 13.666 29.2454 13.666 32.2443C15.7512 32.2443 17.7974 32.2443 19.7966 32.2443C19.7966 29.1751 19.7966 26.1762 19.7966 23.1929C17.7271 23.1929 15.72 23.1929 13.666 23.1929ZM5.38777 29.2376C5.38777 30.1123 5.35653 30.9401 5.41119 31.7601C5.42681 31.9554 5.74701 32.2756 5.93444 32.2756C7.87905 32.3146 9.82366 32.299 11.7995 32.299C11.7995 31.2134 11.7995 30.2294 11.7995 29.2298C9.65185 29.2376 7.56667 29.2376 5.38777 29.2376ZM21.6866 29.2376C21.6866 30.2685 21.6866 31.2525 21.6866 32.3146C23.6624 32.3146 25.5836 32.3302 27.5048 32.2912C27.7078 32.2834 28.0593 31.9397 28.0827 31.7367C28.153 30.9167 28.1139 30.0888 28.1139 29.2454C25.9116 29.2376 23.8186 29.2376 21.6866 29.2376ZM31.7064 12.8372C30.1367 12.8372 28.6606 12.8372 27.1221 12.8372C27.1221 13.7119 27.0674 14.5398 27.1377 15.3598C27.2393 16.539 28.1374 17.3122 29.3322 17.3434C30.6287 17.3747 31.5424 16.703 31.683 15.4613C31.7845 14.6178 31.7064 13.7588 31.7064 12.8372ZM1.77968 12.8372C1.77968 13.751 1.70159 14.5944 1.79531 15.4066C1.94369 16.664 2.84962 17.359 4.13041 17.3356C5.34091 17.3122 6.2234 16.5703 6.34055 15.3598C6.41865 14.5398 6.35616 13.7041 6.35616 12.8294C4.80984 12.8372 3.326 12.8372 1.77968 12.8372ZM20.8353 12.8216C20.8353 13.7119 20.7885 14.5397 20.8431 15.3676C20.929 16.5468 21.7647 17.2888 22.9439 17.3356C24.2091 17.3825 25.2244 16.664 25.3493 15.5003C25.443 14.6335 25.3649 13.7432 25.3649 12.8294C23.8342 12.8216 22.3816 12.8216 20.8353 12.8216ZM12.6664 12.8451C11.0966 12.8451 9.62842 12.8451 8.11334 12.8451C8.11334 13.7041 8.0743 14.5007 8.12116 15.2973C8.19144 16.5 9.12079 17.32 10.3469 17.3356C11.6667 17.3512 12.5727 16.5937 12.6586 15.3207C12.7132 14.5241 12.6664 13.7197 12.6664 12.8451ZM19.0157 12.8607C17.4928 12.8607 16.0011 12.8607 14.486 12.8607C14.486 13.7354 14.4548 14.5398 14.4938 15.3441C14.5485 16.5468 15.4779 17.3434 16.7509 17.3434C18.016 17.3434 18.9532 16.539 19.0079 15.3441C19.0469 14.5398 19.0157 13.7354 19.0157 12.8607Z" fill="#F37321"/>
</svg>
