<svg width="21" height="21" viewBox="0 0 21 21" fill="none" xmlns="http://www.w3.org/2000/svg">
<g clip-path="url(#clip0_1423_586)">
<path d="M6.967 18.5015C14.3348 18.5015 18.3658 12.3959 18.3658 7.10276C18.3658 6.93112 18.3619 6.75566 18.3543 6.58401C19.1385 6.01693 19.8152 5.31451 20.3527 4.50978C19.6224 4.8347 18.847 5.0469 18.053 5.13914C18.889 4.63803 19.5149 3.8508 19.8148 2.92339C19.0284 3.38949 18.1683 3.71828 17.2714 3.89567C16.6672 3.2536 15.8682 2.82847 14.9981 2.68602C14.128 2.54356 13.2352 2.69171 12.4577 3.10756C11.6802 3.52341 11.0614 4.1838 10.6969 4.98663C10.3324 5.78946 10.2425 6.69 10.4411 7.54904C8.8486 7.46913 7.29068 7.05544 5.86833 6.3348C4.44597 5.61416 3.19093 4.60265 2.18458 3.36586C1.6731 4.24771 1.51658 5.29124 1.74685 6.28434C1.97711 7.27745 2.57687 8.14562 3.42424 8.71241C2.78809 8.69222 2.16587 8.52094 1.609 8.21273V8.26232C1.60843 9.18776 1.92836 10.0848 2.51442 10.8011C3.10047 11.5173 3.91648 12.0085 4.82372 12.1911C4.23442 12.3523 3.61593 12.3758 3.01611 12.2597C3.27211 13.0556 3.77021 13.7517 4.44088 14.2509C5.11155 14.7501 5.92133 15.0274 6.75721 15.0442C5.33814 16.1589 3.58517 16.7635 1.78064 16.7607C1.46062 16.7602 1.14092 16.7406 0.823242 16.7019C2.65645 17.878 4.78896 18.5027 6.967 18.5015Z" fill="white"/>
</g>
<defs>
<clipPath id="clip0_1423_586">
<rect width="19.5294" height="19.5294" fill="white" transform="translate(0.823242 0.802734)"/>
</clipPath>
</defs>
</svg>
